<svg id="图层_1" data-name="图层 1" xmlns="http://www.w3.org/2000/svg" viewBox="0 0 220.65 35"><defs><style>.cls-1{fill:#008e91;}.cls-1,.cls-2{fill-rule:evenodd;}.cls-2,.cls-3{fill:#595757;}</style></defs><title>水务logo原色</title><path class="cls-1" d="M4.72,15.9C12.37,17.11,5.87-2,27.16,1c4.8.67,7.95,1,15.19-1L40.52,9.75c-2.75,1.1-7.35,2.3-11,1.06C22.4,8.4,16.81,15,22.17,17.23c1.29.6,3.93.29,4.65.27.17,0-16.66,8.59-25.94-.85a8.34,8.34,0,0,1,.24-2.89A5.86,5.86,0,0,0,4.72,15.9" transform="translate(-0.82)"/><path class="cls-2" d="M48.91,19.1C41.26,17.89,47.76,37,26.47,34c-4.8-.67-7.95-1-15.19,1l1.82-9.75c2.75-1.1,7.35-2.3,11-1.06,7.12,2.42,12.71-4.22,7.35-6.42-1.29-.6-3.93-.29-4.65-.27-.17,0,16.66-8.59,25.94.85a8.31,8.31,0,0,1-.24,2.89,5.86,5.86,0,0,0-3.61-2.14" transform="translate(-0.82)"/><path class="cls-2" d="M119.81,6.4h4.65c2.47.51-1.1,9.62-5,11v2.76c6.58-.46,11.63-16.31,6.21-16.35h-5.84ZM132.3.28h-2.87V18.72c0,1.72-2,1.41-3.86,1.37v2.85c.93,0,2.42.06,3.23,0,2.42-.13,3.5-.87,3.5-3.68,0-16.06,0-8,0-19m9.55,6.12h-4.59c-2.48.51,1.27,10,4.89,11.14V20.4c-6.66-1.23-11.64-16.52-6.08-16.55h5.77Z" transform="translate(-0.82)"/><path class="cls-2" d="M81,7.75H78.18V9.92H70.92v2.19H74c-.38,3.16-1.49,6.33-3.12,7.51v3.28c3.62-1.5,5.61-7.24,6-10.79h1.27V22.91H81V12.11h1.22c.38,3.55,2.42,9.29,6,10.79V19.6c-1.57-1.27-2.8-4.32-3.18-7.48H88.3V9.92H81ZM75.52,3.84c-.74,1.63-1.6,2.9-4.32,2.9V9.1c4,0,6-1.78,7.16-5.27ZM70.92.35V4.49h2.84V2.54H85.45V4.18H88.3V.35ZM65,20v3c3.42-1.46,5-5,5-10.34H67.17c0,4.19-.82,6.08-2.15,7.38M84.54,5.43l-.89-1.59H80.84c.36,1,.91,2,1.34,3a2.5,2.5,0,0,0,2.68,1.8h3.26V6.24H85.75a1.4,1.4,0,0,1-1.21-.81M67.86.35H65A10.09,10.09,0,0,0,70,6V3A6.13,6.13,0,0,1,67.86.35m0,5.24H65a10.56,10.56,0,0,0,5,5.63V8.17a7.74,7.74,0,0,1-2.16-2.58" transform="translate(-0.82)"/><path class="cls-2" d="M112.66,22.91h2.85V.36h-2.85Zm-5.52-1.24H110V.36h-2.85Zm-5.52-5c0,1.84-.44,2.78-1.73,3.33V17.42l-2.4.73V6.86h2.4V4.67h-2.4V.36H94.64V4.67h-2.4V6.86h2.4v12c-.74.14-1.51.26-2.41.35v2.58A39.43,39.43,0,0,0,99.88,20v3a5.24,5.24,0,0,0,4.58-5.2V.36h-2.85Z" transform="translate(-0.82)"/><path class="cls-2" d="M164.58,16.42v3c0,.93-.47,1.08-1.94,1.08H160l0,2.44h2.69c2.56,0,4.77-.47,4.77-3.17V13.2h-9c.29-.61.48-1.15.63-1.54l-3.07,0c-.14.38-.38.91-.68,1.52h-9.07v2.38h7.56a11.72,11.72,0,0,1-7.55,4.86v2.47c5.45-.27,8.94-4.09,10.92-7.33h6.27c.66,0,1.09.13,1.09.84M160.76,9a21,21,0,0,0,5.11-4.37,24.28,24.28,0,0,0,2.2-3H153.93A4.69,4.69,0,0,0,154.6.36h-2.92c-.83,1.34-2.9,3.37-5.22,3.39V6a8,8,0,0,0,3.5-.9,18,18,0,0,0,4.44,4,22.68,22.68,0,0,1-8.3.7v2.47a25.13,25.13,0,0,0,11.44-1.59,26.68,26.68,0,0,0,11,1.58V9.77A25,25,0,0,1,160.76,9m-7.28-3.93H150a11.14,11.14,0,0,0,1.92-1.27v0H163a18.85,18.85,0,0,1-5.38,4,18.14,18.14,0,0,1-4.12-2.74" transform="translate(-0.82)"/><path class="cls-3" d="M179,6.42h2.68V8.94h-2.11a11.76,11.76,0,0,0,2,3.51v3.09A11.86,11.86,0,0,1,179,12.86V22.91h-2.88v-8a8,8,0,0,1-3.65,3.56V15.32c1.45-1,2.48-3.63,2.94-6.38H172.6V6.42h3.47V4.57a18.58,18.58,0,0,1-3.24.26V2.28c3.71,0,5.15-.73,6.3-1.92h3.09A6.43,6.43,0,0,1,179,3.67ZM195,14.29h-3V.36h-2.88V14.29H182V16.8h7.21v6.12h2.88V16.8h3Zm-9.17-7h-2.74a10.16,10.16,0,0,0,4.84,5.4V9.77a7.43,7.43,0,0,1-2.09-2.47m2.09.39V4.79a5.88,5.88,0,0,1-2.09-2.52h-2.74A9.7,9.7,0,0,0,188,7.68" transform="translate(-0.82)"/><path class="cls-3" d="M204.2,3.9h2.18V6.41H204.2V11l2.18-.7V13s-.92.3-2.18.65v5.62c0,2.79-1.09,3.53-3.52,3.66-.43,0-1.06,0-1.69,0V20.09c1.26,0,2.29-.18,2.33-1.41v-4.3c-.85.2-1.67.37-2.35.47V12.18c.86-.1,1.61-.22,2.33-.36h0V6.41H199V3.9h2.35V.36h2.88ZM216.3,18.1a23.59,23.59,0,0,0,3.43-5.72,39.35,39.35,0,0,0,1.48-3.92h-5.52V5.37h5.43V2.86h-5.43V.39H212.8V2.86h-5.43V5.37h5.43V8.46h-5.22v2.88h10.2a18.58,18.58,0,0,1-3.62,5.21,25.68,25.68,0,0,1-3.36-4.67h-2.44A30.1,30.1,0,0,0,212,18.17a8.23,8.23,0,0,1-5.58.92v3.24a9.66,9.66,0,0,0,7.68-2.1,10.33,10.33,0,0,0,7.35,2.09V19.08a9,9,0,0,1-5.18-1" transform="translate(-0.82)"/><path class="cls-3" d="M65.18,33.17l.61-.05a1.35,1.35,0,0,0,.2.6,1.09,1.09,0,0,0,.49.38,1.84,1.84,0,0,0,.75.14,1.8,1.8,0,0,0,.65-.11.91.91,0,0,0,.42-.3.7.7,0,0,0,.14-.42.63.63,0,0,0-.13-.4,1,1,0,0,0-.44-.29,8.59,8.59,0,0,0-.87-.24,4.53,4.53,0,0,1-.94-.3,1.3,1.3,0,0,1-.52-.45,1.1,1.1,0,0,1-.17-.61,1.23,1.23,0,0,1,.21-.69,1.3,1.3,0,0,1,.61-.49,2.31,2.31,0,0,1,.89-.17A2.43,2.43,0,0,1,68,30a1.37,1.37,0,0,1,.63.51,1.48,1.48,0,0,1,.24.77l-.62,0a1,1,0,0,0-.34-.7,1.31,1.31,0,0,0-.85-.24,1.36,1.36,0,0,0-.85.21.64.64,0,0,0-.27.52.55.55,0,0,0,.19.43,2.57,2.57,0,0,0,1,.35,6.38,6.38,0,0,1,1.08.31,1.48,1.48,0,0,1,.63.49,1.21,1.21,0,0,1,.2.69,1.33,1.33,0,0,1-.22.73,1.46,1.46,0,0,1-.64.53,2.22,2.22,0,0,1-.94.19,2.79,2.79,0,0,1-1.11-.19,1.54,1.54,0,0,1-.7-.58,1.63,1.63,0,0,1-.27-.87" transform="translate(-0.82)"/><polygon class="cls-3" points="73.2 34.73 73.2 29.87 73.84 29.87 73.84 31.86 76.37 31.86 76.37 29.87 77.01 29.87 77.01 34.73 76.37 34.73 76.37 32.44 73.84 32.44 73.84 34.73 73.2 34.73"/><polygon class="cls-3" points="82.17 34.73 82.17 29.87 85.69 29.87 85.69 30.44 82.81 30.44 82.81 31.93 85.51 31.93 85.51 32.5 82.81 32.5 82.81 34.16 85.8 34.16 85.8 34.73 82.17 34.73"/><polygon class="cls-3" points="90.76 34.73 90.76 29.87 91.42 29.87 93.97 33.69 93.97 29.87 94.59 29.87 94.59 34.73 93.93 34.73 91.38 30.91 91.38 34.73 90.76 34.73"/><path class="cls-3" d="M100.18,34.73v-.6L102.67,31q.26-.33.5-.58h-2.71v-.57h3.48v.57l-2.73,3.37-.3.34H104v.57Z" transform="translate(-0.82)"/><polygon class="cls-3" points="107.99 34.73 107.99 29.87 108.63 29.87 108.63 31.86 111.16 31.86 111.16 29.87 111.81 29.87 111.81 34.73 111.16 34.73 111.16 32.44 108.63 32.44 108.63 34.73 107.99 34.73"/><polygon class="cls-3" points="116.97 34.73 116.97 29.87 120.48 29.87 120.48 30.44 117.61 30.44 117.61 31.93 120.3 31.93 120.3 32.5 117.61 32.5 117.61 34.16 120.59 34.16 120.59 34.73 116.97 34.73"/><polygon class="cls-3" points="125.55 34.73 125.55 29.87 126.21 29.87 128.76 33.69 128.76 29.87 129.38 29.87 129.38 34.73 128.72 34.73 126.17 30.91 126.17 34.73 125.55 34.73"/><path class="cls-3" d="M142.17,34.73l-1.29-4.86h.66l.74,3.19c.08.33.15.66.21,1,.12-.52.2-.82.22-.9l.93-3.28h.78l.7,2.46a13,13,0,0,1,.38,1.72q.09-.46.24-1.06l.76-3.12h.65l-1.33,4.86h-.62l-1-3.7c-.09-.31-.14-.5-.15-.57-.05.22-.1.41-.14.57l-1,3.7Z" transform="translate(-0.82)"/><path class="cls-3" d="M151,34.73l1.87-4.86h.69l2,4.86h-.73l-.57-1.47h-2l-.53,1.47Zm1.4-2h1.65l-.51-1.35c-.15-.41-.27-.74-.34-1a6.26,6.26,0,0,1-.26.93Z" transform="translate(-0.82)"/><polygon class="cls-3" points="160.08 34.73 160.08 30.44 158.47 30.44 158.47 29.87 162.33 29.87 162.33 30.44 160.72 30.44 160.72 34.73 160.08 34.73"/><polygon class="cls-3" points="167.08 34.73 167.08 29.87 170.59 29.87 170.59 30.44 167.72 30.44 167.72 31.93 170.41 31.93 170.41 32.5 167.72 32.5 167.72 34.16 170.71 34.16 170.71 34.73 167.08 34.73"/><path class="cls-3" d="M176.5,34.73V29.87h2.16a2.91,2.91,0,0,1,1,.13,1.08,1.08,0,0,1,.54.46,1.39,1.39,0,0,1,.2.73,1.23,1.23,0,0,1-.33.87,1.7,1.7,0,0,1-1,.45,1.7,1.7,0,0,1,.39.24,3.34,3.34,0,0,1,.53.65l.85,1.32H180l-.64-1c-.19-.29-.34-.52-.47-.67a1.44,1.44,0,0,0-.33-.32.9.9,0,0,0-.29-.13,1.84,1.84,0,0,0-.36,0h-.75v2.16Zm.64-2.72h1.38a2,2,0,0,0,.69-.09.73.73,0,0,0,.38-.29.78.78,0,0,0,.13-.44.72.72,0,0,0-.25-.57,1.17,1.17,0,0,0-.79-.22h-1.54Z" transform="translate(-0.82)"/><polygon class="cls-3" points="191.73 34.73 191.73 30.44 190.13 30.44 190.13 29.87 193.98 29.87 193.98 30.44 192.37 30.44 192.37 34.73 191.73 34.73"/><polygon class="cls-3" points="198.73 34.73 198.73 29.87 202.25 29.87 202.25 30.44 199.37 30.44 199.37 31.93 202.06 31.93 202.06 32.5 199.37 32.5 199.37 34.16 202.36 34.16 202.36 34.73 198.73 34.73"/><path class="cls-3" d="M211.62,33l.64.16a2.17,2.17,0,0,1-.73,1.21,2,2,0,0,1-1.29.42,2.31,2.31,0,0,1-1.28-.32,2,2,0,0,1-.75-.93,3.32,3.32,0,0,1-.26-1.3,2.87,2.87,0,0,1,.29-1.33,2,2,0,0,1,.83-.86,2.41,2.41,0,0,1,1.18-.29,2,2,0,0,1,1.23.37,1.94,1.94,0,0,1,.69,1l-.63.15a1.49,1.49,0,0,0-.49-.77,1.31,1.31,0,0,0-.81-.24,1.57,1.57,0,0,0-.94.27,1.41,1.41,0,0,0-.53.72,2.88,2.88,0,0,0-.15.93,3,3,0,0,0,.18,1.08,1.35,1.35,0,0,0,.56.69,1.58,1.58,0,0,0,.83.23,1.38,1.38,0,0,0,.92-.31,1.6,1.6,0,0,0,.51-.92" transform="translate(-0.82)"/><polygon class="cls-3" points="216.32 34.73 216.32 29.87 216.97 29.87 216.97 31.86 219.49 31.86 219.49 29.87 220.14 29.87 220.14 34.73 219.49 34.73 219.49 32.44 216.97 32.44 216.97 34.73 216.32 34.73"/></svg>