<?xml version="1.0" encoding="utf-8"?>
<!-- Generator: Adobe Illustrator 21.0.0, SVG Export Plug-In . SVG Version: 6.00 Build 0)  -->
<svg version="1.1" id="图层_1" xmlns="http://www.w3.org/2000/svg" xmlns:xlink="http://www.w3.org/1999/xlink" x="0px" y="0px"
	 viewBox="0 0 223 35" style="enable-background:new 0 0 223 35;" xml:space="preserve">
<style type="text/css">
	.st0{fill-rule:evenodd;clip-rule:evenodd;fill:#FFFFFF;}
	.st1{fill:#FFFFFF;}
</style>
<path class="st0" d="M4.7,15.9C12.4,17.1,5.9-2,27.2,1c4.8,0.7,7.9,1,15.2-1l-1.8,9.8c-2.7,1.1-7.4,2.3-11,1.1
	c-7.1-2.4-12.7,4.2-7.4,6.4c1.3,0.6,3.9,0.3,4.6,0.3c0.2,0-16.7,8.6-25.9-0.9c-0.1-1.1,0-1.8,0.2-2.9C2.1,14.9,3.3,15.7,4.7,15.9"/>
<path class="st0" d="M48.9,19.1C41.3,17.9,47.8,37,26.5,34c-4.8-0.7-7.9-1-15.2,1l1.8-9.8c2.7-1.1,7.4-2.3,11-1.1
	c7.1,2.4,12.7-4.2,7.4-6.4c-1.3-0.6-3.9-0.3-4.6-0.3c-0.2,0,16.7-8.6,25.9,0.9c0.1,1.1,0,1.8-0.2,2.9C51.6,20.1,50.3,19.3,48.9,19.1
	"/>
<path class="st0" d="M119.8,6.4l4.7,0c2.5,0.5-1.1,9.6-5,11v2.8c6.6-0.5,11.6-16.3,6.2-16.3h-5.8V6.4z M132.3,0.3h-2.9v18.4
	c0,1.7-2,1.4-3.9,1.4v2.9c0.9,0,2.4,0.1,3.2,0c2.4-0.1,3.5-0.9,3.5-3.7C132.3,3.2,132.3,11.3,132.3,0.3 M141.9,6.4h-4.6
	c-2.5,0.5,1.3,10,4.9,11.1v2.8c-6.7-1.2-11.6-16.5-6.1-16.5h5.8V6.4z"/>
<path class="st0" d="M81,7.8h-2.9v2.2h-7.3v2.2H74c-0.4,3.2-1.5,6.3-3.1,7.5v3.3c3.6-1.5,5.6-7.2,6-10.8h1.3l0,10.8H81V12.1h1.2
	c0.4,3.5,2.4,9.3,6,10.8v-3.3c-1.6-1.3-2.8-4.3-3.2-7.5h3.2V9.9H81V7.8z M75.5,3.8c-0.7,1.6-1.6,2.9-4.3,2.9v2.4c4,0,6-1.8,7.2-5.3
	H75.5z M70.9,0.3v4.1h2.8V2.5l11.7,0v1.6h2.8V0.4L70.9,0.3z M65,20v3c3.4-1.5,5-5,5-10.3h-2.8C67.2,16.8,66.4,18.7,65,20 M84.5,5.4
	l-0.9-1.6h-2.8c0.4,1,0.9,2,1.3,3c0.6,1.4,1.3,1.8,2.7,1.8h3.3V6.2h-2.4C85.7,6.2,84.8,6.2,84.5,5.4 M67.9,0.3H65
	c1,2.5,2.5,4.3,5,5.6V3C68.9,2.1,68.4,1.5,67.9,0.3 M67.9,5.6H65c1,2.5,2.5,4.2,5,5.6V8.2C68.8,7.1,68.4,6.6,67.9,5.6"/>
<path class="st0" d="M112.7,22.9h2.8l0-22.6h-2.8L112.7,22.9z M107.1,21.7l2.8,0l0-21.3h-2.8L107.1,21.7z M101.6,16.6
	c0,1.8-0.4,2.8-1.7,3.3v-2.5c-0.9,0.3-1.7,0.5-2.4,0.7V6.9h2.4V4.7h-2.4V0.4h-2.8l0,4.3h-2.4v2.2h2.4v12c-0.7,0.1-1.5,0.3-2.4,0.4
	v2.6c2.7-0.3,4.2-0.8,7.6-1.8v3c3.4-0.4,4.6-3.5,4.6-5.2V0.4h-2.8V16.6z"/>
<path class="st0" d="M164.6,16.4v3c0,0.9-0.5,1.1-1.9,1.1H160l0,2.4h2.7c2.6,0,4.8-0.5,4.8-3.2c0-2.2,0-4.4,0-6.5h-9
	c0.3-0.6,0.5-1.1,0.6-1.5l-3.1,0c-0.1,0.4-0.4,0.9-0.7,1.5c-3,0-6,0-9.1,0v2.4h7.6c-1.6,2.2-4.1,4.4-7.5,4.9v2.5
	c5.4-0.3,8.9-4.1,10.9-7.3h6.3C164.2,15.6,164.6,15.7,164.6,16.4 M160.8,9c1.9-1.1,3.6-2.6,5.1-4.4c0.8-0.9,1.5-1.9,2.2-3
	c-4.7,0-9.4,0-14.1,0c0.3-0.5,0.6-0.9,0.7-1.3h-2.9c-0.8,1.3-2.9,3.4-5.2,3.4V6c1.5-0.1,2.3-0.3,3.5-0.9c1,1.3,2.5,2.7,4.4,4
	c-2.3,0.7-5.1,1-8.3,0.7v2.5c4,0.3,7.9-0.2,11.4-1.6c2.8,1.1,6.4,1.8,11,1.6V9.8C165.4,9.9,162.9,9.6,160.8,9 M153.5,5.1H150
	c0.7-0.4,1.3-0.8,1.9-1.3v0l11.1,0c-1.3,1.3-3,2.8-5.4,4C155.9,7,154.6,6.1,153.5,5.1"/>
<path class="st1" d="M179,6.4l2.7,0v2.5h-2.1c0.4,1.1,1,2.3,2,3.5v3.1c-0.8-0.6-1.7-1.6-2.5-2.7l0,10.1h-2.9v-8
	c-0.9,1.6-2.1,2.9-3.6,3.6v-3.2c1.4-1,2.5-3.6,2.9-6.4h-2.8V6.4h3.5V4.6c-1,0.2-2.1,0.3-3.2,0.3V2.3c3.7,0,5.1-0.7,6.3-1.9h3.1
	c-0.6,1.5-1.7,2.6-3.3,3.3V6.4z M195,14.3l-3,0l0-13.9h-2.9l0,13.9H182v2.5h7.2v6.1h2.9v-6.1h3V14.3z M185.9,7.3h-2.7
	c0.9,2.4,2.5,4,4.8,5.4l0-2.9C186.8,8.7,186.4,8.2,185.9,7.3 M188,7.7V4.8c-1.1-0.8-1.6-1.4-2.1-2.5h-2.7C184,4.7,185.5,6.4,188,7.7
	"/>
<path class="st1" d="M204.2,3.9h2.2v2.5h-2.2c0,1.4,0,1.8,0,4.6c0.7-0.2,1.4-0.4,2.2-0.7V13c0,0-0.9,0.3-2.2,0.7v5.6
	c0,2.8-1.1,3.5-3.5,3.7c-0.4,0-1.1,0-1.7,0v-2.8c1.3,0,2.3-0.2,2.3-1.4v-4.3c-0.8,0.2-1.7,0.4-2.3,0.5v-2.7c0.9-0.1,1.6-0.2,2.3-0.4
	l0,0V6.4H199V3.9h2.3l0-3.5h2.9V3.9z M216.3,18.1c1.3-1.5,2.4-3.4,3.4-5.7c0.5-1.2,1-2.5,1.5-3.9c-0.9,0-3.1,0-5.5,0V5.4h5.4V2.9
	h-5.4V0.4h-2.9v2.5h-5.4v2.5h5.4v3.1h-5.2v2.9l10.2,0c-0.8,1.7-2,3.7-3.6,5.2c-1.1-1.1-2.6-3.4-3.4-4.7l-2.4,0
	c0.7,1.7,2.3,4.6,3.6,6.3c-1.6,0.9-3.4,1.3-5.6,0.9v3.2c2.7,0.4,5.3-0.3,7.7-2.1c1.9,1.4,4.3,2.3,7.4,2.1v-3.2
	C219.4,19.3,217.7,18.9,216.3,18.1"/>
<path class="st1" d="M65.2,33.2l0.6-0.1c0,0.2,0.1,0.4,0.2,0.6c0.1,0.2,0.3,0.3,0.5,0.4c0.2,0.1,0.5,0.1,0.7,0.1
	c0.2,0,0.5,0,0.7-0.1c0.2-0.1,0.3-0.2,0.4-0.3c0.1-0.1,0.1-0.3,0.1-0.4c0-0.2,0-0.3-0.1-0.4c-0.1-0.1-0.2-0.2-0.4-0.3
	c-0.1-0.1-0.4-0.1-0.9-0.2c-0.4-0.1-0.8-0.2-0.9-0.3c-0.2-0.1-0.4-0.3-0.5-0.5c-0.1-0.2-0.2-0.4-0.2-0.6c0-0.2,0.1-0.5,0.2-0.7
	c0.1-0.2,0.3-0.4,0.6-0.5c0.3-0.1,0.6-0.2,0.9-0.2c0.4,0,0.7,0.1,1,0.2c0.3,0.1,0.5,0.3,0.6,0.5c0.1,0.2,0.2,0.5,0.2,0.8l-0.6,0
	c0-0.3-0.1-0.5-0.3-0.7c-0.2-0.2-0.5-0.2-0.8-0.2c-0.4,0-0.7,0.1-0.9,0.2c-0.2,0.1-0.3,0.3-0.3,0.5c0,0.2,0.1,0.3,0.2,0.4
	c0.1,0.1,0.4,0.2,1,0.3c0.5,0.1,0.9,0.2,1.1,0.3c0.3,0.1,0.5,0.3,0.6,0.5c0.1,0.2,0.2,0.4,0.2,0.7c0,0.3-0.1,0.5-0.2,0.7
	c-0.1,0.2-0.4,0.4-0.6,0.5c-0.3,0.1-0.6,0.2-0.9,0.2c-0.4,0-0.8-0.1-1.1-0.2c-0.3-0.1-0.5-0.3-0.7-0.6
	C65.3,33.8,65.2,33.5,65.2,33.2"/>
<polygon class="st1" points="74,34.7 74,29.9 74.7,29.9 74.7,31.9 77.2,31.9 77.2,29.9 77.8,29.9 77.8,34.7 77.2,34.7 77.2,32.4 
	74.7,32.4 74.7,34.7 "/>
<polygon class="st1" points="83,34.7 83,29.9 86.5,29.9 86.5,30.4 83.6,30.4 83.6,31.9 86.3,31.9 86.3,32.5 83.6,32.5 83.6,34.2 
	86.6,34.2 86.6,34.7 "/>
<polygon class="st1" points="91.6,34.7 91.6,29.9 92.2,29.9 94.8,33.7 94.8,29.9 95.4,29.9 95.4,34.7 94.8,34.7 92.2,30.9 
	92.2,34.7 "/>
<path class="st1" d="M100.2,34.7v-0.6l2.5-3.1c0.2-0.2,0.3-0.4,0.5-0.6h-2.7v-0.6h3.5v0.6l-2.7,3.4l-0.3,0.3h3.1v0.6H100.2z"/>
<polygon class="st1" points="108.8,34.7 108.8,29.9 109.5,29.9 109.5,31.9 112,31.9 112,29.9 112.6,29.9 112.6,34.7 112,34.7 
	112,32.4 109.5,32.4 109.5,34.7 "/>
<polygon class="st1" points="117.8,34.7 117.8,29.9 121.3,29.9 121.3,30.4 118.4,30.4 118.4,31.9 121.1,31.9 121.1,32.5 118.4,32.5 
	118.4,34.2 121.4,34.2 121.4,34.7 "/>
<polygon class="st1" points="126.4,34.7 126.4,29.9 127,29.9 129.6,33.7 129.6,29.9 130.2,29.9 130.2,34.7 129.5,34.7 127,30.9 
	127,34.7 "/>
<path class="st1" d="M142.2,34.7l-1.3-4.9h0.7l0.7,3.2c0.1,0.3,0.1,0.7,0.2,1c0.1-0.5,0.2-0.8,0.2-0.9l0.9-3.3h0.8l0.7,2.5
	c0.2,0.6,0.3,1.2,0.4,1.7c0.1-0.3,0.1-0.7,0.2-1.1l0.8-3.1h0.6l-1.3,4.9h-0.6l-1-3.7c-0.1-0.3-0.1-0.5-0.2-0.6
	c-0.1,0.2-0.1,0.4-0.1,0.6l-1,3.7H142.2z"/>
<path class="st1" d="M151,34.7l1.9-4.9h0.7l2,4.9h-0.7l-0.6-1.5h-2l-0.5,1.5H151z M152.4,32.7h1.6l-0.5-1.3c-0.2-0.4-0.3-0.7-0.3-1
	c-0.1,0.3-0.1,0.6-0.3,0.9L152.4,32.7z"/>
<polygon class="st1" points="160.9,34.7 160.9,30.4 159.3,30.4 159.3,29.9 163.2,29.9 163.2,30.4 161.5,30.4 161.5,34.7 "/>
<polygon class="st1" points="167.9,34.7 167.9,29.9 171.4,29.9 171.4,30.4 168.5,30.4 168.5,31.9 171.2,31.9 171.2,32.5 168.5,32.5 
	168.5,34.2 171.5,34.2 171.5,34.7 "/>
<path class="st1" d="M176.5,34.7v-4.9h2.2c0.4,0,0.8,0,1,0.1c0.2,0.1,0.4,0.2,0.5,0.5c0.1,0.2,0.2,0.5,0.2,0.7
	c0,0.3-0.1,0.6-0.3,0.9c-0.2,0.2-0.6,0.4-1,0.5c0.2,0.1,0.3,0.2,0.4,0.2c0.2,0.2,0.4,0.4,0.5,0.6l0.8,1.3H180l-0.6-1
	c-0.2-0.3-0.3-0.5-0.5-0.7c-0.1-0.2-0.2-0.3-0.3-0.3c-0.1-0.1-0.2-0.1-0.3-0.1c-0.1,0-0.2,0-0.4,0h-0.7v2.2H176.5z M177.1,32h1.4
	c0.3,0,0.5,0,0.7-0.1c0.2-0.1,0.3-0.2,0.4-0.3c0.1-0.1,0.1-0.3,0.1-0.4c0-0.2-0.1-0.4-0.3-0.6c-0.2-0.1-0.4-0.2-0.8-0.2h-1.5V32z"/>
<polygon class="st1" points="192.6,34.7 192.6,30.4 191,30.4 191,29.9 194.8,29.9 194.8,30.4 193.2,30.4 193.2,34.7 "/>
<polygon class="st1" points="199.6,34.7 199.6,29.9 203.1,29.9 203.1,30.4 200.2,30.4 200.2,31.9 202.9,31.9 202.9,32.5 200.2,32.5 
	200.2,34.2 203.2,34.2 203.2,34.7 "/>
<path class="st1" d="M211.6,33l0.6,0.2c-0.1,0.5-0.4,0.9-0.7,1.2c-0.4,0.3-0.8,0.4-1.3,0.4c-0.5,0-0.9-0.1-1.3-0.3
	c-0.3-0.2-0.6-0.5-0.7-0.9c-0.2-0.4-0.3-0.8-0.3-1.3c0-0.5,0.1-0.9,0.3-1.3c0.2-0.4,0.5-0.7,0.8-0.9c0.4-0.2,0.8-0.3,1.2-0.3
	c0.5,0,0.9,0.1,1.2,0.4c0.3,0.2,0.6,0.6,0.7,1l-0.6,0.1c-0.1-0.4-0.3-0.6-0.5-0.8c-0.2-0.2-0.5-0.2-0.8-0.2c-0.4,0-0.7,0.1-0.9,0.3
	c-0.3,0.2-0.4,0.4-0.5,0.7c-0.1,0.3-0.2,0.6-0.2,0.9c0,0.4,0.1,0.8,0.2,1.1c0.1,0.3,0.3,0.5,0.6,0.7c0.3,0.2,0.5,0.2,0.8,0.2
	c0.4,0,0.7-0.1,0.9-0.3C211.4,33.7,211.5,33.4,211.6,33"/>
<polygon class="st1" points="217.1,34.7 217.1,29.9 217.8,29.9 217.8,31.9 220.3,31.9 220.3,29.9 221,29.9 221,34.7 220.3,34.7 
	220.3,32.4 217.8,32.4 217.8,34.7 "/>
</svg>
