<?xml version="1.0" encoding="utf-8"?>
<!-- Generator: Adobe Illustrator 21.0.0, SVG Export Plug-In . SVG Version: 6.00 Build 0)  -->
<svg version="1.1" id="图层_1" xmlns="http://www.w3.org/2000/svg" xmlns:xlink="http://www.w3.org/1999/xlink" x="0px" y="0px"
	 viewBox="0 0 343 90" style="enable-background:new 0 0 343 90;" xml:space="preserve">
<style type="text/css">
	.st0{fill:#00A5A8;}
</style>
<path class="st0" d="M342.8,5.2C310.7-5.5,287.5,3.5,266.5,8c-4.2,0.9-8.3,1.9-12.3,2.9c-6.6,1.6-13.2,3.2-19.9,4.4
	c-18.3,3.4-37.6,3.8-62.8-7.1v0L171.1,8C139.1-2.7,116-0.4,95,4.1C90.9,5,86.8,6,82.7,7c-6.6,1.6-13.2,3.2-19.9,4.4
	C44.5,14.8,25.2,15.2,0,4.3v26v8.8V90h343V46.8l0.1-41.5L342.8,5.2z"/>
</svg>
