<svg viewBox="0 0 1587 1024" xmlns="http://www.w3.org/2000/svg"><path d="M6.647 1017.678h1573.931V6.286H6.647v1011.5z m1577.255 3.215zM0 1024V0h1587.225v1024z" fill="#DEDEDE" p-id="20494"></path><path d="M635.548 3.215v1017.678h948.354V3.215H635.548z" fill="#E60012" p-id="20495"></path><path d="M3.324 3.215v1017.678h632.224V3.215H3.324z" fill="#009944" p-id="20496"></path><path d="M831.237 662.533c-75.501-2.204-421.399-210.826-423.747-243.952l19.038-30.815c34.283 48.155 387.983 251.033 422.663 243.844l-18.063 30.923z" fill="#FFF100" p-id="20497"></path><path d="M831.237 661.919c-74.887-1.915-421.399-211.115-423.205-243.41h-0.542l0.47 0.325 19.11-30.851-0.542-0.29-0.542 0.362c34.21 47.649 375.7 244.097 421.182 244.241h2.131v-0.614l-0.47-0.289-18.062 30.923 1.12 0.614 18.063-30.923 0.65-1.156-1.265 0.253h-1.986c-44.181 0.217-386.827-196.7-420.098-243.735l-0.614-0.759-19.544 31.61c2.998 34.138 348.245 242.037 424.36 244.566v-1.228z" fill="#231815" p-id="20498"></path><path d="M832.935 663.436l-8.128 1.915c-28.214-3.035-113.903-43.35-215.161-101.873-117.84-68.168-215.197-130.05-204.793-146.487l2.926-4.877h0.578c-9.464 27.564 192.294 138.829 204.034 146.018 116.648 69.83 215.017 110.506 223.723 99.921l-3.18 5.347zM422.663 383.612c-6.683 17.593 90.312 75.501 207.068 144.139S847.168 638.727 854.61 632.513l3.396-6.177-10.08 1.228c-31.609-8.815-113.83-45.265-215.738-104.98S441.448 408.214 427.72 384.769l-1.517-6.792h-0.325l-2.89 4.913-0.506 0.723z" fill="#FFF100" p-id="20499"></path><path d="M832.935 663.436v-0.578l-8.128 1.879c-27.672-2.963-113.505-43.35-214.691-101.8-111.988-64.556-205.588-124.343-205.263-143.2l0.723-2.457 2.673-4.48v-0.613l-0.578-0.253-0.29 2.24c0.29 31.537 193.053 137.275 204.577 144.5 104.401 62.424 193.991 101.583 218.34 101.655l6.177-1.914-0.47-0.362-0.47-0.252-3.178 5.274 0.47 0.325h0.65v-0.867l-0.795 0.18v0.579h-0.542v2.312l4.263-7.225-0.94-0.615-5.31 1.373c-23.626 0-113.469-39.087-217.69-101.511-11.415-6.792-204.503-113.794-204.033-143.489l0.289-1.77 0.18-0.614-1.192-0.361h-0.397l-3.143 5.31-0.867 3.035c0.361 20.59 93.708 79.294 205.912 144.247 101.367 58.63 186.947 98.874 215.378 101.98l8.417-1.914-0.18-0.614zM422.663 383.612l-0.542-0.217-0.397 2.059c0.397 20.447 94.756 76.188 207.718 142.73C738.83 592.559 833.91 633.669 852.081 633.777l2.926-0.722 3.613-6.25 0.47-0.975-11.236 1.3c-31.212-8.706-113.396-45.192-215.34-104.762S441.916 407.635 428.478 384.659l-1.409-6.719v-0.47h-1.192l-3.07 5.202-0.47 0.759 0.542 0.289 0.578 0.325 0.47-0.758 2.925-4.95-0.578-0.252v0.541-0.541h-0.614l1.59 6.791c14.052 23.843 102.559 78.644 204.503 138.395s184.238 96.165 215.884 105.015l9.175-1.047-2.854 5.093-1.986 0.326c-17.232 0-112.783-41.291-222.025-105.485C516.95 461.028 422.41 404.095 422.663 385.454l0.253-1.59-0.578-0.252z" fill="#231815" p-id="20500"></path><path d="M632.188 676.658c91.071 0.433 170.474-12.463 206.852-30.706l13.185-22.362c-31.609 16.654-117.297 33.958-219.893 31.32-83.629-0.469-172.93-8.958-215.774-32.295l19.363 25.938c34.788 18.64 117.984 28.033 196.267 28.105z" fill="#FFF100" p-id="20501"></path><path d="M632.188 677.2h4.552c89.192 0 166.536-12.752 202.517-30.707l13.438-22.578 1.012-1.77-1.807 1.012c-29.153 15.425-105.665 31.5-198.868 31.428l-20.7-0.216c-83.557-0.542-172.858-8.995-215.45-32.296l-0.794 0.903 19.363 25.902c35.15 18.857 118.382 28.322 196.7 28.322v-1.156c-78.174 0-161.406-9.465-195.977-28.033l-19.183-25.794-0.47 0.398-0.325 0.542c43.098 23.409 132.399 31.826 216.1 32.332l20.7 0.252c93.455 0 169.788-16.039 199.41-31.609l-0.217-0.542-0.542-0.289-13.221 22.362c-35.294 17.556-112.71 30.38-201.722 30.38h-4.516v1.157z" fill="#231815" p-id="20502"></path><path d="M633.344 678.645c-52.454 0-100.933-3.288-138.612-9.899-27.346-5.202-45.517-11.56-58.956-18.423l-5.057-7.478c9.79 6.105 29.225 13.944 65.025 20.591 37.39 6.72 85.58 9.79 137.744 9.934 49.745-0.397 96.635-2.89 134.566-9.32 32.513-5.708 69.288-15.642 79.006-26.335l-5.817 8.923c-10.837 7.984-40.785 16.943-70.985 22.65-38.22 6.72-87.206 9.393-136.914 9.32z m0-20.555c-57.8-0.29-103.823-2.42-144.283-9.61a281.775 281.775 0 0 1-76.983-25.648l-2.384-5.022c7.225 5.166 39.015 17.846 80.378 25.288 39.124 6.683 84.641 9.681 143.2 9.537 51.622 0 101.656-2.24 141.249-9.537s70.046-16.04 82.365-23.915l-3.938 6.791c-4.985 5.491-40.424 15.57-77.633 22.362-39.918 6.936-90.06 9.79-141.971 9.681z" fill="#FFF100" p-id="20503"></path><path d="M633.344 678.03c-52.454 0-100.825-3.287-138.54-9.934-27.274-5.202-45.373-11.451-58.703-18.315l-4.913-7.225-0.47 0.325-0.324 0.542c9.898 6.069 29.405 14.016 65.025 20.663 37.497 6.72 85.76 9.79 137.925 9.935 49.744-0.398 96.67-2.999 134.638-9.393 32.512-5.744 69.396-15.57 79.475-26.48l-0.47-0.397-0.542-0.289-5.707 8.923c-10.549 7.695-40.388 16.726-70.552 22.398-37.607 6.61-85.725 9.284-134.783 9.284h-1.987v1.083h1.987c49.058 0 97.249-2.673 135-9.32 30.308-5.816 60.075-14.739 71.31-22.83l5.852-9.068-1.047-0.723c-9.357 10.404-46.24 20.555-78.644 26.119-37.932 6.43-84.75 8.959-134.458 9.32-52.128 0-100.283-3.215-137.672-9.898-35.547-6.647-54.983-14.45-64.7-20.555l-0.795 0.867 5.021 7.441c13.764 7.225 32.043 13.511 59.39 18.713 37.75 6.647 86.303 9.754 138.756 9.934v-1.228z m0-19.94v-0.615c-57.8-0.36-103.787-2.492-144.211-9.681a279.066 279.066 0 0 1-76.73-25.54l-2.131-4.733-0.578 0.217-0.397 0.47c7.225 5.238 39.195 17.845 80.594 25.287 38.257 6.575 82.618 9.537 139.19 9.537h6.72c50.827 0 99.921-2.348 138.972-9.537s70.083-16.003 82.546-23.95l-0.289-0.543-0.542-0.325-3.974 6.792c-4.407 5.057-40.062 15.353-77.126 22.072-39.34 6.972-88.723 9.754-139.913 9.754h-1.987v1.156h1.987c51.298 0 100.645-2.818 140.057-9.754 37.39-6.791 72.575-16.726 78.03-22.578l4.01-6.828-0.83-0.83c-12.211 7.802-42.881 16.58-82.15 23.806s-88.216 9.79-138.792 9.79h-6.574c-56.572 0-100.753-2.963-139.01-9.537-41.11-7.406-73.116-20.122-79.98-25.288l-0.94 0.687 2.349 5.057a278.777 278.777 0 0 0 77.452 25.938c40.496 7.225 86.7 9.32 144.5 9.681v-0.614z" fill="#231815" p-id="20504"></path><path d="M635.042 561.708c84.099-0.686 188.717-11.452 248.468-34.969v-20.591c-35.294 19.218-153.387 31.97-249.263 33.885-113.505-1.084-205.66-15.967-245.65-42.52l-0.506 26.553c73.695 30.778 149.81 37.245 247.06 37.642z" fill="#FFF100" p-id="20505"></path><path d="M635.042 562.322c84.171-0.686 188.825-11.451 248.72-35.041l0.398-0.18v-21.965l-0.975 0.47c-34.97 19.074-153.17 31.898-248.866 33.813-113.396-1.084-205.587-15.967-245.65-42.447l-0.83-0.614-0.651 27.708v0.397h0.397c73.804 30.887 150.064 37.39 247.276 37.787v-1.228c-97.212-0.362-173.183-6.864-246.914-37.534v0.506h0.505l0.65-26.552h-0.65l-0.36 0.541c40.46 26.552 132.614 41.508 246.191 42.484 95.876-1.807 213.86-14.45 249.516-33.85l-0.325-0.542h-0.614v20.592h0.614l-0.217-0.542c-59.606 23.517-164.224 34.21-248.287 34.897v1.228z" fill="#231815" p-id="20506"></path><path d="M886.364 527.425c-2.06 3.288-41.075 16.401-98.55 26.263a1016.811 1016.811 0 0 1-153.025 10.838 1105.823 1105.823 0 0 1-146.776-9.14c-60.293-9.32-91.432-22.397-102.992-26.985v-5.708A467.638 467.638 0 0 0 488.952 549.1a1068.362 1068.362 0 0 0 145.584 9.176 1018.22 1018.22 0 0 0 152.014-11.162c58.956-9.285 95.298-21.423 99.814-27.022v7.225z" fill="#F9DD6E" p-id="20507"></path><path d="M886.364 527.425l-0.542-0.325c-1.445 2.746-40.858 16.365-98.08 26.046a1026.854 1026.854 0 0 1-152.953 10.838h-1.59a1106.618 1106.618 0 0 1-145.114-9.14c-60.22-9.32-91.252-22.325-102.812-26.877l-0.252 0.506h0.65v-5.708h-0.65l-0.217 0.542A465.037 465.037 0 0 0 488.88 549.86a1062.51 1062.51 0 0 0 142.658 9.176h2.998a1029.13 1029.13 0 0 0 152.086-11.163c59.065-9.392 95.226-21.277 100.211-27.238l-0.47-0.397h-0.613v7.225h0.614l-0.542-0.326 0.542 0.326h0.65v-8.851l-1.12 1.373c-4.01 5.202-40.605 17.556-99.416 26.877a1034.151 1034.151 0 0 1-151.942 11.054h-2.998a1066.88 1066.88 0 0 1-142.477-9.14 467.313 467.313 0 0 1-103.788-26.443l-0.794-0.361v7.008h0.325c11.524 4.588 42.736 17.737 103.137 27.057a1108.171 1108.171 0 0 0 145.258 9.14h1.59a1032.49 1032.49 0 0 0 153.098-10.837c57.8-10.007 96.345-22.831 99.019-26.552v-0.181z" fill="#231815" p-id="20508"></path><path d="M886.364 506.292c-6.394 5.13-49.636 16.184-105.485 25.035a1020.387 1020.387 0 0 1-145.548 10.007 984.588 984.588 0 0 1-140.418-8.887c-56.825-7.225-109.712-31.97-109.712-31.97v-7.985s52.815 25.938 110.434 34.03a1025.95 1025.95 0 0 0 139.949 8.526 997.267 997.267 0 0 0 144.5-10.151c56.174-7.55 102.017-21.675 106.533-25.288v6.72z m0 20.989c-2.06 3.215-41.075 16.4-98.55 26.263A1016.811 1016.811 0 0 1 634.79 564.38a1105.823 1105.823 0 0 1-146.776-9.14c-60.293-9.32-91.432-22.397-102.992-26.985v-5.707A468.65 468.65 0 0 0 488.952 549.1a1068.362 1068.362 0 0 0 145.584 9.176 1018.22 1018.22 0 0 0 152.014-11.162c58.956-9.285 95.298-21.423 99.814-27.022v7.225z" fill="#FFF100" p-id="20509"></path><path d="M886.364 506.292l-0.398-0.47c-5.996 4.914-49.491 16.112-105.196 24.963a1030.683 1030.683 0 0 1-145.44 9.934h-3.142a963.671 963.671 0 0 1-137.275-8.85c-56.644-7.225-109.387-31.899-109.531-31.899l-0.253 0.506h0.65v-7.984h-0.65l-0.217 0.434s52.779 26.118 110.543 34.174a1027.287 1027.287 0 0 0 138.395 8.598h1.661a1001.639 1001.639 0 0 0 144.5-10.151c56.428-7.622 102.018-21.675 106.93-25.468l-0.397-0.47h-0.614v6.72h0.614l-0.397-0.47 0.397 0.47h0.65v-7.804l-1.047 0.723c-4.082 3.287-50.178 17.701-106.208 25.287a1013.524 1013.524 0 0 1-144.5 10.08h-1.662a1019.015 1019.015 0 0 1-138.25-8.562c-57.439-8.02-110.073-33.958-110.145-33.958l-0.867-0.47v9.393h0.253s52.959 24.637 109.928 32.079a981.336 981.336 0 0 0 137.492 8.778h3.251a1020.568 1020.568 0 0 0 145.584-10.006c55.994-8.923 99.019-19.941 105.846-25.288h0.253v-0.325z m0 20.989l-0.542-0.325c-1.445 2.71-40.858 16.364-98.08 26.046a1026.854 1026.854 0 0 1-152.953 10.837h-1.59a1106.618 1106.618 0 0 1-145.114-9.14c-60.22-9.32-91.252-22.324-102.812-26.876l-0.252 0.506h0.65v-5.708h-0.65l-0.217 0.542a466.013 466.013 0 0 0 104.076 26.552 1062.51 1062.51 0 0 0 142.658 9.175h2.998a1029.13 1029.13 0 0 0 152.086-11.162c59.065-9.393 95.226-21.278 100.211-27.239l-0.47-0.397h-0.613v7.225h0.614l-0.542-0.325 0.542 0.325h0.65v-8.85l-1.12 1.372c-4.01 5.202-40.605 17.557-99.416 26.877a1034.151 1034.151 0 0 1-151.942 11.054h-2.998a1066.88 1066.88 0 0 1-142.477-9.14 468.83 468.83 0 0 1-103.788-26.443l-0.794-0.361v7.008h0.325c11.524 4.588 42.736 17.738 103.137 27.058a1108.171 1108.171 0 0 0 145.258 9.14h1.59a1032.49 1032.49 0 0 0 153.098-10.838c57.8-10.007 96.345-22.903 99.019-26.552v-0.18z" fill="#231815" p-id="20510"></path><path d="M636.27 438.666c75.465-0.542 168.704-9.934 222.277-30.598l-11.524-18.062c-31.717 16.87-125.426 28.069-211.367 29.695-101.728-0.867-173.653-10.007-209.525-33.344l-10.838 19.29c66.145 27.022 133.952 32.839 221.122 33.055z" fill="#FFF100" p-id="20511"></path><path d="M636.27 439.208c75.538-0.542 168.776-9.934 222.494-30.598l0.65-0.253-11.849-18.676-0.325-0.542-0.542 0.289c-31.392 16.798-125.209 28.033-211.042 29.695-101.656-0.904-173.4-10.08-209.272-33.344l-0.542-0.325-11.235 19.869-0.253 0.578 0.578 0.253C481.15 433.247 549.1 438.99 636.27 439.208v-1.156c-87.17-0.217-154.832-5.96-220.868-32.946l-0.253 0.506 0.542 0.289 10.837-19.291-0.542-0.289-0.397 0.506c36.125 23.373 108.375 32.512 209.995 33.452 86.013-1.59 179.65-12.825 211.692-29.767l-0.325-0.542-0.578 0.289 11.56 18.062 0.542-0.289-0.253-0.542c-53.393 20.592-146.667 29.984-222.024 30.526v1.156z" fill="#231815" p-id="20512"></path><path d="M851.611 390.15c-5.852 4.371-34.318 14.197-84.604 21.928a926.607 926.607 0 0 1-130.412 8.85 910.64 910.64 0 0 1-126.148-7.802 359.733 359.733 0 0 1-87.784-21.458l2.998-4.841c7.659 3.612 33.813 13.908 85.4 21.025a946.476 946.476 0 0 0 125.534 7.586 919.237 919.237 0 0 0 129.472-8.96c50.575-6.646 77.597-19.073 81.787-22.288l3.613 5.96z m10.007 18.388c-1.77 2.854-36.74 14.45-88.362 23.12a947.451 947.451 0 0 1-137.275 9.573 996.075 996.075 0 0 1-131.531-8.092c-54.188-8.164-82.04-19.544-92.3-23.517l2.457-5.13a411.825 411.825 0 0 0 90.638 23.3 1008.972 1008.972 0 0 0 130.555 7.984 945.573 945.573 0 0 0 136.445-9.862c52.814-8.164 81.642-18.785 85.652-23.662l3.613 6.25z" fill="#FFF100" p-id="20513"></path><path d="M851.214 389.68c-5.527 4.191-34.066 14.126-84.28 21.676a908.508 908.508 0 0 1-130.339 8.886h-1.625a910.35 910.35 0 0 1-124.451-7.766 350.846 350.846 0 0 1-87.856-21.459l-0.217 0.65 0.542 0.29 2.998-4.841-0.542-0.29-0.325 0.543c7.767 3.612 33.994 13.98 85.689 21.06a941.31 941.31 0 0 0 125.643 7.55 908.328 908.328 0 0 0 129.544-8.994c50.575-6.647 77.705-19.074 82.148-22.362l-0.397-0.47-0.542 0.326 3.613 5.96 1.12-0.614-3.613-5.96-0.434-0.615-0.541 0.47c-3.974 3.035-31.14 15.498-81.498 22.145a918.912 918.912 0 0 1-129.4 8.923 943.694 943.694 0 0 1-125.499-7.587c-51.514-7.008-77.705-17.304-85.29-20.88l-0.47-0.253-3.324 5.274-0.361 0.615 0.686 0.216a359.95 359.95 0 0 0 88.037 21.459 899.26 899.26 0 0 0 124.559 7.875h1.662a933.868 933.868 0 0 0 130.52-8.85c50.358-7.804 78.68-17.594 84.893-22.073l-0.795-0.903z m10.404 18.822l-0.542-0.29c-1.192 2.277-36.522 14.45-87.82 22.832a953.7 953.7 0 0 1-137.275 9.537h-1.59a997.05 997.05 0 0 1-130.05-8.092c-53.97-8.2-81.859-19.4-92.118-23.445l-0.253 0.542 0.542 0.216 2.456-5.093-0.542-0.253-0.253 0.542a413.487 413.487 0 0 0 90.783 23.336A1016.847 1016.847 0 0 0 635.8 436.39a946.692 946.692 0 0 0 136.517-9.862c52.96-8.236 81.643-18.64 86.05-23.878l-0.47-0.398-0.542 0.325 3.613 6.25 0.542-0.325-0.542-0.29 0.542 0.29 0.578-0.29-3.613-6.249-0.47-0.758-0.577 0.65c-3.613 4.588-32.513 15.353-85.256 23.517a956.266 956.266 0 0 1-136.372 9.862 1006.226 1006.226 0 0 1-130.483-8.092 409.73 409.73 0 0 1-90.313-23.192l-0.47-0.253-2.745 5.672-0.325 0.542h0.614c10.296 4.046 38.329 15.497 92.48 23.625a993.438 993.438 0 0 0 130.05 8.092h1.59a950.088 950.088 0 0 0 137.275-9.537c51.767-8.85 86.375-20.049 88.831-23.409v-0.614l-0.578 0.29z" fill="#231815" p-id="20514"></path><path d="M635.548 724.668c-121.525 0-220.002-95.19-220.002-212.56s98.477-212.595 220.002-212.595S855.62 394.702 855.62 512.108s-98.549 212.56-220.073 212.56z m0-447.734c-134.386 0-243.41 105.341-243.41 235.174s108.988 235.066 243.41 235.066 243.41-105.16 243.41-235.066-108.99-235.174-243.41-235.174z" fill="#FFF100" p-id="20515"></path><path d="M635.548 279.463c-132.977 0-240.954 104.149-240.954 232.645S502.57 744.826 635.548 744.826s241.026-104.22 241.026-232.718-107.906-232.645-241.026-232.645zM881.45 512.108c0 131.206-110.11 237.522-245.94 237.522S389.645 643.314 389.645 512.108 499.79 274.55 635.548 274.55 881.45 380.975 881.45 512.108z" fill="#FFF100" p-id="20516"></path><path d="M635.548 279.463v-0.65c-133.302 0-241.568 104.51-241.568 233.295S502.355 745.44 635.548 745.44s241.64-104.51 241.64-233.332S768.993 278.85 635.548 278.85v1.12c132.831 0.253 240.159 103.968 240.376 232.14S768.379 744.175 635.548 744.175s-240.16-103.86-240.376-232.068S502.86 280.222 635.548 279.97v-0.506zM881.45 512.108h-0.65C880.547 642.99 771.015 748.8 635.51 749.016s-244.927-105.99-245.18-236.908 109.675-236.655 245.217-236.871 245.036 106.027 245.289 236.871h1.192c0-131.459-110.362-238.1-246.481-238.1s-246.481 106.641-246.481 238.1 110.398 238.137 246.48 238.137S882.03 643.603 882.03 512.108z" fill="#231815" p-id="20517"></path><path d="M635.548 301.897c-120.08 0-217.618 94.178-217.618 210.211s97.538 210.104 217.618 210.104 217.617-93.926 217.617-210.104-97.538-210.211-217.617-210.211z m222.53 210.211c0 118.671-99.597 214.98-222.53 214.98S413.09 630.78 413.09 512.108s99.56-214.944 222.458-214.944 222.53 96.238 222.53 214.944z" fill="#FFF100" p-id="20518"></path><path d="M635.548 301.897v-0.542c-120.441 0-218.196 94.395-218.196 210.753s97.755 210.718 218.196 210.718 218.267-94.359 218.267-210.718-97.754-210.753-218.267-210.753v1.156c119.862 0.217 216.75 93.925 216.966 209.525S755.41 721.561 635.548 721.561s-216.75-93.925-217.003-209.525 97.212-209.525 217.003-209.525v-0.614z m222.53 210.211h-0.65c-0.217 118.382-99.272 214.15-221.88 214.402S413.957 630.49 413.74 512.108s99.235-214.113 221.808-214.366 221.627 95.985 221.88 214.366h1.3c0-118.995-99.922-215.558-223.18-215.558s-223.109 96.563-223.109 215.558 99.922 215.63 223.109 215.63 223.18-96.67 223.18-215.63z" fill="#231815" p-id="20519"></path><path d="M633.019 461.967c102.631-0.542 209.525 14.16 250.49 34.86v25.505c-35.546-18.858-134.601-38.654-250.31-35.728-94.214 0.614-194.75 10.296-245.216 36.956v-29.478c41.471-21.242 156.855-31.97 245.036-32.115z" fill="#FFF100" p-id="20520"></path><path d="M633.019 462.4h5.31c100.897 0 204.865 14.45 244.856 34.825l0.325-0.542h-0.614v25.504h0.614l0.325-0.542C850.419 503.98 761.877 485.52 656.03 485.52q-11.343 0-22.83 0.325c-94.287 0.542-194.823 10.224-245.65 36.956l0.36 0.542h0.506v-29.478h-0.505l0.216 0.542c41.255-21.17 156.71-31.934 244.82-32.079V461.1c-88.254 0-203.565 10.837-245.398 32.223h-0.289v30.851l0.867-0.47c50.359-26.551 150.858-36.125 245-36.847a811.511 811.511 0 0 1 22.831-0.325c105.702 0 194.136 18.496 227.154 36.125l0.976 0.506v-26.95h-0.325c-40.46-20.446-144.5-34.933-245.65-34.933h-5.31v1.12z" fill="#231815" p-id="20521"></path><path d="M634.464 459.655c55.958 0 111.229 2.962 154.29 10.837 33.993 6.503 85.363 16.654 97.537 25.721v10.151c-11.054-12.065-63.688-23.445-100.21-29.839-42.736-7.225-95.732-10.223-151.726-10.837-58.775 0-113.18 3.612-155.337 11.307-40.243 7.55-83.088 16.473-94.142 23.481v-8.453c15.28-7.948 62.28-15.173 93.203-21.061 42.447-7.659 97.104-11.163 156.24-11.307z m0 23.445c58.486 0 114.95 3.034 159.961 11.054 41.833 7.731 86.23 19.219 91.939 25.288v7.983c-13.908-8.995-48.444-18.93-92.878-27.31s-101.15-10.838-159.167-10.838c-66-0.253-117.37 3.215-161.406 10.838-46.53 8.634-79.909 20.916-87.892 26.696v-8.092c15.57-7.875 45.445-17.231 86.7-24.565 45.517-8.164 97.357-10.837 162.562-10.837z" fill="#FFF100" p-id="20522"></path><path d="M634.464 460.269h3.793c54.621 0 108.375 3.143 150.425 10.585 33.993 6.43 85.363 16.834 97.284 25.684l0.398-0.47h-0.614v10.152h0.614l0.505-0.397c-11.487-12.355-64.05-23.59-100.644-30.056-42.736-7.225-95.803-10.224-151.725-10.838-58.775 0-113.252 3.613-155.338 11.38-40.315 7.55-83.087 16.328-94.358 23.517l0.289 0.506h0.65v-8.31h-0.65l0.325 0.507c15.028-7.84 62.135-15.1 92.95-20.953 42.447-7.658 97.031-11.163 156.168-11.307v-1.228c-59.1 0.18-113.902 3.612-156.313 11.38-30.923 5.887-77.958 13.04-93.42 21.06h-0.252v10.007l0.867-0.615c10.837-6.936 53.754-15.93 93.925-23.409 42.158-7.55 96.418-11.162 155.338-11.307 55.957 0.434 108.844 3.36 151.725 10.585 36.522 6.358 89.192 18.062 99.813 29.73l1.12 1.193v-11.994h-0.253c-12.535-9.284-63.869-19.363-97.935-25.937-42.122-7.55-95.948-10.838-150.569-10.838h-3.793v1.228z m0 22.831v0.506h3.793c57.15 0 111.988 3.215 156.132 11.162 41.616 7.55 86.267 19.4 91.505 25.288l0.47-0.361h-0.614v7.73h0.614l0.325-0.541c-14.053-8.996-48.625-19.002-93.094-27.383-43.35-7.948-98.297-10.838-154.94-10.838h-10.369c-63.146 0-112.673 3.432-155.337 10.838-46.71 8.706-79.981 20.916-88.11 26.877l0.29 0.433h0.65v-8.092h-0.65l0.325 0.542c15.425-7.767 45.265-17.16 86.447-24.493 45.554-8.236 97.285-10.837 162.563-11.054v-1.156c-65.35 0.29-117.298 2.818-162.816 10.838-41.327 7.225-71.202 16.725-86.916 24.745h-0.253v9.61l0.939-0.687c7.767-5.744 41.182-18.062 87.567-26.588 42.7-7.225 92.227-10.837 155.338-10.837h10.367c56.645 0 111.446 2.926 154.76 10.837 44.362 8.345 78.861 18.352 92.625 27.202l0.975 0.578v-9.212c-6.213-6.574-50.394-17.845-92.336-25.648-44.18-7.84-99.127-11.055-156.276-11.055h-3.794v0.614z" fill="#231815" p-id="20523"></path><path d="M634.608 351.208c91.939-0.47 172.172 12.427 208.911 30.597l13.367 22.362c-31.827-16.545-118.49-33.885-222.205-31.284-84.533 0.505-174.882 8.922-220.363 32.512l16.076-25.902c37.136-18.532 124.92-28.105 204.106-28.141z" fill="#FFF100" p-id="20524"></path><path d="M634.608 351.786h4.588c89.988 0 168.126 12.752 203.998 30.525l13.15 22.145 0.542-0.29 0.325-0.469c-29.948-15.642-107.183-31.61-201.65-31.61l-20.844 0.254c-84.641 0.542-174.99 9.03-220.363 32.512l0.253 0.542 0.506 0.289 16.003-25.865c36.74-18.063 124.523-27.78 203.637-27.889v-1.192c-79.258 0-167.078 9.61-204.468 28.25l-16.184 26.082-1.192 1.915 1.987-1.084c45.12-23.337 135.469-31.718 219.93-32.26l20.88-0.325c94.322 0 171.521 16.112 200.999 31.537l1.987 1.048-14.45-24.276c-36.595-18.063-114.77-30.887-204.901-30.887h-4.588v1.192z" fill="#231815" p-id="20525"></path><path d="M635.8 349.185c50.25 0 99.778 2.6 138.432 9.356 30.49 5.708 60.69 14.45 71.635 22.65l5.961 8.923c-9.862-10.837-46.962-20.736-79.98-26.335-38.51-6.394-85.87-8.923-136.048-9.284-52.706 0-101.51 3.179-139.19 9.898-36.124 6.647-59.353 14.45-69.143 20.52l4.986-7.226c13.691-6.864 35.547-13.185 63.29-18.387 38.04-6.72 87.026-9.754 140.057-9.935z m0 20.482c52.49 0 103.137 2.746 143.634 9.754 37.497 6.756 73.261 16.87 78.39 22.398l4.047 6.683c-12.572-7.84-43.35-16.545-83.304-23.879s-90.674-9.61-142.839-9.537c-59.281 0-105.268 2.89-144.789 9.537-41.724 7.55-70.66 18.316-77.958 23.445l3.974-7.225c13.908-6.791 36.125-15.1 73.009-21.675 40.821-7.225 87.35-9.392 145.836-9.681z" fill="#F9DD6E" p-id="20526"></path><path d="M635.8 349.763h2.06c49.563 0 98.187 2.745 136.263 9.356 30.454 5.672 60.618 14.667 71.455 22.47l5.708 8.85 0.542-0.325 0.47-0.397c-10.26-10.838-47.396-20.88-80.378-26.516-38.401-6.43-85.942-8.959-136.12-9.176-52.706 0-101.547 3.252-139.334 9.935-36.125 6.647-59.353 14.45-69.324 20.7l0.325 0.433 0.47 0.325 5.058-7.225c13.294-6.575 35.185-12.897 62.821-18.063 38.04-6.719 86.953-9.753 139.984-9.898v-1.625c-53.031 0-102.125 3.179-140.129 9.934-27.816 5.166-49.708 11.488-63.543 18.46l-5.202 7.622 0.794 0.831c9.718-6.033 32.946-13.8 68.963-20.447 37.715-6.719 86.375-9.862 139.117-9.934 50.25 0.397 97.538 2.926 135.939 9.32 32.838 5.491 70.046 15.715 79.475 26.119l1.011-0.687-5.924-8.959c-11.38-8.309-41.544-17.16-72.07-22.975-38.256-6.647-86.952-9.284-136.516-9.284H635.8v1.156z m0 19.904v0.615h3.613c51.117 0 100.32 2.89 139.768 9.753 37.317 6.647 73.333 16.979 77.994 22.145l3.973 6.647 0.542-0.325 0.325-0.542c-12.752-7.84-43.639-16.618-83.557-23.879-38.798-7.225-87.747-9.537-138.359-9.537h-10.44c-56.427 0-100.608 3.07-138.9 9.537-41.797 7.478-70.697 18.28-78.211 23.518l0.397 0.47 0.542 0.288 3.974-7.225c13.51-6.647 35.547-14.847 72.539-21.241 40.749-7.225 87.242-9.393 145.728-9.682v-1.228c-58.486 0.289-105.124 2.529-145.909 9.682-37.136 6.43-59.28 14.81-73.261 21.675l-4.155 7.225 0.94 0.758c7.008-4.949 36.125-15.786 77.596-23.264 38.184-6.503 82.329-9.537 138.684-9.537h10.62c50.576 0 99.345 2.528 138.07 9.537 39.738 7.225 70.733 16.04 83.088 23.806l0.795-0.83-3.974-6.72c-5.671-5.96-41.255-15.859-78.86-22.65-39.485-6.864-88.724-9.79-139.913-9.79H635.8v0.614z" fill="#231815" p-id="20527"></path><path d="M635.8 349.185c50.25 0 99.778 2.6 138.432 9.356 30.49 5.708 60.69 14.45 71.635 22.65l5.961 8.923c-9.862-10.837-46.962-20.736-79.98-26.335-38.257-6.394-85.798-8.923-136.048-9.284-52.706 0-101.51 3.179-139.19 9.898-36.124 6.575-59.353 14.45-69.143 20.52l4.986-7.226c13.691-6.864 35.547-13.185 63.29-18.387 38.04-6.72 87.026-9.754 140.057-9.935z m0 20.482c52.49 0 103.137 2.746 143.561 9.754 37.57 6.756 73.334 16.87 78.464 22.398l4.046 6.683c-12.572-7.84-43.35-16.545-83.304-23.879s-90.674-9.61-142.839-9.537c-59.281 0-105.268 2.89-144.789 9.537-41.724 7.55-70.66 18.316-77.958 23.445l3.974-7.225c13.908-6.791 36.125-15.1 73.009-21.675 40.821-7.225 87.35-9.392 145.836-9.681z" fill="#FFF100" p-id="20528"></path><path d="M635.8 349.185v0.578h2.06c49.563 0 98.187 2.745 136.263 9.356 30.454 5.672 60.618 14.667 71.455 22.47l5.708 8.85 0.542-0.325 0.47-0.397c-10.26-10.838-47.396-20.88-80.378-26.516-38.33-6.43-85.942-8.959-136.12-9.176-52.706 0-101.547 3.252-139.334 9.935-36.125 6.574-59.353 14.45-69.324 20.7l0.325 0.433 0.47 0.325 5.058-7.225c13.294-6.575 35.185-12.897 62.821-18.063 38.04-6.719 86.953-9.753 139.984-9.898v-1.625c-53.031 0-102.125 3.179-140.129 9.934-27.816 5.166-49.708 11.488-63.543 18.46l-5.202 7.622 0.794 0.831c9.718-6.033 32.946-13.872 68.963-20.447 37.715-6.719 86.375-9.862 139.117-9.934 50.25 0.397 97.719 2.926 135.939 9.32 32.838 5.491 70.046 15.715 79.475 26.119l1.011-0.687-5.924-8.959c-11.38-8.309-41.544-17.16-72.07-22.975-38.256-6.647-86.952-9.284-136.516-9.284H635.8v0.578z m0 20.482v0.615h3.613c51.117 0 100.32 2.89 139.695 9.753 37.39 6.647 73.407 16.979 78.067 22.145l3.973 6.647 0.542-0.325 0.325-0.542c-12.752-7.84-43.639-16.618-83.557-23.879-38.798-7.225-87.747-9.537-138.359-9.537h-10.44c-56.427 0-100.608 3.07-138.9 9.537-41.797 7.478-70.697 18.28-78.211 23.518l0.397 0.47 0.542 0.288 3.974-7.225c13.51-6.647 35.547-14.847 72.539-21.241 40.749-7.225 87.242-9.393 145.728-9.682v-1.228c-58.486 0.289-105.124 2.529-145.909 9.682-37.136 6.43-59.28 14.81-73.261 21.675l-4.155 7.225 0.94 0.758c7.008-4.949 36.125-15.786 77.596-23.264 38.184-6.503 82.329-9.537 138.684-9.537h10.62c50.576 0 99.345 2.528 138.07 9.537 39.738 7.225 70.733 16.04 83.088 23.806l0.795-0.83-3.974-6.72c-5.671-5.96-41.255-15.859-78.933-22.65-39.412-6.864-88.65-9.79-139.84-9.79H635.8v0.614z" fill="#231815" p-id="20529"></path><path d="M633.85 588.838c75.429 0.506 168.667 9.898 222.169 30.598l-11.452 18.062c-31.79-16.942-125.426-28.105-211.368-29.767-101.8 0.903-172.28 10.838-207.538 30.165l-9.79-16.148c62.966-27.022 130.7-32.802 217.979-33.018z" fill="#FFF100" p-id="20530"></path><path d="M633.85 589.271c75.357 0.542 168.595 9.935 221.916 30.526l0.253-0.542-0.47-0.325-11.524 18.063 0.542 0.325 0.325-0.542c-32.115-17.015-125.679-28.142-211.693-29.767-101.872 0.83-172.388 10.837-207.863 30.164l0.325 0.542 0.542-0.325-9.79-16.04-0.542 0.29 0.217 0.541c62.894-26.913 130.484-32.729 217.726-32.946v-1.156c-87.278 0-155.338 6.033-218.232 33.055l-0.65 0.216 10.151 16.726 0.29 0.506 0.577-0.289c35.005-19.074 105.485-29.153 207.213-30.056 85.87 1.662 179.578 12.824 211.043 29.695l0.542 0.289 11.813-18.713 0.397-0.614-0.723-0.217c-53.681-20.772-146.956-30.164-222.458-30.598v1.156z" fill="#231815" p-id="20531"></path><path d="M838.498 640.605c-10.223-4.84-35.764-14.45-76.91-19.724a923.97 923.97 0 0 0-128.786-8.887 903.595 903.595 0 0 0-124.812 7.586c-51.37 7.009-77.38 17.304-84.93 20.989l-2.998-4.805a354.025 354.025 0 0 1 87.386-21.675 911.76 911.76 0 0 1 125.354-7.73 918.587 918.587 0 0 1 129.725 8.778c41.327 6.394 67.879 14.197 79.042 19.255l-3.071 6.069z m18.063-21.675l-3.613 6.25c-4.046-5.058-32.73-15.606-85.291-23.843a934.12 934.12 0 0 0-135.505-9.754 982.059 982.059 0 0 0-129.834 8.092 405.9 405.9 0 0 0-90.312 23.193l-2.457-5.022c10.296-4.046 37.932-15.425 91.686-23.59a997.05 997.05 0 0 1 130.953-8.055 935.024 935.024 0 0 1 136.516 9.537c51.226 8.561 86.05 20.302 87.893 23.156z" fill="#FFF100" p-id="20532"></path><path d="M838.498 640.605l0.217-0.542c-10.188-4.949-35.8-14.45-77.091-19.832a930.147 930.147 0 0 0-128.822-8.851h-1.734a910.965 910.965 0 0 0-123.15 7.55c-51.442 7.225-77.524 17.34-85.183 21.097l0.325 0.542 0.542-0.325-2.998-4.805-0.542 0.325 0.217 0.434a354.892 354.892 0 0 1 87.241-21.35 898.466 898.466 0 0 1 123.62-7.73h1.662a917.576 917.576 0 0 1 129.653 8.778c41.255 6.394 67.806 14.124 78.86 19.182l0.254-0.542-0.542-0.217-3.107 6.105 0.578 0.181 0.217-0.542-0.217 0.542 0.542 0.253 3.07-6.105 0.326-0.542-0.65-0.217c-11.2-5.13-37.787-12.896-79.187-19.327a930.761 930.761 0 0 0-129.797-8.778h-1.662a920.538 920.538 0 0 0-123.764 7.695 351.027 351.027 0 0 0-87.567 21.675l-0.686 0.216 3.36 5.42 0.324 0.469 0.542-0.253c7.442-3.613 33.452-13.872 84.75-20.989a910.567 910.567 0 0 1 122.825-7.478h1.734a911.579 911.579 0 0 1 128.821 8.706c41.11 5.42 66.579 14.812 76.658 19.689l0.65 0.325 0.253-0.614-0.542-0.253z m18.063-21.675l-0.542-0.325-3.721 6.358 0.578 0.325 0.47-0.397c-4.444-5.347-32.947-15.715-85.69-23.951a918.84 918.84 0 0 0-135.468-9.935h-1.481a988.814 988.814 0 0 0-128.57 8.02 410.091 410.091 0 0 0-90.312 23.3l0.253 0.507 0.542-0.217-2.42-5.022-0.578 0.217 0.216 0.542c10.296-4.046 37.86-15.353 91.541-23.59a1000.121 1000.121 0 0 1 129.22-7.947h1.589a932.965 932.965 0 0 1 136.408 9.537c51.009 8.38 86.23 20.483 87.423 22.831l0.578-0.289-0.542-0.325 0.542 0.325 0.542-0.325c-2.457-3.36-36.993-14.667-88.362-23.41a929.93 929.93 0 0 0-136.589-9.572h-1.59a1008.322 1008.322 0 0 0-129.4 8.02c-53.79 8.164-81.534 19.688-91.83 23.661l-0.613 0.217 2.781 5.6 0.217 0.433 0.578-0.217a412.15 412.15 0 0 1 89.987-23.048 965.55 965.55 0 0 1 128.208-8.092h1.662a925.993 925.993 0 0 1 135.36 9.79c52.418 8.128 81.282 18.821 84.894 23.554l0.578 0.686 4.263-7.008v-0.614l-0.542 0.325z" fill="#231815" p-id="20533"></path><path d="M650.648 750.786h-5.274V273.43h5.274v477.356z" fill="#FFF100" p-id="20534"></path><path d="M650.648 750.786v-0.541h-4.66V274.008h4.046v476.778h0.614v-0.541 0.541h0.65V272.852h-6.466v478.512h6.466v-0.578h-0.65z" fill="#231815" p-id="20535"></path><path d="M625.758 750.786h-5.202V273.43h5.202v477.356z" fill="#FFF100" p-id="20536"></path><path d="M625.758 750.786v-0.541h-4.552V274.008h3.938v476.778h0.614v-0.541 0.541h0.65V272.852h-6.503v478.512h6.503v-0.578h-0.65z" fill="#231815" p-id="20537"></path><path d="M645.374 748.402h-19.616V275.851h19.616v472.551z" fill="#FFF100" p-id="20538"></path><path d="M645.374 748.402v-0.614h-18.966V276.465h18.424v471.937h0.542v-0.614 0.614h0.614V275.237h-20.844v473.78h20.844v-0.615h-0.614z" fill="#231815" p-id="20539"></path><path d="M428.262 379.024c75.863-0.903 426.89 207.105 427.829 245.361l-21.675 32.187c-9.826-44.433-365.73-246.842-424.47-243.085l18.352-34.463z" fill="#FFF100" p-id="20540"></path><path d="M428.262 379.674h0.578c76.477-0.397 426.276 207.538 426.709 244.711h0.614l-0.578-0.325-21.675 32.187 0.542 0.325h0.614c-10.332-44.722-359.155-243.23-423.421-243.555h-1.734v0.542l0.578 0.29 18.351-34.428-1.12-0.614-18.351 34.5-0.542 0.939h2.782c62.965-0.217 413.017 199.446 422.12 242.76l0.326 1.336 22.614-33.415c-1.59-39.16-350.16-245.65-427.937-245.94h-0.542v1.229z" fill="#231815" p-id="20541"></path><path d="M858.295 626.733c8.85-16.943-87.242-86.7-206.383-155.012-121.85-66.651-209.525-106.027-225.709-94.214l-3.612 6.285 0.939-1.083 9.97-2.276c27.564 0.433 106.425 35.474 217.22 96.779 48.48 27.31 204.829 124.197 204.36 151.436l-0.723 3.973 3.938-5.888zM407.743 412.331c14.053-9.32 117.732 35.33 226.143 98.477S845.289 645.663 835.933 658.92l-3.07 4.733-1.337 0.975v-6.936c-4.696-14.63-77.922-71.13-199.59-142.116-118.563-68.24-217.365-109.386-227.263-97.537l3.215-5.708z" fill="#FFF100" p-id="20542"></path><path d="M858.873 627.022l0.541-2.745c-0.289-21.35-93.094-87.676-207.177-153.098-107.472-58.703-188.32-96.237-217.4-96.31l-8.995 2.204-3.83 6.394 1.048 0.687 0.94-1.084 9.645-2.023c27.021 0.361 106.063 35.33 216.75 96.706 48.3 27.022 204.395 124.234 203.998 150.714v0.108l-0.723 3.794 1.157 0.325 3.973-5.816-1.12-0.578-2.275 3.612v-1.337c-0.326-28.322-156.133-124.306-204.54-151.725-110.904-61.412-189.62-96.381-217.581-96.923l-10.152 2.312-1.264 1.264 0.506 0.398 0.542 0.289 3.612-6.25 8.056-1.806c28.358 0 109.459 37.461 216.75 96.237 114.01 65.025 207.033 132.326 206.635 152.014l-0.47 2.167 1.12 0.578z m-451.13-214.69l0.217 0.54 5.527-1.227c26.371 0 121.38 42.121 220.11 99.669 103.39 60.473 202.661 129.291 202.3 145.728l-0.361 1.662-3.107 4.732h-0.253v-5.816c-5.057-15.353-78.247-71.528-199.916-142.658-105.196-60.292-194.57-99.524-220.904-99.524l-7.225 2.24 0.397 0.36 0.542 0.326 3.107-5.708-0.47-0.325-0.578-0.325-3.107 5.744 0.976 0.686 6.322-1.842c25.612 0 115.202 39.16 220.182 99.633C752.99 587.032 826.577 643.82 830.695 657.945v8.02l2.384-1.77 3.251-4.877 0.615-2.276c-0.29-18.063-99.344-85.87-202.915-146.776-98.838-57.547-193.521-99.777-220.724-99.813l-6.177 1.336 0.434 0.542z" fill="#231815" p-id="20543"></path><path d="M489.675 535.843a137.275 137.275 0 0 0 42.916 99.127 148.582 148.582 0 0 0 205.913 0.47 138.106 138.106 0 0 0 42.916-99.525V347.523H489.53v188.32z" fill="#FFFFFF" p-id="20544"></path><path d="M489.675 535.843h-0.614a138.034 138.034 0 0 0 43.06 99.596 149.413 149.413 0 0 0 206.997 0.361 138.467 138.467 0 0 0 43.097-99.885V346.8H489.061v188.934h1.156v-187.85h290.698v187.85a137.275 137.275 0 0 1-42.736 99.055 147.932 147.932 0 0 1-205.19-0.434 136.733 136.733 0 0 1-42.772-98.693z" fill="#231815" p-id="20545"></path><path d="M495.527 535.806a131.929 131.929 0 0 0 41.255 95.045 143.163 143.163 0 0 0 197.748 0 131.314 131.314 0 0 0 41.11-95.08V353.52H495.708l-0.181 182.286z" fill="#E60012" p-id="20546"></path><path d="M494.913 535.843a132.796 132.796 0 0 0 41.363 95.478 144.247 144.247 0 0 0 198.688 0 132.543 132.543 0 0 0 41.218-95.55V352.94h-281.27v182.902h1.23V354.17h278.704v181.817a130.628 130.628 0 0 1-40.966 94.648 142.477 142.477 0 0 1-196.81 0 131.098 131.098 0 0 1-41.11-94.576z" fill="#231815" p-id="20547"></path><path d="M552.713 527.425a89.735 89.735 0 0 0 24.42 61.738 79.475 79.475 0 0 0 117.046 0 90.313 90.313 0 0 0 24.203-61.81v-118.31h-165.67v118.382z" fill="#FFFFFF" p-id="20548"></path><path d="M552.207 527.425a90.313 90.313 0 0 0 24.493 62.1 79.872 79.872 0 0 0 117.876 0 90.313 90.313 0 0 0 24.493-62.172V408.141h-166.79v119.212h1.156v-117.84h164.37v118.02a89.554 89.554 0 0 1-24.06 61.413 78.825 78.825 0 0 1-116.106 0 88.723 88.723 0 0 1-24.276-61.412z" fill="#231815" p-id="20549"></path><path d="M617.377 515.468a19.11 19.11 0 0 0 18.062 19.29c11.705-2.564 16.834-7.658 18.28-19.29v-26.046h-36.342v26.046z" fill="#0081CA" p-id="20550"></path><path d="M645.626 495.13l-3.648 3.54 3.648 3.504 3.613-3.504-3.613-3.54z m-10.295 9.5l-3.613 3.505 3.613 3.576 3.72-3.576-3.72-3.505z m10.187 9.899l-3.649 3.54 3.65 3.396 3.72-3.396-3.72-3.54z m-19.905 0l-3.72 3.576 3.72 3.468 3.721-3.468-3.72-3.576z m0-19.4l-3.72 3.54 3.72 3.505 3.649-3.504-3.649-3.54z" fill="#FFFFFF" p-id="20551"></path><path d="M566.115 515.468c1.229 11.957 6.467 16.726 18.316 19.29 11.198-1.986 17.448-8.272 18.062-19.29v-26.046h-36.486v26.046z" fill="#0081CA" p-id="20552"></path><path d="M594.401 495.13l-3.648 3.54 3.648 3.504 3.649-3.504-3.649-3.54z m-10.295 9.5l-3.685 3.505 3.685 3.576 3.72-3.576-3.72-3.505z m10.295 9.899l-3.72 3.54 3.72 3.396 3.649-3.396-3.649-3.54z m-20.013 0l-3.721 3.576 3.72 3.468 3.722-3.468-3.721-3.576z m0-19.4l-3.721 3.54 3.72 3.505 3.65-3.504-3.65-3.54z" fill="#FFFFFF" p-id="20553"></path><path d="M668.602 515.468c0.759 11.38 7.225 17.087 18.063 19.29a19.724 19.724 0 0 0 18.279-19.29v-26.046h-36.342v26.046z" fill="#0081CA" p-id="20554"></path><path d="M696.888 495.13l-3.613 3.54 3.613 3.504 3.649-3.504-3.65-3.54z m-10.26 9.5l-3.648 3.505 3.648 3.576 3.721-3.576-3.72-3.505z m10.224 9.899l-3.577 3.54 3.577 3.396 3.685-3.396-3.685-3.54z m-19.941 0l-3.721 3.576 3.72 3.468 3.722-3.468-3.721-3.576z m-0.073-19.4l-3.648 3.54 3.648 3.505 3.721-3.504-3.72-3.54z" fill="#FFFFFF" p-id="20555"></path><path d="M617.377 575.11c0.903 11.308 6.9 17.232 18.062 19.219a19.435 19.435 0 0 0 18.28-19.219V549.1h-36.45v26.083z" fill="#0081CA" p-id="20556"></path><path d="M645.626 554.736l-3.648 3.54 3.648 3.504 3.613-3.504-3.613-3.54z m-10.295 9.5l-3.613 3.505 3.613 3.576 3.72-3.576-3.72-3.504z m10.187 9.899l-3.649 3.54 3.65 3.504 3.72-3.504-3.72-3.54z m-19.905 0l-3.72 3.576 3.72 3.54 3.721-3.54-3.72-3.576z m0-19.4l-3.72 3.541 3.72 3.504 3.649-3.504-3.649-3.54z" fill="#FFFFFF" p-id="20557"></path><path d="M617.377 455.826a19.508 19.508 0 0 0 18.062 19.326c12.283-2.24 16.473-7.875 18.28-19.254v-26.01h-36.342v26.082z" fill="#0081CA" p-id="20558"></path><path d="M645.626 435.487l-3.648 3.504 3.648 3.468 3.613-3.468-3.613-3.504z m-10.295 9.501l-3.613 3.432 3.613 3.612 3.72-3.612-3.72-3.432z m10.187 9.862l-3.649 3.504 3.65 3.504 3.72-3.504-3.72-3.504z m-19.905 0l-3.72 3.577 3.72 3.431 3.721-3.431-3.72-3.577z m0-19.363l-3.72 3.504 3.72 3.468 3.649-3.468-3.649-3.504z" fill="#FFFFFF" p-id="20559"></path><path d="M615.354 400.88h40.424l-1.77-15.029h-36.92l-1.734 15.028z" fill="#FFF100" p-id="20560"></path><path d="M615.354 400.88v0.614H656.5l-1.878-15.715-0.073-0.542h-38.04l-1.697 15.57-0.109 0.687h0.65v-0.615l0.615 0.073 1.662-14.486h35.8l1.661 13.872h-39.737v0.541l0.614 0.073-0.614-0.073z" fill="#231815" p-id="20561"></path><path d="M635.44 387.08l10.186 13.8h-20.085l9.898-13.8z" fill="#FFF100" p-id="20562"></path><path d="M635.006 387.44l9.5 12.898h-17.773l9.248-12.897-1.011-0.759-9.899 13.836-0.65 0.976h22.434l-10.982-14.812-0.867 0.759z" fill="#231815" p-id="20563"></path><path d="M635.475 390.367a11.488 11.488 0 0 1 5.853 10.512h-11.38a11.524 11.524 0 0 1 5.527-10.512z" fill="#FFF100" p-id="20564"></path><path d="M635.475 390.367l-0.289 0.506a10.838 10.838 0 0 1 5.491 10.006h0.65v-0.541h-11.379v0.65h0.65a10.838 10.838 0 0 1 5.202-10.115l-0.325-0.506-0.289 0.506 0.29-0.506-0.29-0.542a12.102 12.102 0 0 0-5.888 11.163v0.614h12.535v-0.614a11.921 11.921 0 0 0-6.14-11.054h-0.543l0.29 0.541z" fill="#231815" p-id="20565"></path><path d="M615.57 379.132h39.99l1.59 1.698-1.59 1.59h-39.99l-1.48-1.59 1.48-1.698z" fill="#FFF100" p-id="20566"></path><path d="M615.57 379.132v0.614h39.666l1.047 1.084-1.047 0.975h-39.449l-0.83-0.975 1.083-1.3-0.47-0.398v0.614-0.614l-0.36-0.397-1.59 1.698-0.398 0.397 1.987 1.95 0.036 0.254h40.533l1.842-1.843 0.397-0.361-1.987-2.095-0.252-0.217h-40.533l-0.036 0.217 0.361 0.397z" fill="#231815" p-id="20567"></path><path d="M614.631 400.88h42.05l1.517 1.842-1.517 1.734h-42.05l-1.662-1.734 1.662-1.843z" fill="#FFF100" p-id="20568"></path><path d="M614.631 400.88v0.614h41.725l1.12 1.228-1.12 1.12h-41.4l-1.192-1.12 1.337-1.445-0.47-0.398v0.615-0.615l-0.47-0.36-1.661 1.805-0.398 0.398 2.06 2.131 0.18 0.217h42.664l1.625-1.987 0.326-0.361-1.807-2.204-0.144-0.18h-42.664l-0.18 0.18 0.47 0.361z" fill="#231815" p-id="20569"></path><path d="M616.51 382.42h38.256l1.445 1.661-1.445 1.698H616.51l-1.41-1.698 1.41-1.661z" fill="#FFF100" p-id="20570"></path><path d="M616.51 382.42v0.614h37.967l0.867 1.047-0.867 1.084h-37.642l-1.048-1.084 1.192-1.3-0.47-0.361v0.614-0.614l-0.469-0.398-1.409 1.698-0.289 0.361 1.698 2.06 0.18 0.216h38.799l1.662-1.878 0.325-0.398-1.806-2.059-0.181-0.217h-38.798l-0.18 0.217 0.469 0.398z" fill="#231815" p-id="20571"></path><path d="M640.46 363.346l0.687 15.786-10.549-0.108 0.723-15.678h9.14z" fill="#FFF100" p-id="20572"></path><path d="M639.846 363.346l0.723 15.172-9.32-0.072 0.614-14.522h8.598v-1.193h-9.79l-0.723 16.293v0.65l11.199 0.072h0.578l-0.614-16.4h-1.265z" fill="#231815" p-id="20573"></path><path d="M629.262 357.385h2.854v2.059h2.203v-2.06h3.071v2.06h2.131v-2.06h2.999v4.806l-1.265 1.156h-10.657l-1.336-1.156-0.072-4.805h0.072z" fill="#FFF100" p-id="20574"></path><path d="M629.262 357.385v0.614h2.276v2.06h3.432v-2.06h1.77v2.06h3.432v-2.06h1.697v3.938l-0.83 0.794h-10.44l-0.723-0.794-0.072-4.552h-0.614v0.614h0.072v-1.228h-0.723l0.073 5.419v0.144l1.553 1.445 0.18 0.145h10.91l1.662-1.373 0.253-0.217v-5.563h-4.299v2.131h-0.83v-2.131h-4.372v2.131h-0.94v-2.131h-3.467v0.614z m5.527 12.608h2.131v3.648h-2.131v-3.648z" fill="#231815" p-id="20575"></path><path d="M642.122 364.863h2.926v2.059h2.204v-2.06h3.107v2.06h2.131v-2.06h2.999v4.733l-1.265 1.192h-10.657l-1.445-1.192v-4.732z" fill="#FFF100" p-id="20576"></path><path d="M642.122 364.863v0.614h2.385v2.059h3.395v-2.06h1.807v2.06h3.395v-2.06h1.77v3.866l-0.867 0.867h-10.44l-0.794-0.867v-4.48h-0.65v0.615-0.614h-0.543v4.949l1.59 1.445 11.054 0.18 1.662-1.408 0.217-0.217v-5.563h-4.263v2.059h-0.867v-2.06h-4.335v2.06h-0.94v-2.06h-4.118v0.615h0.542z" fill="#231815" p-id="20577"></path><path d="M653.61 370.787l0.29 8.345h-10.08l0.29-8.345h9.5z" fill="#FFF100" p-id="20578"></path><path d="M652.96 370.787l0.289 7.731h-8.85l0.324-7.08h8.887v-1.229h-10.115l-0.325 8.923v0.614h11.38l-0.326-8.959h-1.264z" fill="#231815" p-id="20579"></path><path d="M616.04 364.863h2.926v2.059h2.24v-2.06h3.07v2.06h2.132v-2.06h2.998v4.733l-1.264 1.192h-10.657l-1.445-1.192v-4.732z" fill="#FFF100" p-id="20580"></path><path d="M616.04 364.863v0.614h2.348v2.059h3.432v-2.06h1.806v2.06h3.396v-2.06h1.77v3.866l-0.903 0.867h-10.404l-0.795-0.867v-4.48h-0.65v0.615-0.614h-0.614v4.949l1.662 1.445 11.054 0.18 1.662-1.408 0.216-0.217v-5.563h-4.262v2.059h-0.867v-2.06h-4.335v2.06h-0.94v-2.06h-4.19v0.615h0.614z" fill="#231815" p-id="20581"></path><path d="M627.492 370.787l0.325 8.345h-10.115l0.325-8.345h9.465z" fill="#FFF100" p-id="20582"></path><path d="M626.878 370.787l0.289 7.731h-8.815l0.217-7.08h8.923v-1.229h-10.115l-0.29 8.923v0.614h11.272l-0.217-8.959h-1.264z m20.88 3.613h2.131v2.203h-2.131V374.4z" fill="#231815" p-id="20583"></path><path d="M621.748 374.4h2.059v2.203h-2.06V374.4z" fill="#231815" p-id="20584"></path><path d="M726.872 400.88h40.387l-1.806-15.029H728.57l-1.698 15.028z" fill="#FFF100" p-id="20585"></path><path d="M726.872 400.88v0.614h41.11l-1.879-15.715-0.108-0.542h-38.003l-1.734 15.57-0.073 0.687h0.687v-0.615l0.578 0.073 1.661-14.486h35.764l1.77 13.872h-39.773v0.541l0.578 0.073-0.578-0.073z" fill="#231815" p-id="20586"></path><path d="M746.885 387.08l10.187 13.8h-20.085l9.898-13.8z" fill="#FFF100" p-id="20587"></path><path d="M746.415 387.44l9.573 12.898h-17.81l9.249-12.897-1.012-0.759-9.898 13.836-0.614 0.976h22.434l-10.982-14.812-0.867 0.759h-0.073z" fill="#231815" p-id="20588"></path><path d="M746.885 390.367a11.488 11.488 0 0 1 5.924 10.512h-11.451a11.524 11.524 0 0 1 5.527-10.512z" fill="#FFF100" p-id="20589"></path><path d="M746.885 390.367l-0.18 0.506a10.838 10.838 0 0 1 5.454 10.006h0.65v-0.541h-11.451v0.65h0.614a10.838 10.838 0 0 1 5.202-10.007l-0.29-0.506-0.18 0.506 0.18-0.506-0.252-0.541a12.102 12.102 0 0 0-6.069 11.054v0.614h12.752v-0.614a11.921 11.921 0 0 0-6.358-11.054h-0.47l0.253 0.541z" fill="#231815" p-id="20590"></path><path d="M727.125 379.132h39.918l1.59 1.698-1.59 1.59h-39.918l-1.518-1.59 1.518-1.698z" fill="#FFF100" p-id="20591"></path><path d="M727.125 379.132v0.614h39.593l1.047 1.084-1.047 0.975h-39.34l-0.904-0.975 1.12-1.3-0.47-0.398v0.614-0.614l-0.397-0.397-1.59 1.698-0.397 0.397 1.987 1.95 0.145 0.254h40.496l1.734-1.843 0.397-0.361-1.987-2.095-0.253-0.217h-40.387l-0.145 0.217 0.398 0.397z" fill="#231815" p-id="20592"></path><path d="M726.113 400.88h41.977l1.626 1.842-1.626 1.734h-41.977l-1.698-1.734 1.698-1.843z" fill="#FFF100" p-id="20593"></path><path d="M726.113 400.88v0.614h41.652l1.084 1.228-1.084 1.12H726.33l-1.084-1.12 1.3-1.445-0.433-0.398v0.615-0.615l-0.506-0.36-1.661 1.805-0.29 0.398 1.951 2.131 0.18 0.217h42.52l1.806-1.987 0.325-0.361-1.878-2.204-0.253-0.18h-42.52l-0.18 0.18 0.506 0.361z" fill="#231815" p-id="20594"></path><path d="M727.92 382.42h38.328l1.337 1.661-1.337 1.698h-38.329l-1.372-1.698 1.372-1.661z" fill="#FFF100" p-id="20595"></path><path d="M727.92 382.42v0.614h38.039l0.83 1.047-0.83 1.084h-37.715l-0.975-1.084 1.12-1.3-0.47-0.361v0.614-0.614l-0.47-0.398-1.336 1.698-0.325 0.361 1.662 2.06 0.144 0.216h38.943l1.553-1.878 0.29-0.398-1.735-2.059-0.108-0.217h-38.943l-0.144 0.217 0.47 0.398z" fill="#231815" p-id="20596"></path><path d="M751.942 363.346l0.687 15.786-10.657-0.108 0.795-15.678h9.175z" fill="#FFF100" p-id="20597"></path><path d="M751.328 363.346l0.723 15.172-9.429-0.072 0.795-14.522h8.525v-1.193h-9.826l-0.758 16.293-0.109 0.65 11.38 0.072h0.65l-0.722-16.4h-1.229z" fill="#231815" p-id="20598"></path><path d="M740.708 357.385h2.926v2.059h2.24v-2.06h2.926v2.06h2.203v-2.06h2.999v4.806l-1.265 1.156h-10.693l-1.336-1.156v-4.805z" fill="#FFF100" p-id="20599"></path><path d="M740.708 357.385v0.614h2.384v2.06h3.396v-2.06h1.661v2.06h3.468v-2.06h1.807v3.938l-0.94 0.794h-10.44l-0.686-0.794v-4.552h-0.65v0.614-0.614h-0.506v4.949l1.373 1.445 0.252 0.145h10.91l1.662-1.373 0.253-0.217v-5.563h-4.3v2.131h-0.938v-2.131h-4.19v2.131h-0.94v-2.131h-4.082v0.614h0.506z m5.527 12.608h2.131v3.648h-2.131v-3.648z" fill="#231815" p-id="20600"></path><path d="M753.604 364.863h3.107v2.059h2.095v-2.06h2.926v2.06h2.132v-2.06h3.106v4.733l-1.264 1.192h-10.693l-1.409-1.192v-4.732z" fill="#FFF100" p-id="20601"></path><path d="M753.604 364.863v0.614h2.42v2.059h3.432v-2.06h1.662v2.06h3.396v-2.06h1.878v3.866l-0.939 0.867h-10.44l-0.795-0.867v-4.48h-0.614v0.615-0.614h-0.578v4.949l1.626 1.445 11.054 0.18 1.662-1.408 0.217-0.217v-5.563h-4.263v2.059h-0.94v-2.06h-4.226v2.06h-0.903v-2.06h-4.227v0.615h0.578z" fill="#231815" p-id="20602"></path><path d="M765.128 370.787l0.253 8.345h-10.115l0.325-8.345h9.537z" fill="#FFF100" p-id="20603"></path><path d="M764.514 370.787l0.217 7.731h-8.85l0.324-7.08h8.923v-1.229h-10.187l-0.29 8.923v0.614h11.344l-0.217-8.959h-1.264z" fill="#231815" p-id="20604"></path><path d="M727.522 364.863h2.926v2.059h2.276v-2.06h2.926v2.06h2.168v-2.06h3.07v4.733l-1.264 1.192h-10.657l-1.445-1.192v-4.732z" fill="#FFF100" p-id="20605"></path><path d="M727.522 364.863v0.614h2.348v2.059h3.504v-2.06h1.662v2.06h3.36v-2.06h1.95v3.866l-0.975 0.867h-10.404l-0.831-0.867v-4.48h-0.614v0.615-0.614h-0.542v4.949l1.59 1.445 11.054 0.18 1.625-1.408 0.253-0.217v-5.563h-4.335v2.059h-0.903v-2.06h-4.154v2.06h-1.012v-2.06h-4.118v0.615h0.542z" fill="#231815" p-id="20606"></path><path d="M738.974 370.787l0.325 8.345h-10.115l0.325-8.345h9.465z" fill="#FFF100" p-id="20607"></path><path d="M738.36 370.787l0.288 7.731h-8.85l0.325-7.08h8.85v-1.229H728.86l-0.29 8.923v0.614h11.38l-0.325-8.959h-1.265z m20.916 3.613h2.131v2.203h-2.131V374.4z" fill="#231815" p-id="20608"></path><path d="M733.23 374.4h2.023v2.203h-2.023V374.4z" fill="#231815" p-id="20609"></path><path d="M726.872 514.06h40.387l-1.806-15.101H728.57l-1.698 15.1z" fill="#FFF100" p-id="20610"></path><path d="M726.872 514.06v0.613h41.11l-1.879-15.786-0.108-0.506h-38.003l-1.734 15.642-0.073 0.65h0.687v-0.614l0.578 0.109 1.661-14.667h35.764l1.77 13.98h-39.773v0.578l0.578 0.109-0.578-0.109z" fill="#231815" p-id="20611"></path><path d="M746.885 500.187l10.187 13.872h-20.085l9.898-13.872z" fill="#FFF100" p-id="20612"></path><path d="M746.415 500.584l9.573 12.897h-17.81l9.249-12.897-1.012-0.794-9.898 13.908-0.614 0.975h22.361l-10.91-14.883-0.866 0.794h-0.073z" fill="#231815" p-id="20613"></path><path d="M746.885 503.474a11.416 11.416 0 0 1 5.924 10.585h-11.451a11.596 11.596 0 0 1 5.527-10.585z" fill="#FFF100" p-id="20614"></path><path d="M746.885 503.474l-0.18 0.506a10.838 10.838 0 0 1 5.454 10.08h0.65v-0.579h-11.451v0.578h0.614a10.838 10.838 0 0 1 5.202-10.043l-0.29-0.542-0.18 0.506 0.18-0.506-0.252-0.541a12.21 12.21 0 0 0-6.069 11.126v0.614h12.752v-0.614a11.849 11.849 0 0 0-6.358-11.126h-0.47l0.253 0.541z" fill="#231815" p-id="20615"></path><path d="M727.125 492.24h39.918l1.59 1.59-1.59 1.77h-39.918l-1.518-1.77 1.518-1.59z" fill="#FFF100" p-id="20616"></path><path d="M727.125 492.24v0.541h39.593l1.047 1.048-1.047 1.156H727.45l-0.976-1.156 1.12-1.192-0.47-0.397v0.541-0.541l-0.397-0.398-1.59 1.626-0.397 0.361 1.987 2.06 0.145 0.252h40.496l1.734-1.915 0.397-0.397-1.987-1.987-0.253-0.217h-40.387l-0.145 0.217 0.398 0.398z" fill="#231815" p-id="20617"></path><path d="M726.113 514.06h41.977l1.626 1.77-1.626 1.733h-41.977l-1.698-1.734 1.698-1.77z" fill="#FFF100" p-id="20618"></path><path d="M726.113 514.06v0.613h41.652l1.084 1.156-1.084 1.156H726.33l-1.012-1.156 1.229-1.372-0.434-0.398v0.614-0.614l-0.506-0.361-1.661 1.77-0.29 0.361 1.951 2.132 0.18 0.253h42.52l1.806-1.987 0.398-0.398-1.951-2.131-0.253-0.217h-42.52l-0.18 0.217 0.506 0.361z" fill="#231815" p-id="20619"></path><path d="M727.92 495.6h38.328l1.337 1.589-1.337 1.698h-38.329l-1.372-1.698 1.372-1.59z" fill="#FFF100" p-id="20620"></path><path d="M727.92 495.6v0.541h38.039l0.83 1.048-0.83 1.083h-37.715l-0.975-1.083 1.12-1.3-0.47-0.29v0.542-0.542l-0.47-0.361-1.336 1.59-0.325 0.36 1.662 1.988 0.144 0.252h38.943l1.553-1.842 0.29-0.397-1.735-1.951-0.108-0.253h-38.943l-0.144 0.253 0.47 0.361z" fill="#231815" p-id="20621"></path><path d="M751.942 476.453l0.687 15.859-10.657-0.145 0.795-15.714h9.175z" fill="#FFF100" p-id="20622"></path><path d="M751.328 476.453l0.723 15.245-9.429-0.145 0.795-14.558h8.525v-1.156h-9.826l-0.758 16.328-0.109 0.542 11.38 0.145h0.65l-0.722-16.401h-1.229z" fill="#231815" p-id="20623"></path><path d="M740.708 470.492h2.926v2.132h2.24v-2.132h2.926v2.132h2.203v-2.132h2.999v4.733l-1.265 1.3h-10.693l-1.336-1.3v-4.733z" fill="#FFF100" p-id="20624"></path><path d="M740.708 470.492v0.614h2.384v2.132h3.396v-2.24h1.661v2.24h3.468v-2.24h1.807v4.01l-0.94 0.903h-10.187l-0.94-0.903v-4.516h-0.65v0.614-0.614h-0.505v4.95l1.373 1.444 0.18 0.181h11.235l1.481-1.373 0.18-0.253v-5.563h-4.298v2.132h-0.94v-2.132h-4.19v2.132h-0.94v-2.06h-4.081v0.542h0.506z m5.527 12.608h2.131v3.649h-2.131V483.1z" fill="#231815" p-id="20625"></path><path d="M753.604 477.97h3.107v2.06h2.095v-2.06h2.926v2.06h2.132v-2.06h3.106v4.805l-1.264 1.156h-10.693l-1.409-1.156v-4.805z" fill="#FFF100" p-id="20626"></path><path d="M753.604 477.97v0.614h2.42v2.06h3.432v-2.06h1.662v2.06h3.396v-2.06h1.878v3.974l-0.939 0.759h-10.44l-0.795-0.759v-4.588h-0.614v0.614-0.614h-0.578v5.022l1.626 1.408 11.054 0.145 1.662-1.409 0.217-0.144v-5.636h-4.263v2.131h-0.94v-2.13h-4.226v2.13h-0.903v-2.13h-4.227v0.613h0.578z" fill="#231815" p-id="20627"></path><path d="M765.128 483.93l0.253 8.382h-10.115l0.325-8.381h9.537z" fill="#FFF100" p-id="20628"></path><path d="M764.514 483.93l0.217 7.768h-8.85l0.324-7.153h8.923v-1.228h-10.187l-0.29 8.995v0.542h11.344l-0.217-8.923h-1.264z" fill="#231815" p-id="20629"></path><path d="M727.522 477.97h2.926v2.06h2.276v-2.06h2.926v2.06h2.168v-2.06h3.07v4.805l-1.264 1.156h-10.657l-1.445-1.156v-4.805z" fill="#FFF100" p-id="20630"></path><path d="M727.522 477.97v0.614h2.348v2.06h3.504v-2.06h1.662v2.06h3.36v-2.06h1.95v3.974l-0.975 0.759h-10.404l-0.831-0.759v-4.588h-0.614v0.614-0.614h-0.542v5.022l1.59 1.408 11.054 0.145 1.625-1.409 0.253-0.144v-5.636h-4.335v2.131h-0.903v-2.13h-4.154v2.13h-1.012v-2.13h-4.118v0.613h0.542z" fill="#231815" p-id="20631"></path><path d="M738.974 483.93l0.325 8.382h-10.115l0.325-8.381h9.465z" fill="#FFF100" p-id="20632"></path><path d="M738.36 483.93l0.288 7.768h-8.85l0.325-7.153h8.85v-1.228H728.86l-0.29 8.995v0.542h11.38l-0.325-8.923h-1.265z m20.916 3.577h2.131v2.24h-2.131v-2.24z" fill="#231815" p-id="20633"></path><path d="M733.23 487.507h2.023v2.24h-2.023v-2.24z" fill="#231815" p-id="20634"></path><path d="M692.697 603.396l29.37 26.769 9.393-12.138-26.805-24.493-11.958 9.862z" fill="#FFF100" p-id="20635"></path><path d="M692.697 603.396l-0.47 0.434 29.443 26.805 0.47 0.433 9.825-12.644 0.362-0.47-27.311-24.89-0.361-0.36-12.319 10.223-0.578 0.47 0.47 0.433 0.47-0.434 0.397 0.434 11.56-9.465 25.938 23.734-8.598 11.235-28.9-26.407-0.398 0.47 0.398 0.433-0.398-0.434z" fill="#231815" p-id="20636"></path><path d="M717.19 606.648l-2.565 16.725-14.486-13.294 17.051-3.431z" fill="#FFF100" p-id="20637"></path><path d="M716.54 606.575l-2.384 15.642-12.86-11.812 15.93-3.216-0.216-1.156-17.015 3.468-1.12 0.217 15.353 14.125 0.903 0.759 2.601-17.846-1.192-0.18z" fill="#231815" p-id="20638"></path><path d="M714.806 609.032l-3.324 11.451-8.164-7.477 11.488-3.974z" fill="#FFF100" p-id="20639"></path><path d="M714.806 609.032l-0.65-0.145-2.999 10.513-6.755-6.178 10.657-3.684-0.253-0.506-0.65-0.145 0.65 0.145-0.217-0.614-11.488 3.973-0.975 0.398 8.887 8.128 0.795 0.722 3.612-12.463 0.325-1.156-1.156 0.398 0.217 0.614z" fill="#231815" p-id="20640"></path><path d="M708.484 587.646l28.936 26.588-0.072 2.203-2.312 0.217-29.008-26.552 0.18-2.24 2.276-0.216z" fill="#FFF100" p-id="20641"></path><path d="M708.484 587.646l-0.397 0.47 28.755 26.335-0.072 1.445-1.517 0.144-28.611-26.19 0.108-1.518 1.806-0.144-0.072-0.542-0.397 0.47 0.397-0.47-0.108-0.614-2.276 0.216-0.47 0.109-0.253 2.673v0.29l29.262 26.732 0.18 0.144 2.601-0.217 0.506-0.108 0.108-2.637v-0.253l-29.153-26.769-0.18-0.18h-0.325l0.108 0.614z" fill="#231815" p-id="20642"></path><path d="M692.156 602.854l30.38 27.925v2.276l-2.42 0.253-30.49-27.96 0.073-2.277 2.457-0.217z" fill="#FFF100" p-id="20643"></path><path d="M692.156 602.854l-0.398 0.434 30.128 27.744v1.59l-1.553 0.072-30.092-27.564 0.108-1.517 1.879-0.18-0.072-0.579-0.398 0.434 0.398-0.434-0.073-0.614-2.456 0.217-0.542 0.072-0.072 2.818v0.253l30.706 28.177 0.144 0.145 2.746-0.253 0.578-0.072v-3.035l-30.634-28.177-0.18-0.145h-0.29l0.073 0.614z" fill="#231815" p-id="20644"></path><path d="M706.642 590.716l27.744 25.324-0.145 2.24-2.203 0.217-27.708-25.432 0.072-2.132 2.24-0.217z" fill="#FFF100" p-id="20645"></path><path d="M706.642 590.716l-0.398 0.434 27.528 25.143-0.073 1.445-1.445 0.144-27.274-25.034 0.036-1.445 1.734-0.109-0.108-0.578-0.398 0.434 0.398-0.434-0.073-0.614-2.24 0.217-0.469 0.072-0.072 2.674v0.252l27.78 25" fill="#231815"></path></svg>