<svg viewBox="0 0 1567 1024" xmlns="http://www.w3.org/2000/svg"><path d="M0.064 0h1556.382726v1023.936004H0.064V0z" fill="#00237A"></path><path d="M1556.446726 359.497531H928.485974V0h-305.228924v359.497531H0.032002v305.228924h623.225048v359.241547h305.228924V664.726455H1556.446726z" fill="#FFFFFF"></path><path d="M1556.446726 907.111306L174.645089 0H0.064v118.07262L1380.585717 1023.936004h175.861009z" fill="#FFFFFF"></path><path d="M0.064 907.111306L1381.865637 0h174.581089v118.07262L175.925009 1023.936004H0.064z" fill="#FFFFFF" p-id="27691"></path><path d="M1556.446726 423.557528H864.425977V0h-177.10893v423.557528H0.032002v177.10893h687.285045v423.301544h177.10893V600.666458H1556.446726z" fill="#CF142B"></path><path d="M1556.446726 1023.936004v-80.378976l-428.229236-278.830573h-120.568464l548.829698 359.241547z m0-1023.936004h-120.568464L928.517972 329.355415v30.142116h75.35529L1556.478724 0zM544.157994 664.694457L0.064 1021.408162v2.495844h115.544778l507.648272-331.595275v-27.646272h-79.131054zM0.064 0v80.378976l426.021374 279.086557h121.848384L0.095998-0.031998z" fill="#CF142B"></path></svg>