<svg viewBox="0 0 1543 1024" xmlns="http://www.w3.org/2000/svg"><path d="M40.23529437 986.11764687h1422.35294063V40.23529437H40.23529437v945.8823525z m1424.70588188 2.35294126V984.94117625v3.52941188zM34.35294125 992V33.17647063h1434.11764687v957.64705874H34.35294125z" fill="#353636"></path><path d="M8.49722982 1.73656452h1533.31636316v1021.78989932H8.49722982z" fill="#FFFFFF"></path><path d="M984.94117625 490.82352969c11.76470625 129.411765-83.52941156 243.52941187-212.94117656 255.29411718-129.411765 11.76470625-243.52941187-83.52941156-255.29411719-212.94117656-11.76470625-129.411765 83.52941156-243.52941187 212.94117656-255.29411719C859.05882313 267.2941175 973.17647094 362.58823531 984.94117625 490.82352969z" fill="#CC303C"></path><path d="M550.82352969 390.82352938c-34.11764719 55.2941175-16.47058781 127.05882375 39.99999937 161.17647093 55.2941175 34.11764719 127.05882375 15.29411719 161.17647094-40.00000031 34.11764719-55.2941175 105.8823525-72.94117687 161.17647094-40.00000031 55.2941175 34.11764719 72.94117687 105.8823525 39.99999937 161.17647094-67.05882375 110.588235-211.76470594 145.88235281-322.35294093 78.82352906-111.76470563-65.88235313-147.05882344-209.41176469-79.99999969-321.17647031z" fill="#005C9E"></path><path d="M252.43529375 323.5058825L384.00000031 128.44705906l30.23529375 20.4-131.57647031 195.05882344zM299.5058825 355.15294156L431.12941156 160.1176475l30.23529469 20.4-131.62353 195.03529406zM346.1176475 387.2941175l30.58823531 19.99999969 131.76470531-195.29411719-30.58823531-21.17647031zM1064.8823525 707.55294125L1126.1176475 616.87058844l30.22352906 20.41176468-61.22352937 90.68235282zM994.37647062 813.88235281l61.12941188-90.74117625 30.24705844 20.37647063-61.12941188 90.74117625zM1111.23529437 740.12941156l61.27058813-90.64705875 30.21176437 20.42352938-61.27058812 90.64705875zM1041.41176437 844.94117656l30.58823532 19.99999969 61.17647062-90.58823531-30.58823531-19.99999969zM1158.43529375 771.83529406l61.12941188-90.74117625 30.24705937 20.37647063-61.12941187 90.74117625zM1087.72941219 876.55294156l60.98823469-90.83529469 30.28235343 20.32941188-61.00000031 90.83529375zM1173.17647062 375.52941219l30.58823532-20.00000063-131.76470625-195.29411718-30.58823532 19.99999968zM1087.91764719 148.22352969l30.23529375-20.42352938 61.23529406 90.67058813-30.22352906 20.41176468zM1159.03529375 254.0941175l30.21176531-20.43529406 61.2941175 90.62352937-30.19999969 20.43529407zM993.96470563 211.83529437l30.25882406-20.35294124 61.08235312 90.77647031-30.27058875 20.35294125zM1064.44705906 316.59999969l30.23529375-20.37647063 61.15294125 90.7294125-30.24705843 20.38823532zM345.44705844 638.0941175l30.22353-20.41176469 131.71764656 194.98823531-30.23529375 20.41176469zM252.5176475 700.91764719l30.23529375-20.37647063 131.4941175 195.12941156-30.24705844 20.37647063zM299.07058813 670.59999969l30.23529468-20.38823532 61.17646969 90.7294125-30.24705844 20.38823532zM430.82352969 864.94117625l30.58823531-19.99999969-61.17647063-90.58823531-30.58823531 19.99999969z" fill="#231815"></path></svg>