<svg viewBox="0 0 1588 1024" xmlns="http://www.w3.org/2000/svg"><path d="M0 0h1588.476454v1024H0" fill="#FFFFFF"></path><path d="M0 80.558449h1588.476454V0H0M0 157.145706h1588.476454v80.558449H0M0 314.291413h1588.476454v80.558448H0M0 471.437119h1588.476454v80.558449H0M0 629.150139h1588.476454v79.991135H0M0 786.295845h1588.476454v80.558449H0M0 1024h1588.476454v-80.558449H0" fill="#E50012" p-id="2733"></path><path d="M0 551.995568h688.150693V0H0" fill="#1E2380"></path><path d="M56.731302 66.375623l17.019391 13.0482-6.240444-20.990582 17.01939101-12.480886h-21.55789501L56.731302 25.529086 49.923546 45.952355H28.365651l17.586704 12.480886-6.807757 20.990582 17.586704-13.0482zM171.328532 66.375623l17.586703 13.0482-6.807756-20.990582 17.586704-12.480886h-21.557895L171.328532 25.529086l-6.240443 20.423269h-21.557895l17.01939 12.480886-6.240443 20.990582 17.019391-13.0482zM286.493075 66.375623l17.586703 13.0482-6.807756-20.990582 17.586704-12.480886h-21.557895L286.493075 25.529086l-6.807756 20.423269h-21.557895l17.586703 12.480886-6.807756 20.990582 17.586704-13.0482zM401.657618 66.375623l17.01939 13.0482-6.240443-20.990582 17.019391-12.480886h-21.557895L401.657618 25.529086l-6.807757 20.423269h-21.557894l17.586703 12.480886-6.807756 20.990582 17.586704-13.0482zM516.254848 66.375623l17.586703 13.0482-6.807756-20.990582 17.586704-12.480886h-21.557895L516.254848 25.529086l-6.807757 20.423269h-20.990581l17.01939 12.480886-6.240443 20.990582 17.019391-13.0482zM631.419391 66.375623l17.586703 13.0482-6.807756-20.990582 17.019391-12.480886h-20.990582l-6.807756-20.423269-6.807757 20.423269h-21.557894l17.586703 12.480886-6.807756 20.990582 17.586704-13.0482zM114.029917 121.972299l17.586703 12.480887-6.807756-20.423269 17.586704-12.480887h-21.557895l-6.807756-20.423268-6.807756 20.423268h-21.557895l17.586704 12.480887-6.807757 20.423269 17.586704-12.480887zM229.19446 121.972299l17.01939 12.480887-6.240443-20.423269 17.019391-12.480887h-20.99058199l-6.80775601-20.423268-6.807756 20.423268h-21.557895l17.58670301 12.480887-6.80775601 20.423269 17.586704-12.480887zM343.79169 121.972299l17.586703 12.480887-6.807756-20.423269 17.586704-12.480887h-21.557895l-6.807756-20.423268-6.240443 20.423268h-21.55789501l17.01939001 12.480887-6.240443 20.423269 17.019391-12.480887zM458.956233 121.972299l17.58670301 12.480887-6.80775601-20.423269 17.586704-12.480887h-21.557895l-6.807756-20.423268-6.807757 20.423268h-21.557894l17.586703 12.480887-6.807756 20.423269 17.586704-12.480887zM574.12077599 121.972299l17.01939001 12.480887-6.807756-20.423269 17.586704-12.480887h-21.557895l-6.24044301-20.423268-6.80775699 20.423268h-21.557894l17.586703 12.480887-6.80775601 20.423269 17.586704-12.480887zM56.731302 177.568975l17.019391 12.480886-6.240444-20.423268 17.01939101-12.480887h-21.55789501L56.731302 136.722438l-6.807756 20.423268H28.365651l17.586704 12.480887-6.807757 20.423268 17.586704-12.480886zM171.328532 177.568975l17.586703 12.480886-6.807756-20.423268 17.586704-12.480887h-21.557895l-6.807756-20.423268-6.240443 20.423268h-21.557895l17.01939 12.480887-6.240443 20.423268 17.019391-12.480886zM286.493075 177.568975l17.586703 12.480886-6.807756-20.423268 17.586704-12.480887h-21.557895l-6.807756-20.423268-6.807756 20.423268h-21.557895l17.586703 12.480887-6.807756 20.423268 17.586704-12.480886zM401.657618 177.568975l17.01939 12.480886-6.240443-20.423268 17.019391-12.480887h-21.557895l-6.240443-20.423268-6.807757 20.423268h-21.557894l17.586703 12.480887-6.807756 20.423268 17.586704-12.480886zM516.254848 177.568975l17.586703 12.480886-6.807756-20.423268 17.586704-12.480887h-21.557895l-6.807756-20.423268-6.807757 20.423268h-20.990581l17.01939 12.480887-6.240443 20.423268 17.019391-12.480886zM631.419391 177.568975l17.586703 12.480886-6.807756-20.423268 17.019391-12.480887h-20.990582l-6.807756-20.423268-6.807757 20.423268h-21.557894l17.586703 12.480887-6.807756 20.423268 17.586704-12.480886zM114.029917 233.165651l17.586703 12.480886-6.807756-20.423268 17.586704-12.480887h-21.557895l-6.807756-20.423268-6.807756 20.423268h-21.557895l17.586704 12.480887-6.807757 20.423268 17.586704-12.480886zM229.19446 233.165651l17.01939 12.480886-6.240443-20.423268 17.019391-12.480887h-20.99058199l-6.80775601-20.423268-6.807756 20.423268h-21.557895l17.58670301 12.480887-6.80775601 20.423268 17.586704-12.480886zM343.79169 233.165651l17.586703 12.480886-6.807756-20.423268 17.586704-12.480887h-21.557895l-6.807756-20.423268-6.240443 20.423268h-21.55789501l17.01939001 12.480887-6.240443 20.423268 17.019391-12.480886zM458.956233 233.165651l17.58670301 12.480886-6.80775601-20.423268 17.586704-12.480887h-21.557895l-6.807756-20.423268-6.807757 20.423268h-21.557894l17.586703 12.480887-6.807756 20.423268 17.586704-12.480886zM574.12077599 233.165651l17.01939001 12.480886-6.807756-20.423268 17.586704-12.480887h-21.557895l-6.24044301-20.423268-6.80775699 20.423268h-21.557894l17.586703 12.480887-6.80775601 20.423268 17.586704-12.480886zM56.731302 288.762327l17.019391 12.480886-6.240444-20.423268 17.01939101-12.480887h-21.55789501L56.731302 247.915789l-6.807756 20.423269H28.365651l17.586704 12.480887-6.807757 20.423268 17.586704-12.480886zM171.328532 288.762327l17.586703 12.480886-6.807756-20.423268 17.586704-12.480887h-21.557895l-6.807756-20.423269-6.240443 20.423269h-21.557895l17.01939 12.480887-6.240443 20.423268 17.019391-12.480886zM286.493075 288.762327l17.586703 12.480886-6.807756-20.423268 17.586704-12.480887h-21.557895l-6.807756-20.423269-6.807756 20.423269h-21.557895l17.586703 12.480887-6.807756 20.423268 17.586704-12.480886zM401.657618 288.762327l17.01939 12.480886-6.240443-20.423268 17.019391-12.480887h-21.557895l-6.240443-20.423269-6.807757 20.423269h-21.557894l17.586703 12.480887-6.807756 20.423268 17.586704-12.480886zM516.254848 288.762327l17.586703 12.480886-6.807756-20.423268 17.586704-12.480887h-21.557895l-6.807756-20.423269-6.807757 20.423269h-20.990581l17.01939 12.480887-6.240443 20.423268 17.019391-12.480886zM631.419391 288.762327l17.586703 12.480886-6.807756-20.423268 17.019391-12.480887h-20.990582l-6.807756-20.423269-6.807757 20.423269h-21.557894l17.586703 12.480887-6.807756 20.423268 17.586704-12.480886zM114.029917 344.359003l17.586703 12.480886-6.807756-20.423269 17.586704-12.480886h-21.557895l-6.807756-20.423269-6.807756 20.423269h-21.557895l17.586704 12.480886-6.807757 20.423269 17.586704-12.480886zM229.19446 344.359003l17.01939 12.480886-6.240443-20.423269 17.019391-12.480886h-20.99058199l-6.80775601-20.423269-6.807756 20.423269h-21.557895l17.58670301 12.480886-6.80775601 20.423269 17.586704-12.480886zM343.79169 344.359003l17.586703 12.480886-6.807756-20.423269 17.586704-12.480886h-21.557895l-6.807756-20.423269-6.240443 20.423269h-21.55789501l17.01939001 12.480886-6.240443 20.423269 17.019391-12.480886zM458.956233 344.359003l17.58670301 12.480886-6.80775601-20.423269 17.586704-12.480886h-21.557895l-6.807756-20.423269-6.807757 20.423269h-21.557894l17.586703 12.480886-6.807756 20.423269 17.586704-12.480886zM574.12077599 344.359003l17.01939001 12.480886-6.807756-20.423269 17.586704-12.480886h-21.557895l-6.24044301-20.423269-6.80775699 20.423269h-21.557894l17.586703 12.480886-6.80775601 20.423269 17.586704-12.480886zM56.731302 399.955679l17.019391 12.480886-6.240444-20.423269 17.01939101-13.048199h-21.55789501L56.731302 359.109141l-6.807756 19.855956H28.365651l17.586704 13.048199-6.807757 20.423269 17.586704-12.480886zM171.328532 399.955679l17.586703 12.480886-6.807756-20.423269 17.586704-13.048199h-21.557895l-6.807756-19.855956-6.240443 19.855956h-21.557895l17.01939 13.048199-6.240443 20.423269 17.019391-12.480886zM286.493075 399.955679l17.586703 12.480886-6.807756-20.423269 17.586704-13.048199h-21.557895l-6.807756-19.855956-6.807756 19.855956h-21.557895l17.586703 13.048199-6.807756 20.423269 17.586704-12.480886zM401.657618 399.955679l17.01939 12.480886-6.240443-20.423269 17.019391-13.048199h-21.557895l-6.240443-19.855956-6.807757 19.855956h-21.557894l17.586703 13.048199-6.807756 20.423269 17.586704-12.480886zM516.254848 399.955679l17.586703 12.480886-6.807756-20.423269 17.586704-13.048199h-21.557895l-6.807756-19.855956-6.807757 19.855956h-20.990581l17.01939 13.048199-6.240443 20.423269 17.019391-12.480886zM631.419391 399.955679l17.586703 12.480886-6.807756-20.423269 17.019391-13.048199h-20.990582l-6.807756-19.855956-6.807757 19.855956h-21.557894l17.586703 13.048199-6.807756 20.423269 17.586704-12.480886zM114.029917 455.552355l17.586703 12.480886-6.807756-20.423269 17.586704-13.048199h-21.557895l-6.807756-20.42326901-6.807756 20.42326901h-21.557895l17.586704 13.048199-6.807757 20.423269 17.586704-12.480886zM229.19446 455.552355l17.01939 12.480886-6.240443-20.423269 17.019391-13.048199h-20.99058199l-6.80775601-20.42326901-6.807756 20.42326901h-21.557895l17.58670301 13.048199-6.80775601 20.423269 17.586704-12.480886zM343.79169 455.552355l17.586703 12.480886-6.807756-20.423269 17.586704-13.048199h-21.557895l-6.807756-20.42326901-6.240443 20.42326901h-21.55789501l17.01939001 13.048199-6.240443 20.423269 17.019391-12.480886zM458.956233 455.552355l17.58670301 12.480886-6.80775601-20.423269 17.586704-13.048199h-21.557895l-6.807756-20.42326901-6.807757 20.42326901h-21.557894l17.586703 13.048199-6.807756 20.423269 17.586704-12.480886zM574.12077599 455.552355l17.01939001 12.480886-6.807756-20.423269 17.586704-13.048199h-21.557895l-6.24044301-20.42326901-6.80775699 20.42326901h-21.557894l17.586703 13.048199-6.80775601 20.423269 17.586704-12.480886zM56.731302 510.581717l17.019391 13.0482-6.240444-20.42326901 17.01939101-13.04819899h-21.55789501L56.731302 469.73518l-6.807756 20.423269H28.365651l17.586704 13.04819899-6.807757 20.42326901L56.731302 510.581717zM171.328532 510.581717l17.586703 13.0482-6.807756-20.42326901 17.586704-13.04819899h-21.557895l-6.807756-20.423269-6.240443 20.423269h-21.557895l17.01939 13.04819899-6.240443 20.42326901 17.019391-13.0482zM286.493075 510.581717l17.586703 13.0482-6.807756-20.42326901 17.586704-13.04819899h-21.557895l-6.807756-20.423269-6.807756 20.423269h-21.557895l17.586703 13.04819899-6.807756 20.42326901 17.586704-13.0482zM401.657618 510.581717l17.01939 13.0482-6.240443-20.42326901 17.019391-13.04819899h-21.557895l-6.240443-20.423269-6.807757 20.423269h-21.557894l17.586703 13.04819899-6.807756 20.42326901 17.586704-13.0482zM516.254848 510.581717l17.586703 13.0482-6.807756-20.42326901 17.586704-13.04819899h-21.557895l-6.807756-20.423269-6.807757 20.423269h-20.990581l17.01939 13.04819899-6.240443 20.42326901 17.019391-13.0482zM631.419391 510.581717l17.586703 13.0482-6.807756-20.42326901 17.019391-13.04819899h-20.990582l-6.807756-20.423269-6.807757 20.423269h-21.557894l17.586703 13.04819899-6.807756 20.42326901 17.586704-13.0482z" fill="#FFFFFF"></path></svg>