<svg viewBox="0 0 1577 1024" xmlns="http://www.w3.org/2000/svg"><path d="M-0.3764223 776.191484H1584.77248171v264.19148401H-0.3764223zM-0.3764223-16.38296801H1584.77248171v264.19148401H-0.3764223z" fill="#C60B1E"></path><path d="M-0.24647001 247.808516H1584.90243399v528.382968H-0.24647001z" fill="#FFC400"></path><path d="M497.07807901 595.29893816c-1.68937038-10.7859775 0.38985478-21.44200478 1.16956435-32.09803104 0-0.77970956 0.25990353-1.5594181 0.51980604-2.33912766 2.20917641-4.02849804 5.58791614-7.14733527 8.31689858-10.91592978 7.40723777-5.32801364 15.07437907-9.87631669 24.82074452-9.48646191 1.68937038 0.12995125 3.11883723-0.90966082 4.80820657-1.42946685 15.98403989 4.28840055 25.60045407 14.55457304 28.71929131 30.79851545 0.64975729 2.98888495 0.90966082 6.36762571 4.54830408 7.66714026 16.63379718 1.42946685 33.26759435 0.51980603 49.90139153 0.51980604 18.58307006 0 15.46423386 1.42946685 15.5941851 15.33428261 0.12995125 13.51495995-0.64975729 27.02992092 0.12995126 40.54488087 1.03961207 18.45311881-2.07922516 35.47677076-13.25505745 50.55114985-0.25990353 0.38985478-0.77970956 0.51980603-1.29951559 0.51980603-7.53718902 4.54830408-14.81447555 9.48646293-23.39127664 11.95554185l0.12995125-0.12995228c-6.88743174 3.50869201-14.29466951 1.5594181-21.44200479 1.94927391-2.8589337 0.12995125-5.84781967 0-8.70675337 0-9.48646293 0.64975729-15.59418511-5.58791614-22.35166457-10.526075-0.90966082-0.64975729-1.68937038-1.42946685-2.33912766-2.20917641-2.33912766-3.37873973-5.19806136-6.36762571-7.6671413-9.61641418-2.8589337-4.54830408-20.66229522 11.69563832-23.39127768 7.14733526-2.07922516-9.61641418-1.16956434-25.34055054-1.94927287-34.95696472-0.25990353-2.8589337-1.03961207-37.81589843-1.42946685-40.67483316l-11.43573582-12.60529914z" fill="#AA1518"></path><path d="M566.86205722 578.92504348c-3.11883723-1.42946685-2.33912766-4.28840055-2.85893368-6.75747945-2.8589337-12.86520266-7.40723777-24.56084098-21.96181083-28.32943653-2.20917641-0.51980603-2.59903119-4.54830408-5.71786842-2.59903016-4.80820658-0.12995125-7.6671413-2.20917641-7.66714027-7.4072388 0-21.18210125-0.25990353-42.3642025 0.12995125-63.54630377 0-1.16956434 0.38985478-2.33912766 0.77970956-3.50869097 2.33912766-4.15844929 6.23767445-4.80820658 10.526075-4.93815887 29.23909734-0.77970956 58.47819365 1.16956434 87.71728996 0.64975729 6.36762571-0.12995125 7.27728652 3.50869201 7.53719005 8.83670566 0.90966082 19.36277962 0.38985478 38.59560799 0.77970854 57.95838761 2.72898245 9.09660815 1.94927288 18.06326402-0.77970854 26.89996864 1.81932163 6.49757696-0.64975729 12.86520266-0.12995227 19.36277963 0.25990353 2.98888495-1.81932163 4.02849804-4.67825533 4.02849804-21.3120525-0.51980603-42.49415375 0.38985478-63.67625502-0.64975832z" fill="#DADADA" p-id="1697"></path><path d="M508.51381483 415.18610189z m86.93758143 31.05841794c-2.46907892 2.20917641 3.50869201 6.75748049 4.15844929 9.09660815 2.46907892 8.44684984-11.04588103 4.54830408-15.20433033 6.23767342-1.2995156 0.51980603 25.34055054-1.03961207 24.04103495 0.25990353 13.64491223 0 3.37873973-0.77970956 17.02365196-0.77970956 11.17583228 0 11.17583228 0 11.30578456 11.56568707l0.38985376 56.52892077c-0.51980603 0.51980603-1.16956434 0.51980603-1.68936936 0-0.38985478-19.23282837-1.03961207-38.59560799-1.03961206-57.95838762 0-5.84781967-2.07922516-7.53718902-7.53719005-7.53718902-29.23909734 0.12995125-148.7945148 0.12995125-167.76743965 0-14.16471826-5.58791614 1.81932163-21.3120525-1.81932163-17.41350674h138.13848856" fill="#9F8504" p-id="1698"></path><path d="M521.11911397 348.65091215c1.5594181-0.38985478 3.24878848-0.51980603 4.8082076-0.38985478 4.80820658-0.38985478 8.96665587 1.81932163 13.51495995 2.72898244 5.45796489-1.94927288 11.04588103-3.24878848 16.76374945-3.89854576 11.43573581-1.42946685 19.36277962 5.84781967 28.45938675 10.39612272 1.03961207 0.51980603 1.03961207 2.59903119 3.24878848 1.94927392 12.34539663-3.24878848 24.04103495-1.5594181 35.34681952 4.41835179 11.04588103 5.71786739 17.54345799 17.15360321 16.63379717 26.89996968 0.12995125 12.47534788-23.78113244 44.70333016-44.44342663 55.48930767H457.18295542c-10.39612375-1.2995156-56.00911474-57.95838762-43.14391104-76.93131245l107.08006959-20.66229523z" fill="#9F8504" p-id="1699"></path><path d="M412.99943128 370.61272297c10.39612375-22.35166561 50.55114985-12.34539663 53.66998708-12.0854931 4.28840055 0.38985478 8.18694734-5.97777092 11.04588103-9.48646294 0 0 11.17583228-7.53718902 18.06326402-2.98888597 7.79709255 3.37873973 17.67340924 6.23767445 25.47050283 2.59903119l-108.24963496 21.96181082z" fill="#9F8504" p-id="1700"></path><path d="M670.04358104 549.81589843c-1.68937038-0.64975729-2.72898245-3.24878848-4.93815886-2.33912767-7.27728652 3.11883723-15.20433033 1.94927288-22.74151935 3.37873973-3.63864326 0.64975729-5.45796489 2.46907892-6.88743174 5.32801364-0.77970956-8.96665587-0.90966082-18.06326402 0-27.02992092h1.68936936c10.00626897-0.64975729 20.01253691-1.16956434 29.88885462-1.81932163 1.03961207-0.51980603 2.20917641-1.16956434 3.37874075-1.2995156 3.24878848-0.38985478 6.49757696-0.25990353 9.74636544 0.38985478 7.53718902 2.33912766 15.72413636-0.64975729 23.13137414 2.72898245 5.19806136 5.45796489 12.99515391 6.49757696 19.10287712 10.65602625 5.06811011 3.37873973 7.14733527 6.88743174 4.67825533 12.60530017-0.90966082 1.94927288-1.42946685 4.15844929-1.94927289 6.23767342-2.8589337 10.13622022-9.09660815 15.98403989-20.01253793 15.85408864l-35.08691599-24.69079326z" fill="#AB2C16" p-id="1701"></path><path d="M704.22083622 592.69990697c2.07922516 0.77970956 4.15844929 1.42946685 6.10772216 2.33912766 17.54345799 7.40723777 15.33428158 11.8255906 11.43573583 27.67967924-1.16956434 4.93815886-7.6671413 5.58791614-8.96665588 10.7859775-0.12995125 0.64975729-2.07922516-0.51980603-2.59903119-1.5594181-1.5594181-3.11883723-2.98888495-6.36762571-0.90966081-9.61641418 3.24878848-5.19806136 0.77970956-7.79709255-3.89854577-9.74636544-0.64975729 0.25990353-1.2995156 0.51980603-2.07922516 0.51980603l-12.86520267-4.28840157c-5.71786739-2.33912766-11.43573581-4.93815886-17.15360321-7.14733424-3.89854576-0.77970956-4.41835282-5.06811011-7.40723777-6.75748049-1.42946685-0.90966082-2.98888495-1.68937038-4.28840054-2.72898244-8.70675337-6.49757696-11.04588103-17.67340924-5.4579649-26.64006615 1.42946685-2.33912766 4.02849804-4.28840055 7.14733424-4.28840054 2.59903119 0 4.67825533-0.90966082 6.49757696-2.72898245l34.43715871 34.17725517z" fill="#AB1618" p-id="1702"></path><path d="M400.5240834 589.97092453c-4.54830408 2.07922516-24.56084098 16.11399114-29.10914506 17.80336152-4.15844929 2.20917641-8.70675337 3.24878848-12.86520266 5.19806136-1.5594181 0.77970956-3.24878848 0.25990353-4.93815886 0.12995227-4.28840055 2.20917641-3.76859451 5.71786739-2.46907891 9.35651066 1.16956434 3.37873973 1.81932163 6.88743174-1.68937038 9.09660815-3.89854576 2.33912766-11.43573581-13.12510619-13.77486348-14.94442782-7.92704381-6.23767445 6.49757696-21.44200478 15.46423386-26.25021136 11.69563832-8.31689859 37.16614115-29.10914506 40.02507484-31.18837023l9.35651065 30.79851545z" fill="#AA1718" p-id="1703"></path><path d="M390.38786318 557.48303974c5.19806136 1.03961207 13.90481473 5.97777092 14.6845243 11.95554185 1.03961207 7.53718902 4.41835282 15.72413636-5.32801261 20.92219772l-9.35651169-32.87773957z" fill="#AA1718" p-id="1704"></path><path d="M424.82502189 546.30720745c-32.87773957-10.39612375-59.9076605 28.32943653-67.70475306 28.19948424-10.526075-1.5594181-29.88885462-16.37389467-28.06953299-26.51011489 1.03961207-5.58791614 21.57195603-14.9444268 26.38016261-17.28355446 1.81932163-2.59903119 63.28640126-6.36762571 69.26417219-1.81932164V546.30720745z" fill="#A9221A" p-id="1705"></path><path d="M401.30379297 681.84666481c-1.2995156 1.68937038-3.24878848 2.07922516-5.19806136 2.20917641-14.9444268 0.38985478-30.01880587 0.38985478-44.9632337 0-1.94927288 0-3.89854576-0.51980603-5.19806136-2.20917641 0.90966082-8.96665587 6.49757696-16.11399114 8.96665587-24.56084098 0.90966082-0.77970956 2.07922516-1.68937038 3.11883723-1.42946685 11.17583228 2.20917641 22.22171332 0 33.39754663 0 1.81932163 1.5594181 2.98888495 5.84781967 2.98888494 5.84781863l6.88743175 20.1424892z" fill="#B8A203" p-id="1706"></path><path d="M436.39070895 681.97661606c2.20917641-2.20917641 1.2995156-5.06811011 1.2995156-7.53718903v-81.08976175c0-1.94927288-0.12995125-3.89854576 0-5.84781967 0.38985478-2.8589337 0.90966082-6.10772218 4.15844929-7.01738299 3.89854576-1.03961207 2.33912766 3.37873973 4.02849805 4.67825533 0.51980603 0.38985478 1.2995156 0.51980603 2.07922413 0.64975728 2.07922516 2.07922516 1.94927288 4.93815886 1.94927391 7.53719005 0 29.23909734 0.12995125 58.60814489-0.12995228 87.84724224 0 3.63864326 1.68937038 10.00626897-6.23767343 7.79709256l-7.14733527-7.01738402z" fill="#A21417" p-id="1707"></path><path d="M545.42005244 686.0051141c6.88743174 2.8589337 10.91592978 11.30578456 19.88258566 10.39612375 5.06811011 2.07922516 10.526075 1.03961207 15.59418511 2.59903017 2.33912766 0.77970956 6.10772218 1.42946685 1.68937037 4.67825532-8.18694734 0.51980603-15.59418511 4.28840055-23.52122891 5.71786842-24.17098724 5.06811011-48.21202218 3.50869201-71.86320234-2.98888597h0.12995124c-1.94927288-1.5594181-4.54830408-1.03961207-6.6275282-1.94927288-2.33912766-1.03961207-4.67825533-2.33912766-3.63864326-5.7178674 1.16956434-1.03961207 10.7859775-0.51980603 12.3453956-0.64975831 3.11883723-0.25990353 13.64491223-4.67825533 16.63379821-5.58791614 1.2995156-0.38985478 20.40239169-13.77486348 24.82074451-25.34055055l14.55457201 18.84297359z" fill="#CECECA" p-id="1708"></path><path d="M703.3111754 612.45254137l2.07922516 0.25990353c0.12995125 16.37389467-1.81932163 32.74778832 1.16956332 49.121683 0.51980603 2.8589337 1.68937038 4.80820658 3.11883723 7.01738299-0.77970956 4.02849804-4.15844929 3.63864326-6.88743174 3.63864326-11.17583228 0.38985478-22.22171332 0.38985478-33.3975456 0-2.8589337-0.12995125-7.27728652 0.51980603-6.497578-5.06811011 4.80820658-3.89854576 3.76859451-10.00626897 3.89854679-14.68452429 0.77970956-17.93331277 0.38985478-35.86662554 0.38985478-53.66998707 0-1.2995156-0.90966082-2.72898245-1.42946683-4.02849805 3.63864326-0.12995125 4.02849804 4.15844929 7.01738298 4.93815886-0.77970956 14.9444268-0.38985478 29.88885462-0.38985478 44.83328245 0 8.18694734 0.64975729 8.70675337 8.57680212 8.83670463 3.63864326 0.12995125 7.27728652-0.12995125 10.78597751 0.12995124 9.48646293-0.51980603 9.48646293-0.64975729 9.61641418-10.00626897v-23.00142288c0.25990353-2.98888495 0-5.84781967 1.94927288-8.31689859z" fill="#A89209" p-id="1709"></path><path d="M427.55400433 580.22455909c6.88743174-1.2995156 8.70675337 1.68937038 8.57680212 8.31689859-0.38985478 25.08064701-0.25990353 50.16129507-0.12995228 75.2419431 0 5.32801364-0.25990353 10.526075-2.72898244 15.33428158-4.80820658-2.46907892-5.45796489-7.40723777-7.14733425-11.8255906 0.51980603-0.77970956 1.16956434-1.68937038 0.90966082-2.72898245-4.67825533-25.99030783-0.51980603-52.24052023-1.81932163-78.3607793 0-2.20917641 0.64975729-4.28840055 2.33912766-5.97777092z" fill="#B8A000" p-id="1710"></path><path d="M357.51012361 463.65802657c0.64975729-6.36762571-6.88743174-7.6671413-7.9270438-12.99515391 3.37873973-2.07922516 7.79709255 0.38985478 11.04588103-2.33912766 9.61641418 1.16956434 8.31689859-6.75748049 10.00626794-12.08549414v-0.12995125c2.72898245-1.5594181 3.89854576 0 4.80820761 2.33912766 2.8589337 7.53718902 2.8589337 7.53718902 8.44684983 1.81932163l7.017383 0.77970957c-1.68937038 4.15844929-2.59903119 7.92704381 3.63864326 8.96665587 0.90966082 0.12995125 1.42946685 1.16956434 0.90966081 2.20917641l-4.28840054 5.84781968c-4.67825533 7.40723777 2.8589337 5.58791614 5.58791614 7.53718902l0.12995125 2.46907995c-0.77970956 1.42946685-1.94927288 2.20917641-3.50869097 1.81932163-10.526075-2.07922516-21.18210125-0.64975729-31.83812751-1.16956435-3.11883723-0.12995125-6.23767445 0-8.44685087-2.46907891 0.90966082-2.33912766 3.37873973-1.03961207 4.41835282-2.5990312z" fill="#6C5603" p-id="1711"></path><path d="M684.72810535 584.64291191c-13.77486348-4.93815886-13.77486348-4.93815886-14.29466953-18.84297358-0.12995125-2.33912766-0.38985478-4.80820658-0.51980602-7.14733528 0-2.98888495 0.12995125-5.84781967 0.12995124-8.83670462 1.68937038-2.07922516 3.24878848-4.02849804 6.10772218-1.55941809 3.11883723 1.2995156 6.23767445 2.33912766 9.74636543 2.20917641 4.93815886-0.25990353 7.6671413 2.46907892 8.18694734 7.27728548 0.64975729 7.40723777 0.64975729 14.9444268 0 22.35166561-0.64975729 6.10772218-4.54830408 6.36762571-9.35651064 4.54830407z" fill="#D9D7D7" p-id="1712"></path><path d="M670.30348355 527.46423386l-3.37873973-0.12995228c0.51980603-10.26617147 1.81932163-20.53234397 1.42946684-30.66856316-0.25990353-6.10772218 0-12.73525141-4.02849804-18.1932163 0.51980603-3.76859451 3.63864326-3.50869201 6.1077232-3.63864327 10.13622022-0.38985478 20.27244044-0.51980603 30.40866067 0 2.72898245 0.12995125 6.88743174-0.25990353 5.71786739 4.93815887-3.11883723 2.07922516-0.38985478 4.41835282-0.38985479 6.62752821 0 2.59903119-0.51980603 5.71786739-2.33912766 8.05699608-7.40723777-0.90966082-14.68452429-1.2995156-22.09176207-0.77970956-8.70675337 0.51980603-9.09660815 0.90966082-9.2265594 9.87631771-0.12995125 5.58791614 0 11.04588103 0 16.63379718-0.25990353 2.46907892-0.12995125 5.19806136-2.20917641 7.27728652z" fill="#A28F08" p-id="1713"></path><path d="M706.55996388 479.77201772c-0.12995125-2.07922516-1.2995156-2.8589337-3.24878848-2.8589337-12.21544538 0-24.30093848 0-36.51638284 0.12995125-0.77970956 0-1.5594181 0.90966082-2.33912766 1.2995156-4.67825533-2.07922516-5.06811011-6.10772218-3.89854679-10.26617147 1.42946685-5.19806136 6.23767445-4.15844929 10.13622022-4.41835283 4.41835282-2.20917641 8.83670462 0.64975729 13.25505744 0.25990353 6.88743174-0.64975729 13.51495995-1.03961207 19.62268316-4.67825636 0.38985478 1.5594181 0 3.24878848 1.81932163 4.28840158 7.53718902 4.28840055 7.92704381 10.526075 1.16956332 16.2439424z" fill="#C1A900" p-id="1714"></path><path d="M663.02619805 667.42204404c0.25990353 1.94927288 1.42946685 2.8589337 3.37873973 2.8589337 13.64491223 0 27.28982343 0 40.93473566-0.12995125 0.77970956 0 1.5594181-0.90966082 2.33912767-1.42946685 2.46907892 4.02849804 0.64975729 9.48646293 4.28840054 13.12510517-1.42946685 1.5594181-3.24878848 2.07922516-5.19806136 2.07922516-14.55457304 0.25990353-29.10914506 0.51980603-43.53376685-0.12995228-1.94927288-0.12995125-3.89854576-0.38985478-5.19806136-2.20917642 1.16956434-4.67825533-2.46907892-10.39612375 2.98888597-14.16471723z" fill="#C1AB01" p-id="1715"></path><path d="M394.54631248 474.44400407c-1.94927288 5.71786739-0.90966082 17.54345799-3.63864326 23.13137517-5.32801364-4.02849804-11.43573581-4.02849804-17.8033605-4.1584493-5.71786739-0.12995125-11.69563832 1.68937038-17.02365196-1.68937038-4.28840055-2.98888495-1.16956434-13.64491223-3.37874075-17.1536032H394.54631248z" fill="#A38F07" p-id="1716"></path><path d="M355.56085073 530.58307006l0.64975729-38.98546175c9.87631669-0.12995125 19.7526344 0 29.49899983-0.38985478 5.06811011-0.25990353 3.63864326 4.15844929 5.32801365 6.36762571 0 3.24878848 0 6.62752821-0.12995228 9.87631668-1.16956434 4.41835282-0.77970956 8.96665587-0.25990251 13.3850087 0.25990353 2.33912766 0.77970956 4.67825533-0.90966081 6.75748049l-34.17725517 2.98888495z" fill="#B7B1AB" p-id="1717"></path><path d="M394.02650644 479.90196897c-0.25990353-2.46907892-1.94927288-2.98888495-4.15844929-2.98888495h-32.61783707c-2.20917641 0-3.76859451 0.51980603-4.15844929 2.98888495-4.67825533-2.72898245-7.01738299-6.62752821-5.32801261-11.95554186 1.5594181-4.80820658 5.84781967-4.15844929 9.61641418-4.28840054l-2.98888597 2.5990312c14.29466951 1.2995156 28.45938777-1.03961207 42.3642025 1.81932163 2.33912766 4.67825533 0.90966082 8.57680212-2.72898245 11.82558957z" fill="#BCA600" p-id="1718"></path><path d="M684.72810535 584.64291191c5.45796489 0.77970956 7.92704381-1.16956434 7.40723777-7.14733528-0.51980603-5.97777092-0.25990353-12.0854931-0.12995125-18.06326402 0.12995125-5.71786739-2.20917641-8.70675337-8.0569961-8.31689859-2.98888495 0.12995125-5.84781967-0.25990353-7.9270438-2.72898244l20.53234397 2.07922517c0.90966082-0.38985478 1.81932163-0.25990353 2.59903017 0.38985374 7.79709255 6.49757696 3.63864326 15.85408761 5.84781967 23.6511812-1.5594181 5.97777092-1.16956434 12.0854931-0.90966081 18.19321528-7.01738299-1.03961207-12.86520266-5.58791614-19.36277962-8.05699506z" fill="#BDB7B0" p-id="1719"></path><path d="M681.9991229 491.59760831c5.58791614 0 11.04588103 0 16.63379718-0.12995228 2.46907892 0 4.15844929 0.77970956 5.32801363 2.98888598l-0.64975831 34.6970612c-7.79709255 1.16956434-15.46423386 0.38985478-23.00142289-1.16956332 9.48646293-2.46907892 10.7859775-9.48646293 9.87631773-17.67341027-0.12995125-2.20917641-0.12995125-4.28840055 0-6.49757696 0.25990353-4.67825533-0.25990353-8.70675337-6.10772322-9.4864619-1.2995156-0.38985478-2.20917641-1.2995156-2.07922412-2.72898245z" fill="#C3C3C0" p-id="1720"></path><path d="M655.489008 699.90992883c-3.24878848-6.10772218-2.59903119-7.6671413 2.98888598-10.00626794 7.01738299-2.8589337 13.77486348-2.98888495 21.05215-0.77970956 5.32801364 1.68937038 11.04588103 1.42946685 16.2439424-0.64975831 7.40723777-2.8589337 17.93331277 0 21.83185853 5.71786842 1.03961207 1.5594181 0.90966082 3.24878848 0.51980604 4.93815885l-62.63664295 0.77970854z" fill="#1C5DA3" p-id="1721"></path><path d="M703.57107893 459.23967374c-9.74636544 10.39612375-21.44200478 6.88743174-32.8777406 4.54830408-0.25990353-3.63864326-2.07922516-6.36762571-4.93815782-8.57680108 10.13622022-6.36762571 21.3120525-5.84781967 32.48788478-4.54830408 2.72898245 0.25990353 5.32801364 1.94927288 7.01738298 4.54830408l-1.68936934 4.028497z" fill="#685203" p-id="1722"></path><path d="M718.12565095 702.50896002c0.51980603 4.93815886 0.38985478 8.44684984-6.36762468 5.45796489-6.10772218-2.59903119-12.73525141-2.07922516-19.10287712 0-3.76859451 1.2995156-7.53718902 2.07922516-11.30578457 0.51980604-7.27728652-3.11883723-14.55457304-2.98888495-21.83185854-0.38985478-2.8589337 1.03961207-5.19806136 1.68937038-5.97777092-2.33912767 0.12995125-1.5594181-0.38985478-3.24878848 1.2995156-4.41835282 8.31689859-2.98888495 16.76374843-4.15844929 25.47050179-1.29951457 5.06811011 1.68937038 10.13622022 0.77970956 14.94442783-0.64975831 8.18694734-2.46907892 15.59418511-0.51980603 22.87147061 3.11883722z" fill="#27629F" p-id="1723"></path><path d="M403.64292063 683.1461804c3.37873973 7.6671413 2.8589337 16.76374843 2.20917642 26.12026011-6.75748049-2.33912766-19.7526344-3.89854576-26.64006615-1.03961309-4.02849804 1.68937038-7.92704381 1.16956434-11.95554185-0.12995125-7.01738299-2.20917641-16.11399114-2.59903119-23.26132539 0-7.40723777 1.03961207-2.07922516-23.39127766-2.46907994-26.25021136l62.11683691 1.29951559z" fill="#2C6397" p-id="1724"></path><path d="M680.17980126 452.22229075c-5.06811011 0-9.09660815 4.54830408-14.42462075 2.98888599-1.42946685-0.51980603-2.33912766-1.68937038-2.72898246-2.98888599-0.25990353-5.97777092 2.98888495-10.526075 9.09660713-9.74636544 10.00626897 1.2995156 19.88258565-0.51980603 29.75890337 1.03961207 3.11883723 0.38985478 6.49757696 1.03961207 7.79709256 4.41835282 1.5594181 4.02849804-2.33912766 5.19806136-4.41835284 7.40723778v-0.12995124l-25.08064701-2.98888599z" fill="#7D2E0E" p-id="1725"></path><path d="M705.39040056 455.34112798c5.19806136-7.53718902 4.15844929-10.00626897-5.19806239-10.13622022-4.15844929 0-8.96665587-3.11883723-12.73525038 1.42946685-3.76859451-3.37873973-8.44684984-1.16956434-12.60530017-2.20917641-5.71786739-1.42946685-10.526075 2.07922516-11.82558957 7.9270438-2.46907892-6.23767445-0.51980603-9.74636544 5.19806136-11.82558957 5.45796489-2.07922516 12.21544538-0.90966082 16.37389468-6.49757696 0.90966082-1.16956434 2.72898245-1.03961207 3.89854577 0.12995126 4.02849804 4.67825533 9.61641418 5.84781967 15.33428157 6.3676257 3.76859451 0.38985478 6.75748049 1.42946685 7.14733527 5.7178674 0.25990353 4.15844929 0.25990353 8.44684984-5.58791614 9.09660815z" fill="#976C02" p-id="1726"></path><path d="M654.57934719 702.37900877c-0.38985478 1.16956434-0.64975729 2.20917641-1.03961207 3.37873973-0.51980603-7.27728652-1.03961207-14.42462076 0.12995125-21.70190728 0.38985478 0.12995125 0.90966082 0.64975729 1.2995156 0.51980603 14.16471826-4.02849804 28.58933902 3.76859451 42.88400853-0.64975728 6.88743174-2.07922516 13.90481473-0.25990353 20.01253794 3.89854576 0.64975729 2.20917641 0.38985478 4.28840055-0.38985478 6.36762571-7.79709255-2.72898245-14.9444268-8.18694734-24.17098723-2.5990312-4.28840055 2.59903119-10.65602625 1.94927288-15.46423282-0.64975728-7.92704381-4.28840055-15.07437907-0.12995125-22.22171333 1.94927288-2.98888495 0.90966082-2.33912766 4.15844929-0.12995228 6.49757696 1.16956434 1.42946685-0.38985478 2.07922516-0.90966081 2.98888597z" fill="#AEB1B6" p-id="1727"></path><path d="M406.37190308 702.11910524c-2.8589337 0.38985478-5.58791614-0.12995125-8.44684984-0.77970956-6.10772218-1.2995156-12.34539663-1.94927288-18.19321631 0.90966081-2.72898245 1.2995156-5.58791614 1.68937038-8.44684984 0.90966082-8.18694734-2.46907892-16.24394239-3.76859451-24.56084201-0.64975729-1.42946685 0.51980603-3.37873973-0.12995125-4.93815783-0.25990353v-3.1188362c9.35651065-4.02849804 18.71302234-5.97777092 28.3294355-0.38985478 2.07922516 1.16956434 4.93815886 1.16956434 7.01738402 0 8.70675337-5.32801364 17.41350674-3.76859451 26.12025908-0.25990353 1.42946685 0.64975729 2.20917641-0.25990353 3.11883723-1.03961207v4.67825533z" fill="#A3B1C1" p-id="1728"></path><path d="M544.38044038 349.04076693c-1.03961207 0-3.89854576 2.07922516-4.93815886 2.07922414-2.33912766-0.12995125-2.8589337-1.94927288-5.19806136-2.07922414-0.64975729-0.12995125-3.89854576 0.25990353-4.41835282 0-1.5594181-0.51980603-9.61641418 0-10.91592876-1.16956434-0.38985478-0.51980603 0.90966082-7.40723777 0.77970854-8.05699506 0.51980603-2.72898245 5.32801364-4.93815886 3.50869201-7.14733527 2.07922516-2.33912766 0.51980603-4.41835282-0.38985479-6.62752821-1.94927288-4.41835282-1.16956434-8.05699608 3.24878848-10.526075 2.72898245-1.5594181 5.19806136-2.33912766 7.40723778 1.16956435 2.07922516 3.50869201 7.01738299 6.23767445 1.16956434 10.65602625-2.20917641 1.5594181-0.51980603 3.37873973 0.51980603 5.06811011-0.12995125 2.07922516-1.94927288 4.28840055 0.25990251 5.97777092 1.42946685 1.16956434 2.59903119-0.25990353 3.89854679-1.16956434 1.81932163 4.28840055-0.25990353 8.83670462 5.06811011 11.82559059z" fill="#B79301" p-id="1729"></path><path d="M717.9956997 687.95438698c-2.8589337-0.38985478-5.71786739-0.12995125-8.44684984-1.5594181-4.28840055-2.33912766-8.70675337-1.94927288-13.25505745 0-5.58791614 2.46907892-11.95554185 2.59903119-17.67340924 0.51980604-6.75748049-2.33912766-13.12510619-2.98888495-19.49273191 0.64975728-4.02849804 2.33912766-5.58791614 0.90966082-5.58791614-3.37873973 1.5594181-2.20917641 4.02849804-1.94927288 6.23767445-2.33912766l53.92988958 0.12995125c4.02849804 0.25990353 5.97777092 1.94927288 4.28840055 5.97777092z" fill="#1F5E9B" p-id="1730"></path><path d="M341.65603498 687.5645322c9.35651065-1.94927288 18.58307006-4.15844929 28.32943651-0.12995125 3.89854576 1.5594181 8.96665587 0.64975729 13.51495995-0.90966082 3.50869201-1.2995156 7.53718902-2.46907892 11.30578458-0.90966081 2.59903119 1.03961207 7.01738299 2.07922516 5.97777092 5.06811011-1.2995156 3.89854576-4.28840055 0.12995125-6.36762572-0.64975729-2.59903119-0.90966082-5.45796489-1.5594181-7.79709255-0.38985478-8.31689859 4.02849804-16.37389467 3.37873973-24.82074451 0.12995125-3.50869201-1.2995156-7.92704381-1.5594181-11.69563832 1.2995156-2.33912766 1.81932163-5.32801364 2.07922516-8.31689859 1.5594181l-0.12995227-5.06811011z" fill="#ABB4BD" p-id="1731"></path><path d="M654.57934719 702.37900877l1.16956434-3.11883722c6.75748049-3.50869201 13.64491223-3.89854576 20.92219772-1.94927289 5.19806136 1.42946685 10.65602625 2.98888495 16.11399114 0.51980604 8.57680212-3.89854576 17.02365196-0.25990353 25.34055056 1.29951559v3.37873973c-21.18210125-1.94927288-42.3642025-2.07922516-63.54630376-0.12995125z" fill="#A8B7C5" p-id="1732"></path><path d="M398.31490802 539.15987217c-7.40723777-4.15844929-1.94927288-6.36762571 1.16956331-8.96665587 0.64975729-0.51980603 1.16956434-1.5594181 1.68937039-2.33912869l4.54830408 0.12995228c-1.5594181 5.45796489 0.77970956 10.7859775 0.12995125 16.24394239l-7.53718903-5.06811011z" fill="#B7600D" p-id="1733"></path><path d="M389.60815465 549.68594717c1.03961207 3.11883723-0.25990353 6.49757696 1.42946685 9.48646191v0.12995229c-0.38985478 5.19806136-1.81932163 10.39612375-0.51980603 15.59418511 0.77970956 3.11883723-1.42946685 3.63864326-3.63864326 3.89854576-3.50869201 0.12995125-4.54830408-2.46907892-4.80820762-5.19806136-0.51980603-6.49757696-0.77970956-12.99515391 0.12995229-19.36277962 0.51980603-4.02849804 2.46907892-6.88743174 7.40723777-4.54830409z" fill="#CFCAC7" p-id="1734"></path><path d="M370.63522878 436.23825086c0 1.16956434 0 2.33912766 0.25990353 3.50869201 1.42946685 8.31689859-1.16956434 10.7859775-10.13622022 9.48646294-2.72898245-1.94927288-4.41835282-4.80820658-6.23767445-7.40723777 4.28840055-4.93815886 11.30578456-2.20917641 16.11399114-5.58791718z m13.3850087 3.89854679c-1.03961207 3.24878848-1.2995156 8.05699608-6.10772218 7.14733424-3.76859451-0.64975729-4.93815886-4.02849804-3.89854576-7.9270438 0.77970956-2.72898245-1.42946685-2.98888495-3.37874076-3.37873973-0.12995125-2.20917641-0.25990353-4.67825533 2.59903119-5.19806136 1.94927288-0.25990353 2.98888495 1.5594181 3.24878848 3.24878847 0.77970956 4.41835282 6.23767445 2.72898245 7.53718903 6.10772218z" fill="#935308" p-id="1735"></path><path d="M349.58307981 450.66287266c-1.2995156-4.54830408 0.25990353-7.53718902 4.80820658-8.96665691 4.41835282 0.51980603 5.45796489 3.89854576 6.23767445 7.40723777l-11.04588103 1.55941914z" fill="#9E2C11" p-id="1736"></path><path d="M395.45597329 452.22229075c-0.77970956-0.51980603-1.5594181-1.16956434-2.33912766-1.2995156-2.46907892-0.38985478-5.32801364 0.12995125-6.23767342-3.37873973-0.90966082-3.63864326 1.81932163-4.93815886 4.02849701-6.6275282 4.67825533 2.59903119 8.83670462 5.19806136 4.54830407 11.30578353z" fill="#9D400E" p-id="1737"></path><path d="M539.31233027 337.34512861c-0.12995125 1.94927288 0.12995125 4.02849804-2.72898245 4.1584493-2.07922516 0-3.89854576-0.77970956-4.41835282-2.98888598-0.64975729-2.72898245-0.77970956-5.32801364 2.98888597-6.10772217 1.42946685 1.68937038 2.72898245 3.37873973 4.1584493 4.93815885z m-15.98403989-4.67825635c6.36762571 0.38985478 4.93815886 3.89854576 2.98888597 7.53719005-2.98888495 2.20917641-5.32801364 1.5594181-7.27728652-1.42946685-0.38985478-3.24878848 2.20917641-4.41835282 4.28840055-6.1077232z" fill="#7B7E43" p-id="1738"></path><path d="M396.75548889 465.60729945c-2.8589337-0.12995125-5.71786739-0.25990353-8.70675337-0.38985478 0-3.11883723 1.16956434-5.32801364 3.11883723-7.017383-1.81932163 5.06811011 3.50869201 5.06811011 5.58791614 7.40723778z" fill="#BCA600" p-id="1739"></path><path d="M575.8287131 631.16556371c-3.37873973-4.02849804-6.36762571-7.79709255-12.21544435-9.48646293-6.49757696-1.81932163-5.71786739-9.35651065-7.92704484-14.55457202-0.64975729-1.5594181 1.94927288-3.11883723 3.50869201-1.81932163 4.93815886 4.15844929 14.16471826 3.89854576 14.03476702 13.6449112 0 2.8589337 2.98888495 6.36762571 5.58791614 5.32801364 2.8589337-1.03961207 2.07922516-5.32801364 0.51980603-7.53718903-3.11883723-4.41835282-4.67825533-8.18694734-1.16956435-13.12510619 1.5594181-2.20917641-0.77970956-4.67825533-2.46907891-6.23767445-1.94927288-1.81932163-3.50869201 0-4.93815886 1.29951559-2.72898245 2.33912766-6.23767445 3.11883723-8.44684984 0.77970957-2.20917641-2.46907892-0.12995125-6.23767445 1.42946685-8.70675337 1.81932163-3.11883723 5.06811011 0 7.27728652-0.25990251 7.6671413-0.51980603 15.33428158 0.77970956 22.8714706-0.12995227 1.42946685-0.12995125 2.72898245-1.42946685 4.02849804-1.2995156 6.75748049 0.12995125 12.86520266 4.54830408 20.53234398 0.64975831 3.37873973-1.68937038 6.75748049 4.02849804 3.76859451 8.70675337-2.8589337 4.41835282-3.11883723 8.31689859 0.51980603 12.34539663 1.2995156 1.2995156 1.42946685 3.24878848 0.90966082 4.80820658-3.50869201 10.7859775-0.12995125 21.70190728-0.77970956 32.35793353-0.51980603 7.92704381-4.28840055 16.24394239-8.44684984 23.26132643-2.33912766 3.76859451-8.31689859 5.32801364-9.87631669 10.65602625-0.12995125 0.38985478-0.64975729 0.90966082-1.0396131 1.03961206-8.83670462 0.90966082-16.8937007 6.75748049-26.12025908 3.89854679-0.25990353 0-0.38985478-0.38985478-0.64975832-0.38985478-12.21544538 1.68937038-17.93331277-8.70675337-26.38016261-13.90481473-1.16956434-0.77970956-3.11883723-2.07922516-2.98888597-2.98888597 1.16956434-8.96665587-4.67825533-16.50384592-4.54830305-25.73040534 0.12995125-7.6671413 2.07922516-15.59418511 0.12995125-23.00142288-0.90966082-3.50869201-1.16956434-5.19806136 1.94927288-5.19806136 3.63864326 0 4.67825533-7.01738299 8.05699608-3.63864326 3.11883723 2.98888495-1.81932163 5.71786739-2.72898244 8.70675337-0.90966082 2.98888495-1.42946685 6.23767445 0.77970854 8.96665691 1.5594181 1.94927288 4.54830408 2.33912766 5.97777092 1.29951456l18.84297359 0.25990353m-22.22171332 14.81447554z" fill="#C29C04" p-id="1740"></path><path d="M519.29979234 602.57622468c-10.26617147-5.97777092-14.42462076-15.33428158-14.03476599-26.64006614 0.38985478-10.91592978 4.41835282-20.01253691 15.20433033-25.08064805 10.26617147-4.93815886 23.65118017 0.12995125 29.23909631 11.04588104 7.79709255 15.20433033 2.46907892 33.65744913-11.30578354 40.67483315-6.36762571 2.46907892-12.73525141 3.24878848-19.10287711 0z" fill="#0358B7" p-id="1741"></path><path d="M492.78967847 568.26901723c-18.84297359 0-49.90139153 0.90966082-49.64148903-4.54830407 0.38985478-4.15844929 2.59903119-74.98203958 9.87631669-85.24821104 3.89854576-6.10772218 45.2231362-5.06811011 50.42119859 1.2995156 2.98888495 3.76859451 17.02365196 51.72071316 0.90966082 68.48446262l-11.56568707 20.01253689z" fill="#6C5F03" p-id="1742"></path><path d="M508.51381483 689.64375736c-2.33912766 3.76859451-6.62752821 3.63864326-10.00626897 5.58791614-3.63864326-0.64975729-2.72898245-3.50869201-2.72898245-5.71786739v-89.27670909c0-2.33912766-0.64975729-5.06811011 2.98888599-5.58791614 9.2265594 11.95554185 7.27728652 25.86035658 7.27728652 39.50526778v49.25163425c0.12995125 2.46907892-0.25990353 4.93815886 2.46907891 6.23767445z" fill="#C2AB00" p-id="1743"></path><path d="M522.02877478 674.69932953c-1.81932163-2.8589337-2.72898245-5.97777092-2.72898244-9.4864619 0-13.90481473-0.25990353-27.93958174-0.25990251-41.84439648 0-2.72898245-1.5594181-6.62752821 3.89854577-6.62752821 4.67825533 0 6.62752821 2.33912766 6.49757695 6.62752821-0.25990353 10.7859775 0.77970956 21.57195603-0.64975728 32.48788583-0.25990353 2.33912766 0.25990353 4.67825533 0.38985478 7.14733424 1.42946685 5.45796489-1.42946685 9.2265594-5.06811011 12.60529912-0.77970956-0.12995125-1.5594181-0.38985478-2.07922516-0.90966081z" fill="#BAA401" p-id="1744"></path><path d="M597.53062038 507.71159945c-0.90966082-0.90966082-1.16956434-1.94927288-1.29951456-3.11883722-0.25990353-6.23767445-1.81932163-12.47534788 0.51980603-18.71302234 2.72898245-2.07922516 6.10772218-3.37873973 8.31689859-6.10772217 2.07922516 3.24878848 4.15844929 4.67825533 8.05699506 1.94927288 2.07922516-1.42946685 5.84781967-3.37873973 7.92704381-0.90966082 2.33912766 2.72898245 1.68937038 6.62752821-0.90965979 9.22655941-9.48646293 9.35651065-7.53718902 19.36277962-3.37874076 30.40866065 1.94927288 5.19806136-0.51980603 10.13622022-5.84781968 13.12510619-8.44684984 4.67825533-8.44684984 4.67825533-3.11883619 12.47534788 2.33912766 3.37873973 0.90966082 5.84781967-1.42946685 8.31689859-3.24878848-3.63864326-4.93815886-8.05699608-7.27728652-12.21544434-2.98888495-5.19806136 2.20917641-7.40723777 4.93815782-10.39612376-5.58791614-1.68937038-5.58791614-1.68937038-5.97776989-5.84781967l-0.51980707-18.19321528z" fill="#B57D95" p-id="1745"></path><path d="M597.66057267 526.29466951c1.81932163 5.19806136 7.6671413 1.42946685 10.7859775 4.67825533-2.33912766 1.5594181-4.54830408 2.59903119-6.36762571 4.41835282-2.59903119 2.72898245-3.24878848 4.54830408-0.38985479 7.79709256 2.72898245 2.98888495 4.67825533 6.62752821 4.67825637 11.04588104l-0.51980707 9.74636544c-4.80820658 1.2995156-7.6671413-3.24878848-11.69563831-4.1584493-2.20917641-5.45796489 3.50869201-4.67825533 5.71786738-7.27728653-2.46907892-3.11883723-10.65602625 2.8589337-9.61641314-5.71786738-1.42946685-2.20917641-1.03961207-4.67825533-0.64975832-6.88743175 1.68937038-9.87631669 1.5594181-10.13622022-8.31689859-10.78597853-0.38985478-1.2995156-0.90966082-2.72898245-1.2995156-4.02849702-1.68937038-2.8589337-4.28840055-5.71786739-1.16956331-9.09660815 3.76859451-4.15844929 8.57680212-3.76859451 13.3850087-2.46907994 4.15844929 3.37873973 5.84781967 7.6671413 5.45796489 12.73525141z" fill="#E073A4" p-id="1746"></path><path d="M597.53062038 485.74978864v18.71302234c-6.10772218 8.57680212-9.48646293 9.2265594-18.84297359 3.63864326-2.20917641-1.2995156-4.54830408-2.59903119-7.01738299-3.76859554-2.46907892-1.16956434-3.76859451-2.98888495-1.5594181-5.58791614 2.46907892-0.51980603 5.71786739 0.51980603 7.01738299-2.8589337 1.42946685-3.89854576 4.67825533-6.75748049 6.23767447-11.04588103 1.16956434-3.11883723 7.53718902-2.72898245 11.69563832-3.24878848 1.68937038 0.90966082 3.37873973 1.81932163 2.4690789 4.15844929z" fill="#E46EA4" p-id="1747"></path><path d="M561.27414108 507.45169592l-0.25990353 0.12995126c-4.15844929 0.51980603-6.88743174-1.5594181-8.70675337-5.06811011-0.51980603-1.03961207-1.03961207-2.8589337-1.81932163-2.8589337-6.10772218-0.64975729-7.01738299-2.07922516-5.45796489-8.96665587 1.03961207-4.54830408-0.38985478-6.88743174 5.32801364-5.45796489 1.2995156 0.25990353 2.20917641-0.51980603 3.11883723-1.42946685 1.2995156-1.2995156 2.46907892-3.37873973 4.67825532-1.68937038 1.42946685 1.16956434 1.81932163 3.11883723 0.77970957 4.54830408-2.46907892 3.89854576 1.2995156 6.10772218 2.33912766 8.96665587v11.82559059z" fill="#AA7488" p-id="1748"></path><path d="M588.56396452 540.71929028c-1.94927288 0.51980603-2.33912766 1.94927288-2.59903121 3.76859554-1.2995156 10.7859775-1.2995156 10.7859775-11.69563831 7.92704381-2.46907892-0.38985478-4.80820658-1.5594181-5.97777093-3.76859451-1.2995156-2.72898245-2.33912766-6.10772218 3.11883724-4.93815887 5.19806136 2.72898245 5.84781967-0.38985478 5.19806135-4.28840054-0.38985478-2.8589337-2.07922516-6.10772218 1.29951561-7.79709256 3.24878848-1.68937038 7.27728652-2.07922516 10.526075-0.51980602 5.97777092 2.72898245 0.90966082 6.36762571 0.12995125 9.61641315z" fill="#E073A4" p-id="1749"></path><path d="M594.54173544 482.63095141c-3.24878848-0.12995125-5.45796489 4.54830408-9.2265594 1.94927288-0.64975729-0.38985478-1.5594181 0.25990353-1.29951561 1.0396131 1.94927288 6.36762571-3.63864326 7.40723777-6.88743174 10.13622022-1.42946685-3.24878848-4.93815886-3.63864326-7.40723777-5.32801364-1.5594181-1.03961207-3.11883723-2.46907892-2.4690789-4.80820658 0.51980603-2.07922516 2.46907892-1.5594181 4.15844929-1.94927392 7.53718902-1.68937038 15.59418511-2.8589337 17.54345799-12.47534788 1.68937038 4.02849804 3.89854576 7.6671413 5.58791614 11.43573582z" fill="#A96470" p-id="1750"></path><path d="M559.71472196 523.43573581c-0.51980603 1.68937038-0.90966082 3.24878848-1.2995156 4.93815886-0.90966082 3.24878848-1.81932163 3.24878848-4.93815783 1.42946685-5.97777092-3.37873973-5.58791614-8.70675337-5.71786842-14.03476701-0.12995125-2.8589337 2.59903119-2.46907892 4.28840157-2.33912766 3.11883723 0.25990353 6.23767445 0.77970956 9.2265594 1.16956434 0.90966082 2.07922516-0.51980603 3.11883723-1.81932163 4.02849702-2.98888495 1.81932163-1.2995156 3.24878848 0.25990251 4.8082076z" fill="#A67B8D" p-id="1751"></path><path d="M571.41036131 543.70817625c-4.02849804 1.16956434-3.37873973 3.24878848-0.90966082 5.32801261 1.2995156 1.03961207 3.63864326 0.90966082 3.76859451 3.37874077-3.89854576 7.14733527-2.8589337 5.84781967-8.9666569 1.2995156-6.23767445-4.67825533-1.03961207-8.57680212-1.5594181-12.73525143-0.12995125-1.5594181 1.94927288-1.68937038 3.50869202-1.68937037 3.11883723 0 4.67825533 1.2995156 4.15844929 4.41835282z" fill="#AC6985" p-id="1752"></path><path d="M559.71472196 523.43573581c-1.94927288-0.38985478-4.80820658 1.03961207-5.4579649-1.94927288-0.51980603-2.72898245 1.81932163-3.50869201 4.02849805-4.02849804 1.42946685-0.38985478 2.33912766-1.42946685 2.98888597-2.8589337l1.29951457-1.16956434c3.63864326 1.94927288 7.14733527-3.50869201 11.04588104-0.25990251 0.90966082 0.77970956 3.11883723 0 2.98888597 2.07922414-0.12995125 1.5594181-1.68937038 2.07922516-3.11883723 2.33912766-4.54830408 0.77970956-8.96665587 1.81932163-12.21544435 5.58791614l-1.55941912 0.25990353z" fill="#DB6C9F" p-id="1753"></path><path d="M561.27414108 507.45169592c-3.89854576-2.98888495-4.02849804-8.83670462-8.44685086-11.56568706-1.16956434-0.77970956-1.81932163-1.68937038-0.90966082-2.8589337 1.03961207-1.42946685 2.20917641-0.64975729 2.98888598 0.12995125 1.81932163 1.94927288 3.76859451 2.8589337 6.3676257 2.46907892 1.03961207 1.5594181 4.02849804-0.25990353 4.28840055 2.46907994 0 1.16956434-0.25990353 2.46907892 0.2599025 3.50869098 0.77970956 1.81932163 3.63864326 2.8589337 1.81932163 5.45796489-1.81932163 2.98888495-4.15844929 0.12995125-6.36762468 0.38985478z" fill="#DD6C9F" p-id="1754"></path><path d="M594.2818319 559.8221674c5.19806136-2.46907892 7.40723777 3.76859451 11.69563936 4.1584493 0 2.20917641-0.64975729 5.32801364-3.11883723 4.02849804-3.50869201-1.68937038-10.65602625-0.51980603-8.57680213-8.18694734z" fill="#8A5664" p-id="1755"></path><path d="M508.25391129 415.70590792c-0.51980603-0.64975729-0.77970956-1.81932163-1.94927287-1.55941913-0.64975729 0.25990353-0.38985478 1.16956434-0.38985479 1.94927391-4.02849804 8.18694734-10.7859775 9.61641418-18.97292484 4.1584493-2.59903119-5.58791614 1.68937038-6.62752821 5.32801365-8.18694734 2.20917641-1.16956434 4.15844929-2.59903119 4.41835179-5.32801364-0.90966082-3.37873973-3.63864326-2.98888495-6.10772218-3.1188362-1.68937038-0.12995125-3.89854576 0.64975729-3.89854575-2.33912869-0.77970956-4.15844929-5.84781967-6.23767445-4.41835284-12.0854931 0.90966082-3.76859451 1.81932163-6.75748049 4.41835284-9.4864619 8.83670462-6.23767445 19.23282837-6.62752821 29.49899984-7.53719006 5.32801364 0.38985478 4.67825533 3.89854576 3.50869098 7.14733527-1.16956434 3.37873973-1.2995156 5.84781967 2.33912766 7.79709256 5.97777092 3.11883723-2.33912766 6.49757696-0.12995125 9.74636543-0.25990353 4.02849804-3.76859451 2.46907892-5.84781967 3.50869099-2.72898245 1.42946685-6.75748049 1.94927288-4.4183518 6.75748048 3.63864326 2.8589337 7.92704381 2.33912766 12.21544435 2.33912767 3.11883723 1.94927288 2.20917641 4.93815886 2.20917641 7.6671413l-1.42946685 1.5594181-16.37389468-2.98888495z" fill="#A91617" p-id="1756"></path><path d="M540.87174837 401.28128613c-6.49757696-2.98888495-7.79709255-8.05699608-3.11883723-13.77486245 1.68937038-2.20917641 1.81932163-4.41835282 1.55941913-6.75748049-0.64975729-5.71786739 2.07922516-7.40723777 7.14733424-6.75748049 8.05699608-1.03961207 15.85408761-0.64975729 22.09176207 5.58791614 1.03961207 2.46907892 4.28840055 0.64975729 5.45796489 2.98888598 3.37873973 14.29466951 3.37873973 14.29466951-10.00626793 21.83185854-4.15844929 2.33912766-4.80820658 4.67825533-0.25990354 7.14733527l1.94927288 0.77970853c3.24878848 1.2995156 9.35651065-0.38985478 6.88743174 6.75748049-2.8589337 6.10772218-8.31689859 4.41835282-13.12510517 4.1584493-4.15844929-0.25990353-5.06811011-3.63864326-5.58791614-7.14733425-0.25990353-0.77970956-0.12995125-2.20917641-1.03961309-2.20917641-0.77970956 0-1.03961207 1.42946685-1.68936936 2.07922413-0.38985478 3.24878848-3.76859451 4.54830408-4.8082076 7.40723778-6.10772218 0.77970956-10.39612375-1.81932163-13.25505745-7.14733425-1.03961207-2.33912766-0.90966082-4.28840055 1.68937038-5.58791614 0.90966082-0.25990353 1.81932163-0.51980603 2.8589337-0.51980603 2.8589337-0.38985478 6.49757696 0.12995125 7.6671413-2.85893472 1.2995156-3.50869201-3.63864326-3.37873973-4.41835282-5.97777093z" fill="#AA1718" p-id="1757"></path><path d="M431.97235716 399.85181928c-0.51980603-3.50869201 0.25990353-7.6671413 4.02849701-10.13622021 3.24878848-4.80820658 7.79709255-5.84781967 13.12510619-4.80820658 2.8589337 0.51980603 5.58791614 0 8.44684984-0.64975833 6.88743174-1.42946685 13.25505744-1.16956434 16.50384593 6.62752925 0.51980603 0.51980603 1.5594181 1.16956434 1.42946685 1.5594181-1.81932163 5.32801364-1.03961207 11.56568707-5.58791615 15.85408864-3.24878848 4.15844929-1.68937038 6.10772218 3.11883723 6.49757696 1.68937038 0.12995125 3.37873973-0.51980603 5.06811011 0.12995125 3.50869201 2.59903119 3.63864326 5.32801364 0.51980603 8.31689859-5.71786739 6.23767445-7.14733527 6.10772218-17.67340924-1.2995156-2.07922516 2.33912766-0.12995125 7.14733527-4.41835282 8.05699608-2.8589337 0.64975729-5.06811011-0.51980603-7.14733425-2.46907994l-0.90966081-2.98888495c-10.00626897-1.2995156-12.0854931-5.58791614-15.07437908-14.16471826l-1.42946684-10.526075z" fill="#AA1618" p-id="1758"></path><path d="M596.36105707 424.41266129c-7.40723777 4.67825533-11.04588103 4.28840055-16.24394239-1.2995156-1.2995156-7.92704381-1.16956434-8.18694734 5.97777092-6.23767445 2.33912766 0.64975729 3.37873973-1.03961207 5.06811011-1.68936935 0.51980603-0.38985478 1.16956434-0.64975729 1.68936934-0.90966082 3.37873973-1.81932163 1.16956434-4.15844929-0.25990249-4.8082076-6.23767445-2.72898245-7.40723777-8.70675337-9.87631772-13.90481473-0.12995125-0.64975729-0.25990353-1.2995156-0.2599025-2.07922414 0.25990353-1.16956434 1.16956434-1.68937038 1.94927288-2.20917641 2.8589337-7.14733527 8.44684984-8.31689859 15.07437908-6.88743174 2.8589337 0.64975729 5.58791614 1.03961207 8.44684984 0.64975729 6.36762571-0.90966082 12.0854931 0.25990353 15.59418511 6.3676257 4.54830408 3.76859451 2.59903119 9.48646293 4.28840054 14.03476599 0.38985478 1.2995156-10.13622022 8.31689859-11.8255906 8.05699608-1.68937038-0.12995125-3.37873973-0.64975729-4.93815782-0.51980603-2.46907892 0.12995125-5.06811011 0.64975729-5.84781968 3.37873973-0.64975729 2.59903119 2.07922516 3.50869201 3.11883723 5.32801364 1.16956434 1.81932163 5.58791614 0.77970956 4.41835179 3.50869098-1.03961207 2.59903119-3.63864326 5.06811011-7.27728549 5.06811011-2.46907892 0-5.45796489 1.16956434-6.62752924-2.59903017-0.38985478-1.16956434-1.03961207-2.20917641-1.55941809-3.24878848 0-0.38985478-0.12995125-1.03961207-0.38985478-1.03961309-0.51980603 0-0.25990353 0.64975729-0.51980604 1.03961309z" fill="#A91617" p-id="1759"></path><path d="M572.83982815 448.97350227c8.05699608 0.38985478 9.48646293 4.28840055-1.55941913 6.62752821-8.70675337 0-40.80478441 2.33912766-40.80478337 2.3391287-17.02365196 0-45.09318495-1.94927288-46.91250658-2.46907995-9.2265594-2.59903119-10.91592978-5.45796489 5.45796489-8.70675337 7.53718902-0.25990353 23.52122891-2.46907892 41.45454169-2.46907892l42.3642025 4.67825533z" fill="#921B13" p-id="1760"></path><path d="M478.23510542 372.95185064c-0.64975729-5.71786739 3.63864326-12.99515391 9.35651169-14.81447555 8.83670462-2.72898245 17.93331277-2.98888495 27.0299199-0.90966081 3.63864326 0.77970956 5.32801364 2.8589337 5.84781967 6.23767342 0.64975729 3.89854576-0.12995125 7.01738299-4.15844929 8.57680212l-38.07580197 0.90966082z" fill="#F9C100" p-id="1761"></path><path d="M568.81133011 379.4494276c-7.14733527-3.11883723-14.68452429-3.89854576-22.09176207-5.58791615-1.16956434-3.50869201-6.62752821-1.5594181-7.27728652-6.10772217-0.64975729-5.84781967-1.42946685-10.26617147 6.88743174-11.69563936 11.17583228-1.94927288 21.05215-1.5594181 29.49899984 6.62752925 3.63864326 3.50869201 5.84781967 8.05699608 3.8985468 13.12510517-2.07922516 4.93815886-7.01738299 3.37873973-10.91592979 3.63864326z m54.70959914 11.82559059c-4.67825533-3.37873973-10.13622022-4.93815886-15.59418511-6.3676257-3.37873973-1.81932163-7.27728652-2.72898245-11.04588103-2.46907892-6.10772218 0.38985478-7.6671413-4.28840055-6.10772218-7.92704484 1.42946685-3.37873973 0.64975729-10.7859775 8.57680108-8.96665586 6.49757696 1.5594181 12.99515391 2.46907892 19.49273191 4.80820656 6.62752821 2.46907892 9.35651065 7.40723777 10.7859775 13.25505746 0.90966082 4.41835282-0.77970956 7.79709255-6.10772217 7.6671413z m-174.39496889-6.3676257c-4.28840055 1.81932163-9.2265594 1.81932163-13.12510619 4.80820658-2.20917641-0.12995125-4.93815886 2.72898245-6.23767343-0.64975729s-1.68937038-7.14733527 0.90966082-10.26617147c4.80820658-5.84781967 10.26617147-10.91592978 18.58307006-11.04588103 2.07922516 0 4.15844929-0.90966082 6.3676257-1.2995156 11.04588103-2.07922516 13.77486348 1.16956434 11.43573582 12.60529913-0.77970956 3.50869201-2.98888495 3.11883723-5.32801364 3.24878848-4.54830408 0.12995125-8.96665587-0.51980603-12.60529914 2.5990312z" fill="#F8BE00" p-id="1762"></path><path d="M533.33455934 380.74894319c-0.51980603 2.59903119-0.12995125 5.84781967-4.54830407 5.84781967-3.37873973 0-4.15844929-1.94927288-3.63864326-4.67825636 0.51980603-3.11883723 0.77970956-6.75748049 4.93815886-6.75747945 3.24878848 0 3.24878848 2.98888495 3.24878847 5.58791614z" fill="#AFAA83" p-id="1763"></path><path d="M538.5326207 434.80878401c-1.2995156 6.62752821-16.37389467 6.62752821-17.41350673 0.12995228 2.20917641-9.35651065 15.85408761-6.75748049 17.41350673-0.12995228z" fill="#A71716" p-id="1764"></path><path d="M558.28525511 440.52665243c-1.94927288-4.28840055-2.8589337-3.24878848 0-6.1077232 4.41835282-0.77970956 10.65602625-1.42946685 12.86520266 3.50869201l-1.2995156 2.33912766c-3.76859451 2.07922516-7.6671413 2.59903119-11.56568706 0.25990353z" fill="#208856" p-id="1765"></path><path d="M506.04473592 416.0957627c-1.42946685-1.16956434-3.50869201-2.07922516-2.20917641-4.54830407 0.38985478-0.64975729 1.68937038-1.16956434 2.46907891-1.0396131 2.72898245 0.77970956 2.72898245 2.8589337 2.07922516 5.06811114l-2.33912766 0.51980603z" fill="#B87875" p-id="1766"></path><path d="M551.39782337 415.70590792c-0.51980603-2.07922516-1.03961207-4.28840055 1.03961206-5.84781967 0.38985478-0.25990353 1.42946685 0 1.81932163 0.25990353 1.81932163 1.94927288 1.42946685 3.89854576-0.12995125 5.71786739l-2.72898244-0.12995125z" fill="#B6827B" p-id="1767"></path><path d="M529.56596483 373.21175313c-1.68937038-0.12995125-2.33912766-1.2995156-2.33912766-2.8589337 0-0.64975729 0.12995125-1.16956434 0.51980603-1.55941809 0.38985478-0.38985478 0.90966082-0.64975729 1.5594181-0.77970957 1.42946685-0.12995125 2.8589337 0.25990353 2.8589337 2.20917642-0.12995125 1.42946685-1.16956434 2.72898245-2.59903017 2.98888494z" fill="#AFAA83" p-id="1768"></path><path d="M596.36105707 424.41266129c-1.42946685-1.81932163-2.20917641-3.76859451 0.38985478-5.19806239 0.51980603-0.25990353 1.94927288 0.12995125 2.46907892 0.64975831 1.68937038 2.33912766-1.03961207 3.11883723-1.81932163 4.54830408h-1.03961207z" fill="#A26E6E" p-id="1769"></path><path d="M681.9991229 491.59760831c10.13622022 0.25990353 11.43573581 6.49757696 10.13622022 14.6845243-0.38985478 3.11883723 0 6.23767445 0 9.35651065 0 11.04588103-0.77970956 11.8255906-11.82559061 12.21544435l-9.87631669-0.51980603v-25.34055055c-0.12995125-11.30578456-0.12995125-11.30578456 11.56568708-10.39612272z" fill="#DADADA" p-id="1770"></path><path d="M699.15272611 550.85551049l-2.59903017-0.38985374c-0.51980603-1.68937038-1.2995156-3.24878848-3.11883723-3.50869202-7.27728652-1.03961207-3.76859451-5.71786739-2.85893369-9.09660815 1.16956434-4.93815886 4.54830408-3.63864326 7.79709152-2.33912767 2.72898245 1.03961207 4.54830408 2.20917641 2.98888598 5.84781968-1.16956434 2.8589337-1.42946685 6.23767445-2.20917641 9.4864619z" fill="#C19305" p-id="1771"></path><path d="M717.21599013 547.86662554c-0.12995125 1.94927288-0.12995125 3.89854576-0.51980603 5.7178674-0.38985478 1.16956434-1.16956434 2.07922516-2.07922414 2.59903119-0.51980603 0.25990353-2.46907892-0.51980603-2.33912766-0.77970956 0.12995125-4.80820658-7.27728652-4.93815886-6.3676257-8.96665587 0.77970956-3.37873973 5.19806136-5.32801364 8.83670462-4.93815886 2.8589337 0.38985478 3.63864326 3.37873973 2.46907891 6.3676257z" fill="#C08E05" p-id="1772"></path><path d="M653.9295899 545.00769186c-5.06811011-1.94927288-7.53718902-5.97777092-9.48646293-10.39612376-0.38985478-0.90966082 0.12995125-1.94927288 1.16956434-2.20917641 1.68937038-0.51980603 3.50869201-0.38985478 4.54830408 1.16956434 2.07922516 3.11883723 4.02849804 5.58791614 7.14733424 0.90966082 0.51980603-0.77970956 1.94927288-0.64975729 2.33912766 0.51980603 0.64975729 2.46907892-0.77970956 4.67825533-1.68936935 6.7574805-0.64975729 1.68937038-1.94927288 3.24878848-4.02849804 3.24878848z" fill="#BE8206" p-id="1773"></path><path d="M686.93728176 532.79224647c-1.42946685 2.98888495-3.89854576 4.54830408-3.63864326 7.53719006 0.12995125 1.42946685-0.12995125 3.24878848-2.07922517 2.98888494-1.42946685-0.12995125-1.94927288-1.68937038-2.33912767-3.24878848-1.2995156-6.23767445 0.64975729-8.18694734 8.0569961-7.27728652z" fill="#C08D06" p-id="1774"></path><path d="M666.14503425 532.40239169c2.98888495 3.63864326 3.63864326 6.75748049 1.55941913 10.00626896-0.12995125 0.25990353-1.5594181 0.38985478-1.81932163 0.12995126-2.33912766-3.11883723-1.81932163-6.10772218 0.2599025-10.13622022z" fill="#C08906" p-id="1775"></path><path d="M692.00539187 655.59645345c-5.58791614 0.12995125-11.17583228 0.38985478-16.63379822 0.51980602-3.11883723 0.12995125-5.06811011-0.77970956-5.0681101-4.41835179 0.12995125-15.98403989 0-31.96807875 0-47.95211968 0-1.94927288 0.90966082-3.11883723 2.59903119-3.89854576 6.23767445 1.94927288 12.34539663 4.15844929 17.93331277 7.6671413l1.16956436 48.08206991z" fill="#DADADA" p-id="1776"></path><path d="M703.70103018 645.07037844c0 11.56568707 0 11.56568707-11.69563831 10.52607501-0.51980603-15.98403989 1.42946685-32.09803103-1.16956436-48.08206991 4.41835282 1.03961207 8.96665587 1.81932163 12.47534789 4.93815783l0.38985478 32.61783707z" fill="#C2C0BD" p-id="1777"></path><path d="M379.34198215 655.59645345c-21.70190728 0.90966082-21.70190728 0.90966082-21.70190728-20.4023917 0-7.6671413-0.12995125-15.33428158-0.25990251-23.00142288 3.63864326-3.89854576 9.35651065-3.11883723 13.51495995-5.84781967 9.61641418-1.5594181 10.7859775-0.77970956 10.91592979 8.57680211 0.25990353 10.91592978 0.12995125 21.83185854 0 32.61783604-0.12995125 2.8589337-0.12995125 5.84781967-2.46907995 8.0569961z" fill="#D9D9D9" p-id="1778"></path><path d="M367.64634383 588.54145768c-10.26617147 2.72898245-10.526075 2.46907892-10.39612375-8.57680109v-18.71302234c0-6.10772218 2.20917641-10.26617147 8.9666569-10.52607501 15.33428158-1.81932163 15.59418511-1.68937038 15.33428158 13.64491224-0.12995125 6.10772218 1.81932163 12.60529913-2.07922412 18.32316755-4.02849804 2.07922516-7.92704381 3.89854576-11.82559061 5.84781865z" fill="#D7D5D5" p-id="1779"></path><path d="M379.34198215 655.59645345c0-13.64491223-0.38985478-27.28982343 0.25990353-40.93473567 0.38985478-7.14733527-2.20917641-9.48646293-8.83670462-8.44684984 4.67825533-2.07922516 9.2265594-4.93815886 14.42462076-5.84781967 2.20917641 1.94927288 2.20917641 4.67825533 2.20917641 7.40723778v40.41492961c0 2.72898245 0 5.32801364-2.07922516 7.40723779h-5.97777092z" fill="#ACACAC" p-id="1780"></path><path d="M498.89740065 440.91650722c-3.76859451-0.12995125-6.49757696 1.16956434-10.91592979-2.72898245 3.11883723-5.19806136 8.70675337-5.19806136 12.47534788-3.89854679 1.5594181 1.2995156-0.77970956 5.32801364-1.55941809 6.62752924z" fill="#1A885C" p-id="1781"></path><path d="M364.91736139 529.28355549c-4.28840055 0.12995125-5.97777092-1.81932163-5.84781968-6.10772321 0.12995125-8.44684984 0.12995125-16.8937007 0-25.34055054-0.12995125-3.76859451 1.42946685-4.93815886 5.06811011-5.06811011 15.33428158-0.90966082 15.33428158-0.90966082 15.33428262 14.29466951 0 2.59903119-0.25990353 5.32801364 0 7.92704381 0.90966082 6.23767445-1.16956434 10.65602625-7.27728653 12.86520266-2.20917641 1.68937038-4.80820658 1.42946685-7.27728652 1.42946788z" fill="#D9D9D9" p-id="1782"></path><path d="M354.91109242 535.9110837c2.07922516-0.12995125 3.89854576 0.64975729 4.93815886 2.33912766 1.2995156 2.07922516 0.25990353 3.63864326-1.2995156 5.06811011-0.77970956 0.64975729-1.5594181 1.16956434-2.07922413 1.94927288-1.2995156 1.81932163 0.90966082 6.88743174-3.63864326 5.32801364-4.15844929-1.42946685-4.80820658-6.62752821-4.93815886-10.526075 0-3.50869201 4.41835282-3.24878848 7.01738299-4.15844929z" fill="#C08D06" p-id="1783"></path><path d="M390.51781547 530.45311881c1.81932163 4.93815886-1.2995156 8.57680212-3.63864326 12.34539662-1.2995156 2.07922516-3.37873973 3.11883723-5.32801365 0.77970958-2.33912766-2.72898245-5.32801364-5.84781967-4.15844929-9.35651169 1.2995156-3.63864326 3.63864326-0.64975729 5.58791614 0.64975831 5.06811011 2.98888495 4.02849804-4.41835282 7.53719006-4.41835282z" fill="#B8700E" p-id="1784"></path><path d="M374.27387204 546.17725517c-2.46907892 0.90966082-4.80820658 1.03961207-6.75747946 0.12995228-4.41835282-1.94927288-4.15844929-6.10772218-3.89854679-10.00626897 0-1.42946685-0.25990353-3.50869201 1.55941913-3.63864326 4.15844929-0.12995125 2.8589337 4.28840055 4.67825532 6.23767342 1.68937038 2.20917641 2.8589337 4.80820658 4.4183518 7.27728653z" fill="#BC7B08" p-id="1785"></path><path d="M425.99458623 468.20633065c0.51980603-3.63864326 3.37873973-2.8589337 5.58791614-2.8589337 30.01880587 0 60.16756403 0 90.18636991-0.12995228 4.80820658 0 6.10772218 1.68937038 6.10772217 6.3676257-0.12995125 20.66229522-0.12995125 41.19463919 0 61.85693441 0 3.50869201-0.51980603 5.45796489-4.67825532 6.49757696-5.97777092 1.5594181-11.56568707 4.54830408-17.2835555 6.88743175-3.76859451 0.25990353-5.84781967-0.77970956-5.71786738-5.1980624 0.25990353-9.35651065-0.12995125-18.71302234 2.4690789-27.93958071 1.2995156-4.80820658 2.72898245-10.65602625-3.7685945-14.68452429-3.11883723-1.94927288 3.11883723-5.45796489 1.2995156-8.83670463-1.94927288-2.8589337-5.06811011-2.20917641-7.92704381-2.59903119-3.50869201-0.51980603-6.36762571-0.90966082-6.10772321-5.97777092 0.38985478-6.10772218-4.80820658-6.49757696-9.09660712-6.62752821-4.54830408-0.12995125-7.40723777 1.68937038-6.75748049 6.8874307 0.25990353 1.68937038-0.38985478 3.50869201-1.81932163 4.54830409-4.15844929 2.33912766-9.2265594-0.90966082-13.25505745 2.33912765-0.12995125 2.33912766-0.51980603 4.80820658 0.64975831 7.14733528 1.2995156 2.59903119-0.12995125 3.37873973-2.20917641 4.80820658-4.41835282 3.11883723-6.10772218 8.44684984-2.59903119 12.4753489 4.54830408 5.32801364 4.02849804 11.04588103 4.02849804 16.89369968 0 5.58791614 0 11.04588103-0.12995125 16.63379718-10.00626897-1.2995156-6.49757696 6.10772218-7.14733527 10.91592978-0.77970956 5.71786739 2.07922516 7.14733527 7.14733527 6.7574805 4.80820658-0.38985478 9.61641418-0.12995125 14.55457201-0.12995125 6.49757696 2.98888495 13.25505744 0.77970956 19.88258566 1.42946684 2.72898245 0.25990353 6.10772218-1.03961207 6.49757799 3.63864326 0.38985478 4.02849804-1.2995156 6.62752821-5.06811011 7.53718903-3.89854576 1.03961207-7.92704381 1.94927288-12.08549414 1.94927288-14.81447555-0.12995125-29.49899984-0.25990353-44.31347538 0.12995124-6.23767445 0.12995125-8.70675337-1.81932163-8.44684984-8.31689859 0.38985478-12.86520266 0.12995125-25.60045407 0-38.46565571-0.12995125-21.3120525 0-42.62410604 0-63.93615853z" fill="#AB1418" p-id="1786"></path><path d="M460.04189015 661.70417561l-0.64975832-81.34966424c9.87631669 1.03961207 10.13622022 1.42946685 10.26617251 10.7859775V692.63264231c0 2.33912766-0.90966082 3.63864326-3.37874077 3.76859554-2.8589337 0.12995125-3.76859451-1.42946685-3.76859451-4.02849804 0-8.18694734 0-16.50384592-0.12995125-24.69079327-0.12995125-2.07922516 1.16956434-5.06811011-2.33912766-5.97777093z" fill="#9E1616" p-id="1787"></path><path d="M494.34909656 696.5311891l-2.85893369 1.5594181c-7.92704381 0.90966082-7.92704381 0.90966082-7.9270438-6.49757696v-103.18152382c0-2.8589337-0.25990353-5.84781967 2.07922412-8.18694733 5.58791614-1.03961207 7.53718902 1.03961207 7.53719006 6.88743174-0.25990353 32.61783707-0.12995125 65.23567414-0.12995228 97.8535112-0.25990353 4.02849804 0.12995125 7.79709255 1.29951559 11.56568707z" fill="#9F2014" p-id="1788"></path><path d="M455.10373129 693.54230312c-3.11883723-1.68937038-4.54830408-4.02849804-4.54830408-7.9270438 0.25990353-32.09803103 0.12995125-64.19606104 0.12995126-96.42404333 0-1.16956434 0-2.46907892 0.12995227-3.63864326 0.12995125-2.20917641 1.2995156-3.89854576 3.63864326-3.63864326 2.33912766 0.12995125 2.07922516 2.20917641 2.07922414 3.89854576 0 5.84781967-0.38985478 11.69563832 0.12995125 17.41350674 1.2995156 16.37389467-0.12995125 32.61783707-0.12995125 48.99173175 0 3.37873973 0 6.75748049 2.85893369 9.2265594 0 9.09660815-0.12995125 18.32316755 0 27.41977468 0 3.24878848-0.38985478 5.58791614-4.28840054 4.67825532z" fill="#C4AC00" p-id="1789"></path><path d="M470.43801287 562.81105234c0.12995125-1.68937038 0.12995125-3.37873973 0.38985478-5.06811011 0.64975729-3.37873973-1.81932163-8.57680212 4.02849804-9.09660711 6.88743174-0.64975729 9.35651065 2.20917641 9.6164142 9.87631668 0 1.42946685 0.25990353 2.8589337 0.38985478 4.28840054-4.80820658 1.94927288-9.61641418 2.33912766-14.4246218 0z" fill="#133CC3" p-id="1790"></path><path d="M472.77714053 697.8307047c0-36.77628636-0.12995125-73.42262148-0.12995125-110.19890784 0-3.24878848-0.25990353-6.36762571 4.67825533-6.23767343 4.54830408 0.12995125 4.02849804 3.24878848 4.02849804 6.10772218 0 37.16614115 0 74.46223354-0.12995124 111.62837468-1.2995156 0.25990353-2.72898245 0.38985478-4.02849806 0.64975729l-4.41835282-1.94927288z" fill="#C3AF00" p-id="1791"></path><path d="M533.72441413 696.14133432c2.59903119 6.36762571 5.58791614 1.16956434 8.44684983 0.25990353 3.37873973 0.12995125 6.88743174-0.12995125 10.13622022 0.51980603s3.76859451 2.8589337 1.03961207 5.06811011c-2.07922516 1.68937038-4.67825533 2.8589337-7.2772855 2.98888495-5.45796489 0-11.56568707-2.59903119-15.46423385 4.15844929-0.64975729 1.03961207-2.33912766-3.76859451-2.98888598-5.19806136-0.64975729-0.90966082-6.10772218 2.98888495-13.6449112 2.8589337-3.24878848-0.90966082-6.75748049-6.88743174-0.64975832-9.48646191 3.11883723-0.25990353 16.11399114 2.20917641 15.7241374-0.90966081 1.5594181-1.16956434 3.11883723-1.2995156 4.67825533-0.25990353z" fill="#2A6254" p-id="1792"></path><path d="M524.8877095 348.91081569c-2.07922516-5.97777092 2.98888495-4.80820658 5.7178674-5.71786843 0.51980603 0 0.90966082 0.12995125 1.42946685 0.12995229 3.11883723 3.37873973 3.50869201 5.84781967-2.20917641 5.84781863-1.5594181-0.12995125-3.24878848-0.25990353-4.93815784-0.25990249z" fill="#1F62A4" p-id="1793"></path><path d="M448.3462508 408.29867015c0.64975729 0 1.42946685-0.12995125 2.07922516-0.12995228 2.72898245 0.25990353 7.01738299-0.77970956 7.14733424 2.72898245 0.12995125 3.11883723-1.03961207 7.6671413-6.23767342 7.79709255-3.11883723 0-5.84781967-0.90966082-6.88743174-4.15844929-1.2995156-3.50869201 2.46907892-4.15844929 3.89854576-6.23767343z" fill="#A68503" p-id="1794"></path><path d="M580.24706593 648.44911817c-0.12995125 2.20917641 0 4.41835282-1.42946685 6.3676257-2.98888495 3.89854576-2.72898245 7.92704381 0 11.95554185 1.2995156 1.94927288 1.2995156 4.02849804 1.2995156 6.23767447 0 2.20917641 0.12995125 4.54830408-2.3391287 5.58791614-2.20917641 0.90966082-4.41835282 0.51980603-5.84781865-1.42946685-2.07922516-2.59903119-5.06811011-3.63864326-7.92704379-4.67825533-2.33912766-0.90966082-5.45796489-0.77970956-5.71786843-4.41835282-0.25990353-3.89854576 0.77970956-8.05699608 4.28840054-9.2265594 6.23767445-2.07922516 10.39612375-4.93815886 11.69563935-11.82559061 0.25990353-1.42946685 2.20917641-4.28840055 4.67825532-3.50869097 2.20917641 0.64975729 0.90966082 3.24878848 1.29951561 4.93815782z" fill="#AC1E16" p-id="1795"></path><path d="M587.26444891 643.38100806c5.06811011 2.20917641 1.42946685 9.09660815 5.4579649 11.5656881 3.89854576 2.20917641 8.96665587 2.46907892 12.0854931 6.10772218 3.50869201 4.15844929 1.94927288 10.00626897-3.24878848 11.43573581-3.24878848 0.90966082-6.36762571 2.20917641-9.09660816 4.1584493-4.93815886 3.37873973-9.2265594 1.42946685-7.40723777-3.50869201 3.89854576-10.00626897 0.38985478-19.62268315 1.42946685-29.3690486-0.12995125-0.12995125 0.25990353-0.12995125 0.77970956-0.38985478z" fill="#AC1D16" p-id="1796"></path><path d="M588.56396452 629.99599936c2.33912766-3.37873973 5.06811011-6.36762571 9.09660815-7.79709255 4.28840055-1.5594181 7.6671413-4.02849804 7.53718902-9.35651066-0.12995125-2.46907892 1.81932163-3.89854576 3.24878848-5.45796489 1.42946685-1.68937038 2.72898245-5.06811011 5.32801364-3.37873973 2.33912766 1.42946685-0.64975729 3.76859451-0.90966081 5.7178674-0.64975729 4.02849804-1.68937038 8.05699608 1.81932163 11.43573581 2.20917641 2.07922516 1.16956434 4.54830408-0.25990353 6.49757696-1.2995156 2.07922516-3.89854576 4.67825533-5.7178674 3.24878848-6.88743174-5.45796489-13.25505744-0.38985478-19.88258669 0.12995228l-0.51980603-0.38985479 0.25990354-0.64975831z" fill="#AC1F16" p-id="1797"></path><path d="M608.7064537 598.41777539c-2.20917641 4.80820658-4.41835282 9.35651065-9.74636647 11.04588103-4.54830408 1.42946685-7.40723777 3.89854576-7.53718902 9.22655941 0 2.59903119-1.81932163 5.71786739-5.06811011 4.41835179-2.59903119-1.03961207-2.33912766-4.28840055-0.90966082-6.36762468 2.98888495-4.28840055 2.20917641-8.44684984 0.77970957-12.99515494-1.42946685-4.41835282 2.20917641-7.79709255 5.97777093-5.45796489 5.71786739 3.50869201 10.65602625 2.33912766 16.50384592 0.12995228z" fill="#AD2016" p-id="1798"></path><path d="M557.37559429 637.14333463c6.23767445 1.68937038 12.34539663 1.5594181 18.45311881-0.25990353l-0.12995125-0.12995125c-1.42946685 2.8589337-3.50869201 5.58791614-6.36762571 6.62752821-5.71786739 2.33912766-9.74636544 5.32801364-10.39612272 12.08549414-0.25990353 2.07922516-2.8589337 4.93815886-5.97777093 3.76859451-2.98888495-1.03961207-2.20917641-4.02849804-1.55941912-6.23767447 0.77970956-2.72898245 2.07922516-5.45796489-0.12995125-8.1869463l6.10772217-7.66714131z" fill="#AC1F16" p-id="1799"></path><path d="M615.07407837 641.82158996c-3.63864326 4.80820658-3.63864326 10.26617147-1.81932059 15.9840399 0.38985478 1.16956434-1.03961207 2.07922516-2.3391287 2.20917641-2.8589337 0.12995125-5.32801364-1.5594181-5.32801261-3.76859555-0.12995125-7.92704381-4.67825533-11.43573581-11.30578457-13.64491119-1.68937038-0.64975729-4.02849804-2.20917641-3.11883619-4.1584493 1.03961207-2.59903119 3.24878848-0.38985478 4.93815782-0.12995228 3.89854576 0.64975729 7.53718902-0.38985478 11.43573583-1.16956332 3.24878848-0.90966082 6.88743174-0.51980603 7.53718901 4.67825533z" fill="#AD2116" p-id="1800"></path><path d="M588.56396452 629.99599936c0 0.38985478 0.12995125 0.77970956 0.38985478 1.0396131-0.90966082 9.35651065-3.89854576 10.65602625-13.1251062 5.71786739l0.12995228 0.12995125v-5.84781864l-0.12995228 0.12995125c3.89854576-3.89854576 7.92704381-5.97777092 12.73525142-1.16956435z" fill="#368F52" p-id="1801"></path><path d="M466.66941836 520.83670462c1.5594181 2.8589337 3.37873973 5.45796489 3.508692 9.09660815 0.12995125 4.80820658-1.42946685 7.14733527-6.3676257 7.01738299-7.53718902-1.5594181-3.76859451-7.40723777-4.1584493-11.56568706-0.38985478-4.93815886 3.50869201-4.80820658 7.017383-4.54830408z" fill="#173A9F" p-id="1802"></path><path d="M491.49016287 536.82074451l-5.45796489-0.51980603c-0.12995125-2.8589337-0.38985478-5.71786739-0.51980604-8.57680212-0.12995125-3.11883723 0.64975729-5.84781967 4.54830409-5.97777092 3.37873973-0.25990353 6.10772218 1.81932163 6.23767342 4.67825532 0.12995125 3.89854576 0.90966082 8.96665587-4.80820658 10.39612375z" fill="#0B34AB" p-id="1803"></path><path d="M492.78967847 510.05072712c-2.98888495 0-3.89854576-2.20917641-3.8985468-4.28840157 0-2.20917641-0.12995125-5.32801364 2.5990312-5.84781865 3.11883723-0.51980603 4.54830408 2.07922516 5.06811011 4.93815783 0.51980603 2.98888495-1.42946685 4.28840055-3.76859451 5.19806239z" fill="#9F8D00" p-id="1804"></path><path d="M460.69164743 499.26474859c2.59903119 0.77970956 4.02849804 2.20917641 4.41835282 4.54830407 0.25990353 2.07922516 0.64975729 4.54830408-2.46907994 4.93815886-2.59903119 0.38985478-3.11883723-1.68937038-3.1188362-3.63864326 0-1.94927288-0.51980603-4.15844929 1.16956332-5.84781967z" fill="#A08F00" p-id="1805"></path><path d="M476.67568732 503.03334413c1.68937038 0 2.98888495 0.64975729 2.98888495 2.33912766 0 1.81932163-0.64975729 4.15844929-2.8589337 4.15844929-1.81932163 0-2.33912766-2.07922516-2.59903119-3.76859553-0.25990353-1.68937038 0.77970956-2.59903119 2.46907994-2.72898142z" fill="#AC9900" p-id="1806"></path><path d="M541.3915544 561.25163425c1.03961207 0.90966082 2.33912766 1.5594181 2.72898245 2.46907891 1.5594181 3.11883723 5.06811011 7.53718902 4.02849804 9.35651169-1.68937038 2.8589337-3.89854576 5.32801364-4.54830408 8.83670462-0.12995125 0.51980603-2.20917641 1.2995156-3.11883722 1.03961206-5.71786739-1.16956434-5.45796489-7.27728652-6.23767343-10.7859775-0.77970956-3.37873973 3.37873973-7.79709255 7.14733424-10.91592978z" fill="#918D1A" p-id="1807"></path><path d="M530.86548043 580.09460784c2.98888495 1.94927288 3.50869201 6.10772218 5.19806136 8.96665587 2.46907892 4.28840055-2.59903119 8.31689859-4.67825533 12.34539663-0.90966082 1.81932163-4.80820658 0.51980603-5.32801364-1.5594181-0.90966082-4.02849804-6.36762571-8.44684984-0.2599025-12.60530017 1.81932163-1.16956434 1.81932163-2.59903119 2.07922413-4.28840054 0.12995125-1.2995156 0.51980603-2.72898245 2.98888598-2.85893369z" fill="#888313" p-id="1808"></path><path d="M526.18722408 557.48303974c0 8.31689859-0.12995125 19.88258565-6.49757696 19.36277962-3.11883723-0.25990353-2.72898245-3.89854576-4.02849805-4.93815886-7.79709255-6.62752821 6.49757696-20.53234397 10.52607501-14.42462076z" fill="#647134" p-id="1809"></path><path d="M541.26160315 692.76259459c-2.20917641 2.72898245-11.95554185 2.46907892-18.45311881 1.68936935-3.63864326-0.51980603-4.67825533-8.44684984-1.03961206-9.61641316 8.70675337-2.8589337 8.70675337-2.8589337 18.58307005-1.68937038 1.2995156 4.02849804 3.11883723 5.71786739 0.90966082 9.61641419z" fill="#D5B37B" p-id="1810"></path><path d="M528.13649798 693.80220665c-0.77970956-4.02849804-0.77970956-8.05699608 1.03961207-11.82559059 2.46907892-0.64975729 2.8589337 1.68937038 4.15844929 2.72898244 2.8589337 3.63864326 1.2995156 7.53718902 0.38985479 11.30578457l-4.67825533 0.2599025-0.90966082-2.46907892z" fill="#822C23" p-id="1811"></path><path d="M593.24221985 514.72898245c2.46907892-1.81932163 2.59903119-5.06811011 4.28840053-7.40723778 5.06811011-1.5594181 5.06811011-5.19806136 3.8985468-9.2265594-0.77970956-2.59903119-1.5594181-5.19806136-0.25990354-7.79709255 1.16956434-2.33912766 3.24878848-3.89854576 5.84781968-3.11883723 2.98888495 0.90966082 1.94927288 3.24878848 1.42946685 5.45796489-1.42946685 7.14733527-0.90966082 14.29466951 0.38985478 21.57195603 2.33912766 12.60529913 0.64975729 14.16471826-11.30578457 12.0854931-1.68937038-3.76859451-3.63864326-7.27728652-4.28840053-11.56568706z" fill="#D6D3D4" p-id="1812"></path><path d="M581.02677549 412.06726466c-0.77970956 0-1.42946685-0.12995125-2.20917641-0.12995125-3.76859451 0.12995125-7.01738299-0.38985478-6.36762571-5.32801364 0.38985478-3.11883723 3.11883723-4.15844929 5.32801261-2.98888495 2.8589337 1.5594181 7.92704381 2.8589337 4.54830407 8.31689859-0.38985478 0-0.90966082 0-1.29951456 0.12995125z" fill="#AF8D03" p-id="1813"></path><path d="M525.01766076 406.99915455c0-0.90966082 0.12995125-1.81932163 0.12995125-2.72898244 1.94927288 0 4.02849804-2.46907892 5.97777092-0.12995126 0.90966082 1.03961207 0.77970956 2.20917641-0.2599025 3.24878848-2.07922516 2.07922516-4.02849804 0.64975729-5.84781967-0.38985478z" fill="#A91617"></path></svg>